<svg viewBox="0 0 14 14" xmlns="http://www.w3.org/2000/svg"><path d="m11.419 11.419c-.96722.96722-.96722 2.538 0 3.5052l2.2223 2.2223-1.0758 1.0758-2.2223-2.2223c-1.5607-1.5607-1.5607-4.0962 0-5.6569s4.0962-1.5607 5.6569 0l2.2223 2.2223-1.0758 1.0758-2.2223-2.2223c-.96722-.96722-2.538-.96722-3.5052 0zm1.6011 2.7123 1.1112-1.1112 4.8487 4.8487-1.1112 1.1112zm8.6368 1.8688c1.5607 1.5607 1.5607 4.0962 0 5.6569s-4.0962 1.5607-5.6569 0l-2.2223-2.2223 1.0758-1.0758 2.2223 2.2223c.96722.96722 2.538.96722 3.5052 0s.96722-2.538 0-3.5052l-2.2223-2.2223 1.0758-1.0758 2.2223 2.2223z" fill="#fff" transform="translate(-9 -9)"/></svg>