<svg fill="none" height="90" viewBox="0 0 128 90" width="128" xmlns="http://www.w3.org/2000/svg"><g fill="#e5243b"><path d="m25.858 57.1973c-14.514-1.4113-25.858-13.6462-25.858-28.5307 0-15.8321 12.8345-28.6666 28.6666-28.6666 15.4835 0 28.1 12.2756 28.648 27.6254.8398 13.9425-4.6097 44.5845-42.2484 61.0211-8.50382 3.7136-15.473915-9.4876-6.7187-14.6183 5.4389-3.1873 14.7079-10.0411 17.5105-16.8309z"/><path d="m96.4657 57.1973c-14.5139-1.4113-25.858-13.6462-25.858-28.5307 0-15.8321 12.8345-28.6666 28.6666-28.6666 15.4837 0 28.0997 12.2756 28.6477 27.6254.84 13.9425-4.609 44.5845-42.248 61.0211-8.5039 3.7136-15.474-9.4876-6.7188-14.6183 5.4389-3.1873 14.708-10.0411 17.5105-16.8309z"/></g></svg>