<svg fill="none" height="192" viewBox="0 0 192 192" width="192" xmlns="http://www.w3.org/2000/svg"><path d="m192 0h-192v192h192z" fill="#0a97d9"/><g fill="#fff"><path d="m25.5202 16.248v38.9196h-6.546v-29.7912h-.0564l-4.5912 4.764h-.0588v-6.8315l6.0264-7.0609z"/><path d="m33.4454 43.7481 5.8584-16.0236h.0576v16.0236zm12.0036 11.4276v-6.3156h2.6412v-5.112h-2.6412v-27.5088h-6.432l-11.3136 28.5996v4.0212h11.5428v6.3156z"/><path d="m120.726 143.895c-3.548 0-6.424-2.88-6.424-6.427 0-3.546 2.876-6.419 6.424-6.419 3.557 0 6.432 2.873 6.432 6.419 0 3.547-2.875 6.427-6.432 6.427zm27.9-2.995c-2.43-3.284-18.128-23.298-40.138-23.298-19.112 0-39.5576 17.335-39.5576 17.335s-7.68-15.719-23.3904-17.23c-.0924 0-.1908-.02-.2952-.02h-.0972c-.3276.018-.6348.336-.6.621.0444.275.246.575.246.575 2.0256 3.363 7.1928 12.927 7.1928 22.482 0 9.587-5.1984 19.177-7.2048 22.523l-.1356.214c-.0588.1-.0984.201-.0984.331 0 .332.258.59.5796.619l.1704-.014c.0528 0 .1092 0 .1656-.015 15.7596-1.469 23.4672-17.237 23.4672-17.237s20.4456 17.337 39.5576 17.337c22.01 0 37.708-20.015 40.138-23.291.067-.09.121-.167.169-.226.029-.076.052-.148.052-.241 0-.086-.023-.173-.052-.24-.048-.066-.102-.143-.169-.225z"/><path d="m45.0444 79.9815c-.048-.0096-.0804-.0264-.1212-.0264-.348 0-.6312.2844-.6312.6384v4.38c0 .1836.0696.3444.1836.4536 10.6248 9.2316 20.6844.582 23.0124-1.704.048-.0696.0972-.1356.1668-.1776.1044-.0672.2184-.1152.348-.1152.1644 0 .3192.0636.4272.1692.0084.012.0216.0228.0312.0276 12.0012 11.4528 24.5844 2.1768 27.2028 0l.258-.2352c.0732-.0348.1524-.048.2388-.048.0888 0 .1776.0132.2496.048l.2592.2352c2.616 2.1768 15.2004 11.4528 27.2004 0 .002-.0048.017-.0156.023-.0276.113-.1056.26-.1692.427-.1692.13 0 .251.048.348.1152.072.042.122.108.176.1776 2.327 2.286 12.376 10.9356 23.009 1.704.111-.1092.183-.27.183-.4536v-4.38c0-.354-.275-.6384-.623-.6384-.046 0-.089.0168-.137.0264-.098.0564-.2.1092-.318.1656-3.268 1.6368-13.402 5.5296-22.601-3.174-.086-.0804-.177-.1608-.267-.2544-.084-.0348-.166-.0576-.268-.0576-.065 0-.134.018-.191.0288-.137.0552-.246.1428-.319.2484-2.742 2.0904-15.326 10.6092-26.5344.156l-.162-.1608c-.1176-.1032-.2772-.1884-.4548-.1884-.1656 0-.33.0852-.438.1884l-.1752.1608c-11.2008 10.4532-23.7984 1.9344-26.5356-.156-.072-.1056-.1776-.1932-.312-.2484-.0648-.0108-.1284-.0288-.2004-.0288-.0888 0-.1776.0228-.264.0576-.0816.0936-.1788.174-.2688.2544-9.198 8.7036-19.3296 4.8108-22.5984 3.174-.1152-.0564-.2244-.1092-.324-.1656z"/><path d="m67.488 99.6629c.0504-.0708.0972-.1236.168-.174.1032-.0648.2172-.1176.3468-.1176.1644 0 .3204.066.4296.1752.006.0108.0192.0192.0288.0276 11.9976 11.4369 24.5844 2.1659 27.204 0l.2568-.246c.0732-.0288.1524-.0396.2376-.0396.0912 0 .1776.0108.2532.0396l.2568.246c2.616 2.1659 15.1994 11.4369 27.2014 0 .003-.0084.012-.0168.022-.0276.113-.1092.259-.1752.426-.1752.132 0 .252.0528.348.1176.074.0504.123.1032.177.174 2.326 2.2881 12.375 10.9401 23.009 1.7001.112-.112.186-.261.186-.442v-4.3937c0-.3492-.281-.6288-.626-.6288-.046 0-.089.018-.137.0264-.098.048-.202.1032-.318.1596-3.265 1.6392-13.404 5.5225-22.601-3.1693-.085-.0828-.176-.1644-.266-.2532-.085-.0468-.167-.0624-.269-.0624-.065 0-.133.0156-.191.048-.138.0336-.246.1212-.319.2352-2.74 2.0869-15.326 10.6092-26.5344.1536l-.1632-.1632c-.1164-.1128-.2772-.1764-.4548-.1764-.1644 0-.3288.0636-.438.1764l-.174.1632c-11.2008 10.4556-23.7984 1.9333-26.5356-.1536-.072-.114-.1788-.2016-.3108-.2352-.0648-.0324-.132-.048-.2016-.048-.09 0-.1764.0156-.2616.0624-.0864.0888-.1788.1704-.2724.2532-9.198 8.6918-19.3284 4.8085-22.5972 3.1693-.1152-.0564-.2232-.1116-.3228-.1596-.0492-.0084-.0804-.0264-.1212-.0264-.3492 0-.6324.2796-.6324.6288v4.3937c0 .181.0696.33.1824.442 10.626 9.24 20.6868.588 23.0136-1.7001z"/><path d="m67.98 25.0037h-2.6412v7.1772h-2.736v-16.2756h2.736v6.8904h2.6412v-6.8904h2.76v16.2756h-2.76z"/><path d="m75.2999 27.0209h2.184l-1.08-6.5304h-.0252zm-3.4332 5.16 3.072-16.2756h3.1212l3.0972 16.2756h-2.8092l-.504-2.976h-2.9052l-.4788 2.976z"/><path d="m89.604 15.9053-3.0972 16.2756h-2.9772l-3.096-16.2756h2.7852l1.872 11.3544h.024l1.92-11.3544z"/><path d="m98.795 28.4125v-8.7384c0-.984-.432-1.68-1.4172-1.68-.9588 0-1.392.696-1.392 1.68v8.7384c0 .984.4332 1.68 1.392 1.68.9852 0 1.4172-.696 1.4172-1.68zm-5.5452-.4332v-7.8732c0-2.544 1.248-4.3932 4.128-4.3932 2.9052 0 4.1532 1.8492 4.1532 4.3932v7.8732c0 2.5212-1.248 4.3944-4.1532 4.3944-2.88 0-4.128-1.8732-4.128-4.3944z"/><path d="m103.089 27.9793v-7.8732c0-2.544 1.2-4.3932 4.081-4.3932 3.024 0 3.864 1.6812 3.864 4.0812v1.9212h-2.496v-2.1372c0-1.008-.336-1.584-1.32-1.584s-1.393.696-1.393 1.68v8.7384c0 .984.409 1.68 1.393 1.68s1.32-.624 1.32-1.584v-3.0012h2.496v2.8092c0 2.328-.96 4.0572-3.864 4.0572-2.881 0-4.081-1.8732-4.081-4.3944z"/><path d="m117.898 25.0037h-2.641v7.1772h-2.736v-16.2756h2.736v6.8904h2.641v-6.8904h2.76v16.2756h-2.76z"/><path d="m132.274 21.6197h-.071l-1.849 10.5612h-1.272l-2.04-10.5612h-.048v10.5612h-2.258v-16.2756h3.194l1.776 9.1704h.024l1.585-9.1704h3.457v16.2756h-2.498z"/><path d="m139.328 27.0209h2.186l-1.082-6.5304h-.024zm-3.433 5.16 3.073-16.2756h3.12l3.098 16.2756h-2.81l-.502-2.976h-2.906l-.48 2.976z"/><path d="m149.047 18.1385v5.0652h.914c.936 0 1.344-.48 1.344-1.3452v-2.4c0-.888-.408-1.32-1.344-1.32zm0 6.5772v7.4652h-2.736v-16.2756h3.986c2.76 0 3.769 1.3692 3.769 3.6492v2.0892c0 1.752-.625 2.784-2.187 3.144l2.618 7.3932h-2.881z"/><path d="m158.287 15.9053h-2.736v16.2756h2.736z"/><path d="m162.175 21.9545v10.2264h-2.304v-16.2756h2.688l2.954 9.3384v-9.3384h2.28v16.2756h-2.4z"/><path d="m172.352 27.0209h2.184l-1.08-6.5304h-.025zm-3.433 5.16 3.072-16.2756h3.121l3.098 16.2756h-2.81l-.504-2.976h-2.905l-.479 2.976z"/><path d="m65.3388 40.9383v5.0652h.9132c.936 0 1.344-.48 1.344-1.3452v-2.4c0-.888-.408-1.32-1.344-1.32zm0 6.5772v7.4651h-2.736v-16.2755h3.9852c2.76 0 3.7692 1.3692 3.7692 3.6492v2.0892c0 1.752-.6252 2.784-2.1852 3.144l2.616 7.3931h-2.88z"/><path d="m71.8428 38.7051h6.5304v2.2332h-3.7944v4.6572h2.7132v2.208h-2.7132v4.9452h3.7944v2.2319h-6.5304z"/><path d="m79.5708 51.4773v-2.1852h2.5452v2.2333c0 .912.408 1.4399 1.344 1.4399.864 0 1.248-.5759 1.248-1.4399v-.6253c0-.9348-.384-1.512-1.2252-2.304l-1.608-1.608c-1.56-1.5372-2.28-2.472-2.28-4.3452v-.552c0-2.016 1.176-3.5772 3.84-3.5772 2.7372 0 3.8172 1.3452 3.8172 3.6972v1.32h-2.496v-1.416c0-.936-.432-1.392-1.296-1.392-.7692 0-1.296.432-1.296 1.344v.336c0 .912.504 1.4412 1.296 2.208l1.752 1.7292c1.488 1.512 2.2092 2.424 2.2092 4.2252v.792c0 2.2321-1.2012 3.8173-3.9864 3.8173-2.784 0-3.864-1.5612-3.864-3.6973z"/><path d="m96.8041 38.7051v12.3156c0 2.52-1.0788 4.1532-3.864 4.1532-2.88 0-4.08-1.6332-4.08-4.1532v-12.3156h2.736v12.5796c0 .96.384 1.608 1.344 1.608.9612 0 1.3452-.648 1.3452-1.608v-12.5796z"/><path d="m101.1 40.9383v5.0652h.912c.936 0 1.345-.48 1.345-1.3452v-2.4c0-.888-.409-1.32-1.345-1.32zm0 6.5772v7.4651h-2.7357v-16.2755h3.9837c2.761 0 3.771 1.3692 3.771 3.6492v2.0892c0 1.752-.626 2.784-2.187 3.144l2.617 7.3931h-2.88z"/><path d="m107.339 51.4773v-2.1852h2.545v2.2333c0 .912.408 1.4399 1.344 1.4399.864 0 1.248-.5759 1.248-1.4399v-.6253c0-.9348-.384-1.512-1.224-2.304l-1.608-1.608c-1.561-1.5372-2.28-2.472-2.28-4.3452v-.552c0-2.016 1.175-3.5772 3.84-3.5772 2.736 0 3.817 1.3452 3.817 3.6972v1.32h-2.497v-1.416c0-.936-.432-1.392-1.296-1.392-.768 0-1.296.432-1.296 1.344v.336c0 .912.504 1.4412 1.296 2.208l1.752 1.7292c1.489 1.512 2.209 2.424 2.209 4.2252v.792c0 2.2321-1.201 3.8173-3.985 3.8173s-3.865-1.5612-3.865-3.6973z"/><path d="m116.627 38.7051h6.53v2.2332h-3.793v4.6572h2.712v2.208h-2.712v4.9452h3.793v2.2319h-6.53z"/><path d="m127.355 40.9383v5.0652h.913c.936 0 1.344-.48 1.344-1.3452v-2.4c0-.888-.408-1.32-1.344-1.32zm0 6.5772v7.4651h-2.736v-16.2755h3.985c2.76 0 3.769 1.3692 3.769 3.6492v2.0892c0 1.752-.625 2.784-2.186 3.144l2.617 7.3931h-2.88z"/></g></svg>