<svg fill="none" height="192" viewBox="0 0 192 192" width="192" xmlns="http://www.w3.org/2000/svg"><path d="m192 0h-192v192h192z" fill="#e5243b"/><g fill="#fff"><path d="m26.9603 25.3974h.0576v29.8056h6.5448v-38.9364h-5.226l-6.0288 7.0632v6.8328h.0576z"/><path d="m148.717 92.1324c0-2.9556 2.397-5.3472 5.35-5.3472 2.947 0 5.337 2.3916 5.337 5.3472 0 2.9532-2.39 5.3472-5.337 5.3472-2.953 0-5.35-2.394-5.35-5.3472z"/><path d="m160.307 99.5414c3.626.3276 6.469 3.3796 6.469 7.0996v14.818c0 1.14-.927 2.072-2.069 2.072-1.149 0-2.074-.932-2.074-2.072v-12.727c0-.477-.138-1.123-1.011-1.123-.603 0-.729.64-.751 1.046v38.148c0 1.641-1.328 2.978-2.976 2.978-1.649 0-2.983-1.337-2.983-2.978v-21.982c-.009-.244-.089-.874-.845-.874h-.004c-.759 0-.852.63-.86.874v21.982c0 1.641-1.327 2.978-2.975 2.978-1.651 0-2.978-1.337-2.978-2.978v-38.148c-.021-.406-.15-1.046-.749-1.046-.877 0-1.01.646-1.01 1.123v12.727c0 1.14-.929 2.072-2.074 2.072-1.146 0-2.07-.932-2.07-2.072v-14.818c0-3.72 2.845-6.772 6.478-7.0996.118-.0156.249-.0336.392-.0336h11.683c.154 0 .279.018.407.0336z"/><path d="m116.926 94.9397c0-2.796-2.261-5.0676-5.058-5.0676-2.799 0-5.066 2.2716-5.066 5.0676 0 2.7972 2.267 5.0623 5.066 5.0623 2.797 0 5.058-2.2651 5.058-5.0623z"/><path d="m101.666 106.407-4.2082 13.699s-.75 2.512 1.3812 3.138c2.119.629 2.762-1.824 2.762-1.824l3.395-11.432s.184-.88.845-.69.413 1.13.413 1.13l-5.905 21.426h5.492v15.347c0 1.452 1.182 2.634 2.64 2.634 1.456 0 2.633-1.182 2.633-2.634v-15.347h1.499v15.347c0 1.452 1.176 2.634 2.636 2.634s2.641-1.182 2.641-2.634v-15.347h5.49l-5.901-21.426s-.249-.94.411-1.13c.661-.19.846.69.846.69l3.393 11.432s.645 2.453 2.762 1.824c2.135-.626 1.382-3.138 1.382-3.138l-4.208-13.699s-1.504-3.96-4.835-3.96h-10.728c-3.329 0-4.836 3.96-4.836 3.96z"/><path d="m86.6051 94.9397c0-2.796-2.2632-5.0676-5.0592-5.0676-2.7984 0-5.0628 2.2716-5.0628 5.0676 0 2.7972 2.2644 5.0623 5.0628 5.0623 2.796 0 5.0592-2.2651 5.0592-5.0623z"/><path d="m71.3446 106.407-4.206 13.699s-.7524 2.512 1.3788 3.138c2.1192.629 2.7624-1.824 2.7624-1.824l3.3936-11.432s.1836-.88.8448-.69c.6636.189.4128 1.13.4128 1.13l-5.904 21.426h5.4912v15.347c0 1.452 1.1856 2.634 2.64 2.634 1.458 0 2.6364-1.182 2.6364-2.634v-15.347h1.4988v15.347c0 1.452 1.1724 2.634 2.6364 2.634 1.4616 0 2.6376-1.182 2.6376-2.634v-15.347h5.4924l-5.9004-21.426s-.2508-.941.408-1.13c.6612-.19.8472.69.8472.69l3.39 11.432s.6456 2.453 2.7636 1.824c2.1336-.626 1.3812-3.138 1.3812-3.138l-4.2084-13.699s-1.5-3.96-4.8324-3.96h-10.7268c-3.3288 0-4.8372 3.96-4.8372 3.96z"/><path d="m133.927 123.273c2.332 0 4.212-1.886 4.212-4.218 0-2.329-1.88-4.209-4.212-4.209-2.33 0-4.213 1.88-4.213 4.209 0 2.332 1.883 4.218 4.213 4.218z"/><path d="m123.824 136.363c-.205.493-.374 1.537.615 1.993 1.16.533 1.806-.588 1.806-.588l2.291-7.304s.397-.49.397.015v17.198h.011c0 1.197.963 2.162 2.162 2.162 1.195 0 2.161-.965 2.161-2.162v-6.786s-.126-.96.648-.96c.773 0 .654.96.654.96v6.786c0 1.197.97 2.162 2.165 2.162 1.193 0 2.167-.965 2.167-2.162v-17.198c0-.505.268-.144.268-.144l1.795 5.002s.779 2.236 1.019 2.334c.81.341 1.746-.047 2.089-.864.223-.533.138-1.105-.172-1.537l.016-.016c-.052-.162-2.684-6.615-2.993-7.521-.95-2.775-2.681-2.751-4.346-2.796-1.666-.04-2.662 0-2.662 0s-1.064-.044-3.264.021c-2.195.069-2.888 1.194-5.311 7.426-.346.897-1.516 3.801-1.53 3.975z"/><path d="m41.3951 92.1324c0-2.9556-2.3988-5.3472-5.3508-5.3472-2.9496 0-5.34 2.3916-5.34 5.3472 0 2.9532 2.3904 5.3472 5.34 5.3472 2.952 0 5.3508-2.394 5.3508-5.3472z"/><path d="m29.8019 99.5414c-3.6252.3276-6.4716 3.3796-6.4716 7.0996v14.818c0 1.14.9288 2.072 2.0736 2.072 1.1472 0 2.0736-.932 2.0736-2.072v-12.727c0-.477.138-1.123 1.0116-1.123.6024 0 .7272.64.7536 1.046v38.148c0 1.641 1.3248 2.978 2.9736 2.978 1.6464 0 2.9784-1.337 2.9784-2.978v-21.982c.012-.244.0924-.874.8496-.874h.0024c.7584 0 .852.63.858.874v21.982c0 1.641 1.3296 2.978 2.976 2.978 1.65 0 2.9772-1.337 2.9772-2.978v-38.148c.018-.406.1536-1.046.7512-1.046.8784 0 1.0092.646 1.0092 1.123v12.727c0 1.14.93 2.072 2.0748 2.072s2.07-.932 2.07-2.072v-14.818c0-3.72-2.844-6.772-6.4764-7.0996-.1212-.0156-.2484-.0336-.3924-.0336h-11.6844c-.1536 0-.2808.018-.408.0336z"/><path clip-rule="evenodd" d="m25.2568 122.999c.3386.064.5614.39.4975.729l-4.7472 25.163c-.0639.339-.3902.561-.7289.497-.3386-.063-.5614-.39-.4975-.728l4.7472-25.163c.0639-.339.3902-.562.7289-.498z" fill-rule="evenodd"/><path d="m51.3012 121.066c-.276-.432-.7512-.72-1.3008-.72-.846 0-1.5348.689-1.5348 1.531 0 .245.15.673.15.673l4.248 7.688s.2604.53.2604 1.013v16.509h.0084c0 1.152.9288 2.076 2.0772 2.076 1.146 0 2.0712-.924 2.0712-2.076v-6.515s-.1176-.922.6264-.922c.7428 0 .6264.922.6264.922v6.515c0 1.152.9312 2.076 2.0784 2.076 1.146 0 2.0808-.924 2.0808-2.076v-16.509c0-.483.2568-1.013.2568-1.013l3.9264-7.096s.48-1.02.48-1.265c0-.842-.6864-1.531-1.536-1.531-.5556 0-1.0296.288-1.2996.72l-.018-.01c-.1224.107-2.0892 3.609-2.7384 4.258-.6864.691-1.3008.614-1.3008.614h-5.106s-.618.077-1.302-.614c-.6564-.649-2.6148-4.151-2.7408-4.258z"/><path d="m57.9073 123.273c2.3316 0 4.212-1.886 4.212-4.218 0-2.329-1.8804-4.209-4.212-4.209-2.3292 0-4.2108 1.88-4.2108 4.209 0 2.332 1.8816 4.218 4.2108 4.218z"/><path d="m57.9143 129.187 4.7628 3.474 2.2632 8.332h-14.0568l2.268-8.332z"/><path d="m58.7016 16.0342h-2.736v16.2756h2.736z"/><path d="m62.5908 22.0834v10.2264h-2.3052v-16.2756h2.688l2.9532 9.3384v-9.3384h2.28v16.2756h-2.4z"/><path d="m73.8936 23.6212h3.8892v8.6892h-1.9692v-1.776c-.36 1.224-1.128 1.968-2.616 1.968-2.352 0-3.4332-1.872-3.4332-4.3932v-7.8732c0-2.544 1.2252-4.3932 4.1052-4.3932 3.0252 0 3.9132 1.68 3.9132 4.0812v1.44h-2.496v-1.656c0-1.008-.3852-1.5852-1.3692-1.5852s-1.4172.6972-1.4172 1.6812v8.7384c0 .984.4092 1.68 1.3452 1.68.888 0 1.3452-.504 1.3452-1.56v-2.8812h-1.2972z"/><path d="m79.3416 16.0342h6.5292v2.2332h-3.7932v4.656h2.7132v2.2092h-2.7132v4.9452h3.7932v2.232h-6.5292z"/><path d="m89.6387 22.0834v10.2264h-2.3052v-16.2756h2.688l2.9532 9.3384v-9.3384h2.28v16.2756h-2.4z"/><path d="m55.9656 38.835h6.4092v2.2332h-3.6732v4.656h2.7384v2.2092h-2.7384v7.1772h-2.736z"/><path d="m65.6148 49.9494h2.1852l-1.0812-6.5292h-.024zm-3.4332 5.1612 3.072-16.2756h3.1212l3.0972 16.2756h-2.8092l-.504-2.976h-2.9052l-.4788 2.976z"/><path d="m71.0857 38.835h7.2732v2.2332h-2.2572v14.0424h-2.76v-14.0424h-2.256z"/><path d="m79.3176 38.835h7.2744v2.2332h-2.2572v14.0424h-2.7612v-14.0424h-2.256z"/><path d="m90.5973 38.835h-2.7372v16.2756h2.7372z"/><path d="m96.3084 46.421h3.8906v8.6892h-1.9694v-1.776c-.36 1.224-1.1292 1.968-2.6172 1.968-2.352 0-3.432-1.872-3.432-4.3932v-7.8732c0-2.544 1.224-4.3932 4.1052-4.3932 3.024 0 3.9134 1.68 3.9134 4.0812v1.44h-2.4974v-1.656c0-1.008-.384-1.5852-1.368-1.5852s-1.4172.6972-1.4172 1.6812v8.7384c0 .984.4092 1.68 1.344 1.68.8892 0 1.3452-.504 1.3452-1.56v-2.8812h-1.2972z"/><path d="m105.646 52.8786c1.126 0 1.558-.672 1.558-1.656v-8.5224c0-.96-.432-1.632-1.558-1.632h-1.154v11.8104zm4.296-9.6744v7.5384c0 2.496-1.034 4.368-3.962 4.368h-4.225v-16.2756h4.225c2.928 0 3.962 1.8492 3.962 4.3692z"/><path d="m117.045 51.3422v-8.7384c0-.984-.433-1.6812-1.417-1.6812-.96 0-1.392.6972-1.392 1.6812v8.7384c0 .984.432 1.68 1.392 1.68.984 0 1.417-.696 1.417-1.68zm-5.545-.4332v-7.8732c0-2.544 1.248-4.3932 4.128-4.3932 2.905 0 4.153 1.8492 4.153 4.3932v7.8732c0 2.5212-1.248 4.3932-4.153 4.3932-2.88 0-4.128-1.872-4.128-4.3932z"/><path d="m128.878 44.5482h-.071l-1.849 10.5624h-1.272l-2.04-10.5624h-.048v10.5624h-2.257v-16.2756h3.193l1.776 9.1704h.024l1.585-9.1704h3.456v16.2756h-2.497z"/></g></svg>