<svg fill="none" height="52" viewBox="0 0 100 52" width="100" xmlns="http://www.w3.org/2000/svg"><path d="m70.4639 30.4269c-.5594-.1528-2.9019-3.3907-1.0499-5.5215.3074-.3503-.6215-1.3808-.367-1.401 1.0129-.079 1.5513.5493 1.8175 1.4556.0202.3989.0361.8021.0361 1.2094 0 1.4589-.1528 2.8826-.4367 4.2575zm-5.7139 10.5308c-.2091-.0588-.4233-.126-.6551-.2419-1.1389-.5796-1.0029.3469-1.5622.1428-.5636-.2092.6316-1.5085-1.0508-.4099-1.6739 1.0961-1.222-.1688-1.9528-2.025-.7382-1.8579.8408-3.9778 2.1586-4.4574 1.8125-.6568 2.938-.7895 3.788-.9995 2.5054-.6257 3.0354-2.1132 3.4898-1.2078.0865.1688.1688.3301.2444.4821.1461.2705.3141.8181.3225 1.359-1.0641 2.7876-2.7053 5.2914-4.7824 7.3576zm-14.7118 6.0725c-2.0376 0-4.003-.2973-5.8625-.8399-.2671-.2184-.42-.5829-.2528-1.0196.6458-1.6832 2.5676-2.3417 4.0844-2.4879 3.3832-.33 7.8288 2.1956 8.5351 1.7882.7098-.4065 2.1393-2.2661 4.2374-2.1888 1.432.0554 1.4219.2957 1.9023.4771-3.5082 2.6759-7.8883 4.2709-12.6439 4.2709zm-2.8363-13.5964c-.2865.4695-1.0709 3.9778-1.5976 3.5696-.5291-.4099.2134-4.0685.3663-4.3474.8231-1.511 2.6053-1.4362 1.2313.7778zm8.5191-4.1416c-.4115.3671-1.4665.2327-1.9939-.1789-.5241-.4082.3326-1.0851.6459-1.1103.7021-.0622 1.7562.918 1.348 1.2892zm9.2062.0361c-.2251-.084-.4233-.2965-.5938-.8088-.1697-.5124.2604-.8047.6812-.5989.4292.2176.9843.8559.9843 1.1978 0 .341-.8424.2998-1.0717.2099zm.887.6409c.7013-.0563 1.7545.9155 1.343 1.2884-.4107.3696-1.4623.2343-1.9898-.1781-.5249-.409.3318-1.0843.6468-1.1103zm-22.3768 8.3184c-.4048 1.5942-.8785 2.1695-1.2817 2.6718-.4032.5089-1.8965 1.1582-2.8439 1.0885-.9491-.0714-1.081-2.6029-1.081-3.9048 0-.4501-.6366.8836-.9692-1.8268-.2117-1.7352-1.3262.1815-1.4035-.9759-.0798-1.1549-.6358-.9248-1.2221-1.6462-.5812-.7215-1.3069.0705-2.1207.435-.8089.3595-.4754.5493-1.6261.1873-.0302-.01-.0445-.0184-.0731-.0285-1.0557-2.4954-1.6395-5.2394-1.6395-8.1186 0-.7047.0378-1.3967.1042-2.0821.0386-.0697.0798-.1361.1285-.194 1.1028-1.3052 1.0784-1.611 1.0784-1.611l1.2204-.4224s1.9486.2998 3.4168.8533c1.2094.4536 3.1143 1.4791 4.2213 1.0272.8004-.3301 1.427-.7677 1.3514-1.4345-.0898-.8358-.7483-1.0348-1.5462-.4712-.294.2074-.9206-1.2607-1.4119-1.186-.4914.0731.6072 1.7252.1906 1.7949-.4182.0714-1.2581-1.7218-1.4018-2.0124-.1411-.2881-.7895-1.0079-1.3715-.4586-1.2305 1.1692-3.2286 1.0978-3.6301 1.3976-1.2212.9138-1.5438-.2998-1.516-1.0398.0487-.1688.0991-.3402.1528-.5073.399-.4393 1.8302-.5854 2.3215-.257.5401.3603.9264-.0933 1.1373-.3125.2141-.2133.1385-.5602.0042-.8474-.1369-.2898.2704-.5014.5493-.5762.2813-.0747 1.2103-.7257 1.5807-.9424.3754-.2158 2.3038-.4502 3.1681-.0176.8634.4351 1.6571.0798 2.0813-.42.5333-.6324 1.212-1.1154 1.5126-1.2607.3032-.1419-.7441-1.1187-1.6042-.0537-.8626 1.0599-1.3018 1.1582-1.7067 1.1582-.4056 0-2.8137-.6014-3.1101-1.3623-.294-.7593.7525-1.3296 1.642-1.7605.8878-.4233 3.3201-.4174 3.9417-.5585 1.264-.2772 2.88-.9121 3.6939-.3578.8096.5443-3.3991 1.5034-2.0158 2.2501.4922.2705 2.7179-1.28 3.4806-1.6765 1.794-.9255-1.7403-1.2312-1.2817-3.1118.519-2.1258-4.334-1.30354-6.7529-1.12296 3.2446-2.07877 7.0972-3.28739 11.2329-3.28739 9.8412 0 18.0849 6.81755 20.2829 15.98425.0151.4536-.0554.7803-.1016.9659-.1882.7517-1.6152 1.3976-2.4425.1873-.2108-.3049-1.1053-1.1498-1.0751.2957.0286 1.4463 1.4052 1.5933.0714 2.4617-1.3321.8668-1.5773.6577-2.193.8761-.6148.2175-1.2111 1.7075-1.0641 2.5037.1495.7962 2.051 2.9707.64 2.8809-.3309-.0244-2.8229-1.7269-3.2353-2.8213-.4334-1.1523-.908-2.2803-1.2439-3.1496-.3402-.8659-1.2196-1.0877-1.9654-.5779-.7416.5082.2074 1.0155-.3267 2.1023-.5309 1.0843-.913 2.0536-1.6966 1.1574-2.036-2.3332-4.9941-1.1826-5.4586-3.7787-.2503-1.4077-1.4623-1.2725-2.4752-2.0696-1.0188-.7928-1.5857-1.2237-1.7571-.65-.1512.5039 3.1883 3.1513 3.426 3.8291.3544 1.0079-.9995 1.8965-1.9914 2.135-.9869.2369-1.4228-.556-2.3946-1.5681-.9709-1.0104-1.3967-1.7335-1.4639-.939-.0975 1.1473.923 2.833 1.9124 3.4629.8441.5342 1.7899.7761 1.5169 1.6437-.2747.8702-.005.378-.9508 1.3136-.9474.9399-1.128 1.2423-1.0583 2.5408.0681 1.3027-.2713 1.3774-.4745 2.4601-.2024 1.0834-.6728.1461-1.0818 1.7352zm-11.206-22.9899c.0479-.0563.0907-.1025.1083-.126.3763-.4292 1.1263-.5208 1.6446-.6014.519-.089 1.2111.1722 1.2951.5174.089.3435-1.3019.9734-1.5555 1.2086-.7207.6635-1.8486 2.0158-2.508 2.1611-.2158.0487-.393.016-.5383-.0563.4333-1.0809.9516-2.1216 1.5538-3.1034zm1.07-2.1267c.2696-.3956 1.1658-1.5269 1.275-1.6697.231-.2973.6887-.3578 1.0096-.4149.3174-.0613.7416.1176.7928.357.0546.2393-.1234 1.1657-.2797 1.3253-.4392.4561-1.5823 1.0995-2.2123.9978-.4871-.0747-.6786-.4518-.5854-.5955zm66.3122 12.3265c-3.5603-4.9949-19.668-24.935977-49.6098-24.935977-29.946 0-46.04869 19.941077-49.614924 24.935977-.152023.2133-.282208.3981-.388876.5552.106668.1612.236853.3452.388876.561 3.566234 4.9924 19.668924 24.9352 49.614924 24.9352 29.9418 0 46.0495-19.9428 49.6098-24.9352.1563-.2158.2839-.3998.3864-.561-.1025-.1571-.2301-.3419-.3864-.5552z" fill="#000"/></svg>