<svg fill="none" height="99" viewBox="0 0 100 99" width="100" xmlns="http://www.w3.org/2000/svg"><path d="m67.8228 46.2353c5.1674-4.7935 8.4088-11.6349 8.4088-19.224 0-1.1354-.0803-2.2528-.2201-3.3522 10.4995 1.1243 18.7075 10.033 18.7075 20.8302 0 6.1325-2.6653 11.6405-6.8843 15.4773-3.9475-7.398-11.3331-12.6887-20.0119-13.7313zm17.8076 26.0406c0 11.5477-9.3988 20.9479-20.9507 20.9479-3.7592 0-7.2775-1.0094-10.3306-2.7485 4.4557-4.7049 7.2042-11.052 7.2042-18.0264 0-1.7169-.1745-3.3937-.4902-5.0192 3.7675 2.0935 8.0973 3.2913 12.7053 3.2913 4.0985 0 7.9809-.9485 11.4383-2.6336.2783 1.3542.4237 2.7554.4237 4.1885zm-71.2622.173c0-1.4898.1592-2.9395.4583-4.3407 3.4519 1.6712 7.3205 2.6128 11.4051 2.6128 4.5928 0 8.9087-1.1894 12.6652-3.2705-.2908 1.5632-.4528 3.1763-.4528 4.8254 0 7.0837 2.8329 13.5208 7.416 18.2451-3.1002 1.8152-6.6974 2.8758-10.5412 2.8758-11.5532 0-20.9506-9.3974-20.9506-20.9479zm-9.08858-27.9596c0-10.7972 8.20658-19.7045 18.70478-20.8302-.1399 1.0994-.2188 2.2168-.2188 3.3522 0 7.668 3.3093 14.5786 8.5694 19.3791-8.7009.99-16.1238 6.2488-20.1129 13.6302-4.24943-3.8354-6.94248-9.3697-6.94248-15.5313zm44.71758-38.42866c8.5846 0 15.9702 5.19096 19.2061 12.59726-8.5237 1.5037-15.6379 7.1294-19.2061 14.742-3.5626-7.614-10.6809-13.2397-19.2032-14.742 3.2358-7.4063 10.6213-12.59726 19.2032-12.59726zm4.9902 47.65716c2.9021-1.5217 6.192-2.394 9.6923-2.394 8.2371 0 15.3569 4.7908 18.781 11.7194-2.9049 1.5231-6.2003 2.3954-9.6923 2.3954-8.2399 0-15.3624-4.7894-18.781-11.7208zm-10.0454.1413c-3.4477 6.8552-10.5287 11.5795-18.7104 11.5795-3.4698 0-6.7403-.8626-9.6245-2.3621 3.4464-6.8539 10.5314-11.5796 18.7117-11.5796 3.4727 0 6.739.8626 9.6232 2.3622zm-15.6213-30.0698c10.0897 1.5009 17.863 10.1977 17.863 20.7 0 1.0953-.1108 2.167-.2742 3.2179-10.0911-1.5009-17.8616-10.1949-17.8616-20.6959 0-1.098.1094-2.1697.2728-3.222zm20.7734 63.4931c-3.9212-3.8091-6.3665-9.1261-6.3665-15.0065 0-5.7933 2.3664-11.0424 6.1741-14.8376 3.9199 3.8077 6.3679 9.1246 6.3679 15.0106 0 5.7891-2.3636 11.0382-6.1755 14.8335zm20.8552-60.2711c0 10.501-7.7705 19.195-17.8616 20.6959-.1634-1.0509-.2727-2.1226-.2727-3.2179 0-10.5023 7.7718-19.1977 17.8615-20.6986.1634 1.0509.2728 2.1226.2728 3.2206zm29.0507 17.478c0-14.1452-11.2528-25.7013-25.2693-26.2136-3.6055-10.18106-13.3298-17.49738-24.7335-17.49738-11.4009 0-21.1251 7.31632-24.7334 17.49738-14.0165.5137-25.2638 12.0698-25.2638 26.2136 0 8.3922 3.96693 15.8733 10.1216 20.6779-.66881 2.3151-1.03707 4.7562-1.03707 7.2817 0 14.4596 11.76917 26.2289 26.23427 26.2289 5.4901 0 10.5883-1.6976 14.8072-4.5928 4.1677 2.79 9.1731 4.4183 14.5537 4.4183 14.4637 0 26.2316-11.7679 26.2316-26.2274 0-2.4771-.3503-4.8697-.9942-7.1377 6.1311-4.8074 10.0829-12.2747 10.0829-20.6489z" fill="#000"/></svg>