<svg fill="none" height="94" viewBox="0 0 100 94" width="100" xmlns="http://www.w3.org/2000/svg"><g fill="#000"><path d="m85.9916.949942s-2.022 2.687988-1.4344 5.305478c.5916 2.61883 3.5774 4.17678 3.5774 4.17678s2.0246-2.68794 1.4343-5.30543c-.5915-2.62016-3.5773-4.176828-3.5773-4.176828z"/><path d="m82.6947 16.2961s2.0233-2.688 1.4344-5.3068c-.5929-2.62013-3.5773-4.17411-3.5773-4.17411s-2.0246 2.68527-1.437 5.30541c.5942 2.6161 3.5799 4.1755 3.5799 4.1755z"/><path d="m91.011 13.4179s2.1376 2.1562 4.5703 1.9395 4.2379-2.7212 4.2379-2.7212-2.1349-2.1548-4.5703-1.9395c-2.4327.218-4.2379 2.7212-4.2379 2.7212z"/><path d="m94.5109 1.9075c-1.9794 2.00865-1.7002 5.56333-1.7002 5.56333s3.4909.30312 5.4743-1.7042c1.981-2.00599 1.7015-5.561991 1.7015-5.561991s-3.4935-.3017956-5.4756 1.702861z"/><path d="m90.1429 21.4074c2.4248.2871 4.7046-1.7959 4.7046-1.7959s-1.6511-2.5457-4.0731-2.8315c-2.4261-.2858-4.7072 1.7972-4.7072 1.7972s1.651 2.5444 4.0757 2.8302z"/><path d="m92.3099 60.3878h-18.1244c-1.4184 0-2.5669 1.1446-2.5669 2.563 0 1.4157 1.1485 2.5656 2.5669 2.5656h18.1244c1.4158 0 2.563-1.1499 2.563-2.5656 0-1.4184-1.1472-2.563-2.563-2.563z"/><path d="m92.3099 88.6511h-18.1244c-1.4184 0-2.5669 1.1446-2.5669 2.563 0 1.4157 1.1485 2.5643 2.5669 2.5643h18.1244c1.4158 0 2.563-1.1486 2.563-2.5643 0-1.4184-1.1472-2.563-2.563-2.563z"/><path d="m10.7996 54.1637c-.428-.1316-.84932-.2472-1.26001-.3243 0 0 .46521.1449 1.26001.3243z"/><path d="m40.1728 65.2569c1.1951.02 2.3929-.0159 3.5946-.097v9.4689l-3.5946-.0824zm51.4683 2.0499h-16.795c-.8043 0-1.4583.654-1.4583 1.4596v5.0848l-10.9644 1.2057-16.016-.3669v-9.784c2.127-.2712 4.2579-.6953 6.3729-1.2921 15.4177-4.351 18.781-13.9541 18.4447-22.7743-.3364-8.9824 2.539-12.4693 6.6679-14.0206 1.1832-.4454 2.3531-.7259 3.4245-.908.0452 2.2067.4932 4.771 1.4795 7.8272.3656-.02.7312-.0505 1.0928-.0891-1.0422-3.1266-1.4863-5.6989-1.5115-7.891 2.1349-.2525 3.657-.1103 3.657-.1103s-1.4424-.775-3.4789-2.4779c.6926-4.2539 3.225-6.8647 5.8372-9.5354 1.4344-1.4716 2.9179-2.9884 4.0851-4.7976l-.9093-.58755c-1.106 1.72017-2.5551 3.19575-3.9522 4.62745-2.547 2.6055-5.1166 5.2668-5.9873 9.4888-.8269-.7471-1.7229-1.6297-2.6375-2.6573-3.8032-4.2632-8.6966-1.1313-15.677 5.3665-6.983 6.4952-15.7633 6.7186-24.3389-2.0565-11.3154-11.5825-21.1845-11.5174-27.9522-10.8594 4.6288 1.9714 6.2494 6.2985 8.593 17.2948 2.4553 11.5387 8.6486 16.759 17.1219 17.4795-3.9282.6368-4.9451 1.1805-11.2595 5.5421-4.9319 3.4031-11.8685 2.3277-14.68 1.6882 5.1631 1.6099 11.2768 7.0257 16.7484 8.9094 3.1864 1.0967 6.5444 1.7746 9.9848 2.0471v9.3653l-30.3809-.6541v6.5338l55.2715-1.227 10.9644 1.207v5.0834c0 .8029.654 1.461 1.4583 1.461h16.795c.8069 0 1.4622-.6581 1.4622-1.461v-16.662c0-.8056-.6553-1.4596-1.4622-1.4596z"/><path d="m5.58325 79.2858c0 1.3772-.96113 2.4952-2.14558 2.4952h-1.2921c-1.18178 0-2.14557-1.118-2.14557-2.4952v-4.5171c0-1.3799.96379-2.4952 2.14557-2.4952h1.2921c1.18445 0 2.14558 1.1153 2.14558 2.4952z"/></g></svg>