<svg fill="none" height="76" viewBox="0 0 100 76" width="100" xmlns="http://www.w3.org/2000/svg"><g fill="#000"><path d="m.653339 54.8764h22.154561c.3002 0 .5436-.2453.5436-.5455 0-.14-.0558-.2645-.1428-.3615l-.0302-.032-11.0223-14.2614-.1071-.118c-.1007-.109-.2426-.1767-.4018-.1767-.1364 0-.259.0568-.3569.1391l-.0659.0769-.1034.1163-10.753329 14.1112-.165688.2023c-.058576.086-.092396.1913-.092396.3038 0 .3002.243451.5455.543652.5455z"/><path d="m22.7412 56.887h-22.198496c-.300202 0-.542704.2426-.542704.5437v17.3714c0 .3002.242502.5455.542704.5455h7.145366v-10.9299c0-.302.24254-.5428.54366-.5428h6.63197c.3002 0 .5436.2408.5436.5428v10.9299h7.3339c.2993 0 .5437-.2453.5437-.5455v-17.3714c0-.3011-.2444-.5437-.5437-.5437z"/><path d="m97.473 59.4507c0 .2892-.2398.5235-.5382.5235h-6.5623c-.2983 0-.5381-.2343-.5381-.5235v-3.9923c0-.2874.2398-.5217.5381-.5217h6.5623c.2984 0 .5382.2343.5382.5217zm0 7.3714c0 .292-.2398.5254-.5382.5254h-6.5623c-.2983 0-.5381-.2334-.5381-.5254v-3.9877c0-.292.2398-.5235.5381-.5235h6.5623c.2984 0 .5382.2315.5382.5235zm-10.032-7.3714c0 .2892-.2398.5235-.5363.5235h-6.5642c-.2984 0-.54-.2343-.54-.5235v-3.9923c0-.2874.2416-.5217.54-.5217h6.5642c.2965 0 .5363.2343.5363.5217zm0 7.3714c0 .292-.2398.5254-.5363.5254h-6.5642c-.2984 0-.54-.2334-.54-.5254v-3.9877c0-.292.2416-.5235.54-.5235h6.5642c.2965 0 .5363.2315.5363.5235zm12.0209-14.4829h-21.9705c-.2975 0-.5364.2307-.5364.5217v22.1865c0 .2874.2389.5217.5364.5217h21.9705c.2993 0 .5381-.2343.5381-.5217v-22.1865c0-.291-.2388-.5217-.5381-.5217z"/><path d="m45.2536 16.6087c0 .1538-.1272.281-.2846.281h-4.9213c-.1565 0-.2819-.1272-.2819-.281v-5.4878c0-.1574.1254-.2828.2819-.2828h4.9213c.1574 0 .2846.1254.2846.2828zm0 12.5975c0 .1556-.1272.2819-.2846.2819h-4.9213c-.1565 0-.2819-.1263-.2819-.2819v-5.4878c0-.1556.1254-.2792.2819-.2792h4.9213c.1574 0 .2846.1236.2846.2792zm0 12.6002c0 .1556-.1272.2828-.2846.2828h-4.9213c-.1565 0-.2819-.1272-.2819-.2828v-5.4878c0-.1556.1254-.2819.2819-.2819h4.9213c.1574 0 .2846.1263.2846.2819zm0 12.5975c0 .1592-.1272.2828-.2846.2828h-4.9213c-.1565 0-.2819-.1236-.2819-.2828v-5.4842c0-.1592.1254-.2828.2819-.2828h4.9213c.1574 0 .2846.1236.2846.2828zm0 12.6002c0 .1556-.1272.2828-.2846.2828h-4.9213c-.1565 0-.2819-.1272-.2819-.2828v-5.486c0-.1556.1254-.28.2819-.28h4.9213c.1574 0 .2846.1244.2846.28zm-9.6549-50.3954c0 .1538-.1272.281-.2828.281h-4.9223c-.1555 0-.2827-.1272-.2827-.281v-5.4878c0-.1574.1272-.2828.2827-.2828h4.9223c.1556 0 .2828.1254.2828.2828zm0 12.5975c0 .1556-.1272.2819-.2828.2819h-4.9223c-.1555 0-.2827-.1263-.2827-.2819v-5.4878c0-.1556.1272-.2792.2827-.2792h4.9223c.1556 0 .2828.1236.2828.2792zm0 12.6002c0 .1556-.1272.2828-.2828.2828h-4.9223c-.1555 0-.2827-.1272-.2827-.2828v-5.4878c0-.1556.1272-.2819.2827-.2819h4.9223c.1556 0 .2828.1263.2828.2819zm0 12.5975c0 .1592-.1272.2828-.2828.2828h-4.9223c-.1555 0-.2827-.1236-.2827-.2828v-5.4842c0-.1592.1272-.2828.2827-.2828h4.9223c.1556 0 .2828.1236.2828.2828zm0 12.6002c0 .1556-.1272.2828-.2828.2828h-4.9223c-.1555 0-.2827-.1272-.2827-.2828v-5.486c0-.1556.1272-.28.2827-.28h4.9223c.1556 0 .2828.1244.2828.28zm12.7906-66.16328h-21.502c-.2874 0-.5253.2343-.5253.52809v73.48159c0 .2892.2379.5254.5253.5254h21.502c.2874 0 .529-.2362.529-.5254v-73.48159c0-.29379-.2416-.52809-.529-.52809z"/><path d="m99.9753 50.1071c0 .2463-.1967.443-.4411.443h-22.1152c-.2426 0-.4412-.1967-.4412-.443v-4.4224c0-.2435.1986-.4421.4412-.4421h22.1152c.2444 0 .4411.1986.4411.4421z"/><path d="m71.9157 37.1698c0 .2911-.238.5254-.5254.5254h-6.4067c-.2938 0-.5299-.2343-.5299-.5254v-4.0115c0-.2929.2361-.5272.5299-.5272h6.4067c.2874 0 .5254.2343.5254.5272zm0 7.4127c0 .2901-.238.5244-.5254.5244h-6.4067c-.2938 0-.5299-.2343-.5299-.5244v-4.0107c0-.2919.2361-.5262.5299-.5262h6.4067c.2874 0 .5254.2343.5254.5262zm0 7.4135c0 .2883-.238.5235-.5254.5235h-6.4067c-.2938 0-.5299-.2352-.5299-.5235v-4.0134c0-.291.2361-.5253.5299-.5253h6.4067c.2874 0 .5254.2343.5254.5253zm0 7.4117c0 .291-.238.5253-.5254.5253h-6.4067c-.2938 0-.5299-.2343-.5299-.5253v-4.0116c0-.2929.2361-.5253.5299-.5253h6.4067c.2874 0 .5254.2324.5254.5253zm0 7.4107c0 .292-.238.5263-.5254.5263h-6.4067c-.2938 0-.5299-.2343-.5299-.5263v-4.0106c0-.2901.2361-.5244.5299-.5244h6.4067c.2874 0 .5254.2343.5254.5244zm-9.7785-31.3024v9.0738c0 .2919-.238.5253-.5254.5253h-6.4067c-.2929 0-.529-.2334-.529-.5253v-1.112c.0027-.0696.0155-.1355.0402-.1959.0101-.022.012-.0311.0321-.0613.0128-.0247.0302-.0486.0466-.0696.0156-.0247.0403-.0577.0595-.086.8192-1.1725 4.5159-5.7258 6.0681-7.6295l.1556-.1877c.1126-.1354.2828-.2233.4732-.2233.2938 0 .529.2142.5858.4915zm-.0174 16.48c0 .2883-.2343.5235-.5263.5235h-6.4085c-.2911 0-.5254-.2352-.5254-.5235v-4.0134c0-.291.2343-.5253.5254-.5253h6.4085c.292 0 .5263.2343.5263.5253zm0 7.4117c0 .291-.2343.5253-.5263.5253h-6.4085c-.2911 0-.5254-.2343-.5254-.5253v-4.0116c0-.2929.2343-.5253.5254-.5253h6.4085c.292 0 .5263.2324.5263.5253zm0 7.4107c0 .292-.2343.5263-.5263.5263h-6.4085c-.2911 0-.5254-.2343-.5254-.5263v-4.0106c0-.2901.2343-.5244.5254-.5244h6.4085c.292 0 .5263.2343.5263.5244zm3.3434-37.5426.151-.1894c1.4461-1.8561 3.8825-4.8554 5.0705-6.3125l.1556-.1858c.1125-.1354.2828-.2233.4732-.2233.2938 0 .5289.2123.5857.4915v6.782c0 .3276-.2599.5903-.5839.604-.0092 0-.0174.0055-.0266.0055-.0091 0-.0164-.0055-.0265-.0055h-5.281c-.0092 0-.0174.0055-.0265.0055-.0092 0-.0174-.0055-.0266-.0055-.324-.0137-.5839-.2764-.5839-.604 0-.1355.0439-.2609.119-.3625zm8.8971-14.5579c-.0714-.2361-.281-.4119-.54-.4119-.1162 0-.2178.043-.3075.1025-.0138.0083-.0265.0156-.0402.0266l-.1813.2288-21.1322 26.8067-.0979.1309c-.1089.1071-.1785.2535-.1831.4183v32.9416c0 .2892.2362.5235.5273.5235h21.4799c.2911 0 .5254-.2343.5254-.5235v-60.0238c0-.0788-.0202-.1538-.0504-.2197z"/></g></svg>