<svg fill="none" height="192" viewBox="0 0 192 192" width="192" xmlns="http://www.w3.org/2000/svg"><path d="m192 0h-192v192h192z" fill="#56c02b"/><g fill="#fff"><path d="m16.1545 23.2297v6.8328h.0564l4.5936-4.7652h.0588v29.8032h6.546v-38.9364h-5.2272z"/><path d="m42.972 28.5138c-2.5836 0-4.4772.9168-5.5128 2.6976h-.0588v-9.7056h11.2572v-5.3388h-17.2273v21.9384h5.9701v-.864c0-2.2944 1.0332-3.5592 2.8716-3.5592 2.01 0 2.8164 1.3788 2.8164 3.504v9.4176c0 2.0652-.7476 3.5016-2.7588 3.5016-2.238 0-3.0396-1.4928-3.0396-3.7896v-4.8804h-5.976v4.4232c0 5.9136 2.3556 9.7032 9.0156 9.7032 6.6048 0 9.3024-3.504 9.3024-8.9016v-9.5328c0-6.1452-3.1572-8.6136-6.66-8.6136z"/><path d="m85.0045 138.431c.21 0 .378.17.378.38v12.504c0 .212-.168.38-.378.38h-5.0604c-.2112 0-.3793-.168-.3793-.38v-12.504c0-.21.1681-.38.3793-.38z"/><path d="m140.574 157.064h-83.3877c-.2088 0-.3804.179-.3804.391v5.098c0 .207.1716.374.3804.374h83.3877c.204 0 .382-.167.382-.374v-5.098c0-.212-.178-.391-.382-.391z"/><path d="m140.574 167.193h-83.3877c-.2088 0-.3804.168-.3804.376v5.112c0 .204.1716.376.3804.376h83.3877c.204 0 .382-.172.382-.376v-5.112c0-.208-.178-.376-.382-.376z"/><path d="m124.705 124.589c-1.042-.814-3.822-2.718-7.214-2.718-2.422 0-4.678.956-6.696 2.847-.142.134-.223.323-.223.522v.455c0 .223.075.432.238.57.181.136.371.188.588.136.048-.006.107-.021.156-.039.155-.054.299-.147.417-.264.437-.294 1.631-.696 3.34-.696 1.765 0 5.237.473 8.592 3.601l.076.07c.189.193.45.301.726.301.262 0 .534-.109.705-.295l.067-.07c3.375-3.134 6.839-3.607 8.604-3.607 1.722 0 2.91.402 3.35.696.12.117.266.212.46.282.075.021.286.065.489.015.308-.087.525-.366.525-.687v-.403c0-.19-.082-.382-.224-.515-2.036-1.942-4.315-2.922-6.778-2.922-3.36 0-6.128 1.873-7.198 2.721z"/><path d="m119.53 91.3555c-.177.0816-.305.2436-.363.4392l-.085.2784c-.061.2184-.023.45.109.6252.131.1704.313.2724.517.2808.038.0048.075.0144.104.0048.145-.0048.274-.036.404-.1032.073-.0144.227-.0564.505-.0564.372 0 3.735.114 5.957 3.8916l.029.054c.12.2184.309.3696.533.4272.064.0204.188.0408.266.0408.154 0 .31-.0408.419-.1044l.055-.0264c1.217-.6084 2.477-.9204 3.721-.9204 2.106 0 3.481.8604 3.803 1.218.066.1212.166.2268.278.3108.071.0408.196.1044.272.1308.037.0084.08.0144.122.0168.024.0048.05.0048.076.0048.114 0 .222-.0276.33-.0828.171-.0864.298-.2412.354-.4272l.07-.246c.021-.0624.029-.1308.029-.2028 0-.1296-.033-.2556-.097-.3576-1.619-2.8116-3.968-3.3996-5.657-3.3996-1.255 0-2.354.3252-3.001.5628-.763-1.0272-2.694-3.1512-5.623-3.1512-1.03 0-2.08.2652-3.127.792z"/><path d="m101.911 104.183.024.376c.011.235.135.438.334.562.164.103.374.14.56.085.041-.01.087-.025.123-.039.143-.058.265-.15.36-.266.355-.256 1.496-.722 3.18-.722 1.62 0 4.082.433 6.593 2.494l.058.06c.18.155.41.243.644.243h.061c.263-.021.506-.142.655-.315l.056-.063c2.778-2.941 5.772-3.378 7.311-3.378 1.094 0 1.871.225 2.173.397.115.098.257.176.433.224.049.012.173.034.305.021.054-.006.122-.025.176-.042.298-.105.494-.395.472-.718l-.018-.325c-.012-.194-.103-.37-.251-.497-1.659-1.394-3.449-2.099-5.334-2.099-2.933 0-5.273 1.733-6.242 2.583-.886-.605-3.039-1.847-5.562-1.847-2.219 0-4.209.922-5.916 2.734-.135.142-.203.338-.195.532z"/><path d="m59.7126 110.878c0-4.993 4.0489-9.039 9.0409-9.039.1956 0 .3852.016.5784.027.4764-6.3177 5.7419-11.3025 12.1847-11.3025 6.756 0 12.2328 5.4756 12.2328 12.2315 0 1.914-.4536 3.718-1.2372 5.33 6.1212 1.356 10.7038 6.808 10.7038 13.336 0 7.548-6.1198 13.668-13.669 13.668-.5508 0-18.2412-.106-18.2412-.106-5.346-.001-9.6803-4.332-9.6803-9.678 0-2.569 1.0067-4.894 2.6399-6.626-2.718-1.56-4.5528-4.483-4.5528-7.841z"/><path d="m64.332 15.9053h6.5304v2.2332h-3.7932v4.6572h2.712v2.208h-2.712v4.9452h3.7932v2.232h-6.5304z"/><path d="m75.06 24.2597v7.9212h-2.736v-16.2756h2.736v7.1544l2.976-7.1544h2.6892l-3.168 7.3224 3.24 8.9532h-2.88z"/><path d="m86.773 28.4125v-8.7384c0-.984-.4332-1.68-1.4172-1.68-.96 0-1.392.696-1.392 1.68v8.7384c0 .984.432 1.68 1.392 1.68.984 0 1.4172-.696 1.4172-1.68zm-5.5464-.4332v-7.8732c0-2.544 1.248-4.3932 4.1292-4.3932 2.9052 0 4.1532 1.8492 4.1532 4.3932v7.8732c0 2.5212-1.248 4.3944-4.1532 4.3944-2.8812 0-4.1292-1.8732-4.1292-4.3944z"/><path d="m90.9238 28.6765v-2.1852h2.5452v2.2332c0 .912.4068 1.44 1.344 1.44.8629 0 1.2481-.576 1.2481-1.44v-.6252c0-.9348-.3852-1.512-1.2252-2.304l-1.608-1.608c-1.5601-1.5372-2.28-2.472-2.28-4.3452v-.552c0-2.016 1.1759-3.5772 3.84-3.5772 2.736 0 3.8172 1.3452 3.8172 3.6972v1.32h-2.496v-1.416c0-.936-.4332-1.392-1.2961-1.392-.7692 0-1.2959.432-1.2959 1.344v.336c0 .912.5039 1.4412 1.2959 2.208l1.7521 1.7292c1.488 1.512 2.208 2.424 2.208 4.2252v.792c0 2.232-1.2 3.8172-3.9852 3.8172-2.7841 0-3.8641-1.5612-3.8641-3.6972z"/><path d="m105.062 25.9877v6.1932h-2.738v-6.1932l-3.0484-10.0824h2.8574l1.656 6.1692h.024l1.657-6.1692h2.616z"/><path d="m108.564 28.6765v-2.1852h2.545v2.2332c0 .912.408 1.44 1.344 1.44.864 0 1.248-.576 1.248-1.44v-.6252c0-.9348-.384-1.512-1.225-2.304l-1.607-1.608c-1.561-1.5372-2.281-2.472-2.281-4.3452v-.552c0-2.016 1.176-3.5772 3.84-3.5772 2.737 0 3.817 1.3452 3.817 3.6972v1.32h-2.496v-1.416c0-.936-.432-1.392-1.296-1.392-.769 0-1.296.432-1.296 1.344v.336c0 .912.504 1.4412 1.296 2.208l1.752 1.7292c1.488 1.512 2.209 2.424 2.209 4.2252v.792c0 2.232-1.201 3.8172-3.986 3.8172-2.784 0-3.864-1.5612-3.864-3.6972z"/><path d="m117.18 15.9053h7.274v2.2332h-2.257v14.0424h-2.761v-14.0424h-2.256z"/><path d="m125.724 15.9053h6.529v2.2332h-3.793v4.6572h2.713v2.208h-2.713v4.9452h3.793v2.232h-6.529z"/><path d="m141.254 21.6197h-.072l-1.849 10.5612h-1.271l-2.04-10.5612h-.049v10.5612h-2.256v-16.2756h3.193l1.775 9.1704h.025l1.584-9.1704h3.457v16.2756h-2.497z"/><path d="m153.373 28.4125v-8.7384c0-.984-.433-1.68-1.417-1.68-.96 0-1.392.696-1.392 1.68v8.7384c0 .984.432 1.68 1.392 1.68.984 0 1.417-.696 1.417-1.68zm-5.546-.4332v-7.8732c0-2.544 1.248-4.3932 4.129-4.3932 2.905 0 4.153 1.8492 4.153 4.3932v7.8732c0 2.5212-1.248 4.3944-4.153 4.3944-2.881 0-4.129-1.8732-4.129-4.3944z"/><path d="m157.667 27.9793v-7.8732c0-2.544 1.2-4.3932 4.08-4.3932 3.025 0 3.865 1.6812 3.865 4.0812v1.9212h-2.496v-2.1372c0-1.008-.337-1.584-1.321-1.584-.983 0-1.392.696-1.392 1.68v8.7384c0 .984.409 1.68 1.392 1.68.984 0 1.321-.624 1.321-1.584v-3.0012h2.496v2.8092c0 2.328-.96 4.0572-3.865 4.0572-2.88 0-4.08-1.8732-4.08-4.3944z"/><path d="m172.475 25.0037h-2.642v7.1772h-2.736v-16.2756h2.736v6.8904h2.642v-6.8904h2.76v16.2756h-2.76z"/><path d="m67.0692 47.6595v5.0892h1.2013c.9108 0 1.344-.4561 1.344-1.3201v-2.4491c0-.864-.4092-1.32-1.3692-1.32zm0-2.088h.9601c.8892 0 1.296-.456 1.296-1.3212v-1.992c0-.888-.4068-1.32-1.3201-1.32h-.936zm-2.7372-6.8664h3.9613c2.736 0 3.6492 1.2732 3.6492 3.5772v1.656c0 1.3692-.5052 2.2332-1.632 2.5932 1.3668.312 2.04 1.224 2.04 2.712v2.1612c0 2.304-1.032 3.5759-3.7692 3.5759h-4.2493z"/><path d="m76.4519 38.7051h-2.7361v16.2755h2.7361z"/><path d="m83.5797 51.2133v-8.7384c0-.984-.432-1.68-1.416-1.68-.9601 0-1.3921.696-1.3921 1.68v8.7384c0 .984.432 1.68 1.3921 1.68.984 0 1.416-.696 1.416-1.68zm-5.5453-.4331v-7.8733c0-2.544 1.248-4.3932 4.1293-4.3932 2.9052 0 4.1532 1.8492 4.1532 4.3932v7.8733c0 2.5212-1.248 4.3944-4.1532 4.3944-2.8813 0-4.1293-1.8732-4.1293-4.3944z"/><path d="m87.8748 38.7051h2.7372v14.0436h3.264v2.2319h-6.0012z"/><path d="m100.549 51.2133v-8.7384c0-.984-.432-1.68-1.4171-1.68-.9588 0-1.392.696-1.392 1.68v8.7384c0 .984.4332 1.68 1.392 1.68.9851 0 1.4171-.696 1.4171-1.68zm-5.5451-.4331v-7.8733c0-2.544 1.248-4.3932 4.128-4.3932 2.9051 0 4.1531 1.8492 4.1531 4.3932v7.8733c0 2.5212-1.248 4.3944-4.1531 4.3944-2.88 0-4.128-1.8732-4.128-4.3944z"/><path d="m108.972 46.2921h3.889v8.6892h-1.969v-1.7759c-.36 1.224-1.128 1.9692-2.617 1.9692-2.351 0-3.432-1.8732-3.432-4.3944v-7.8733c0-2.544 1.225-4.3932 4.105-4.3932 3.025 0 3.913 1.6812 3.913 4.0812v1.44h-2.496v-1.656c0-1.008-.385-1.584-1.369-1.584s-1.417.696-1.417 1.68v8.7384c0 .984.409 1.68 1.345 1.68.888 0 1.345-.5039 1.345-1.5599v-2.8813h-1.297z"/><path d="m117.155 38.7051h-2.736v16.2755h2.736z"/><path d="m118.594 51.4773v-2.1852h2.545v2.2333c0 .912.408 1.4399 1.344 1.4399.864 0 1.248-.5759 1.248-1.4399v-.6253c0-.9348-.384-1.512-1.224-2.304l-1.608-1.608c-1.562-1.5372-2.28-2.472-2.28-4.3452v-.552c0-2.016 1.175-3.5772 3.84-3.5772 2.736 0 3.816 1.3452 3.816 3.6972v1.32h-2.496v-1.416c0-.936-.432-1.392-1.296-1.392-.768 0-1.296.432-1.296 1.344v.336c0 .912.504 1.4412 1.296 2.208l1.752 1.7292c1.489 1.512 2.209 2.424 2.209 4.2252v.792c0 2.2321-1.201 3.8173-3.985 3.8173-2.785 0-3.865-1.5612-3.865-3.6973z"/><path d="m130.62 47.0595v7.9211h-2.737v-16.2755h2.737v7.1544l2.976-7.1544h2.689l-3.168 7.3224 3.24 8.9531h-2.881z"/><path d="m71.8705 67.2193h-.072l-1.8493 10.5611h-1.272l-2.0399-10.5611h-.0481v10.5611h-2.2572v-16.2755h3.1932l1.7761 9.1704h.0239l1.5853-9.1704h3.4572v16.2755h-2.4972z"/><path d="m80.0999 60.1858c.4572 0 .744-.336.744-.792s-.2868-.792-.744-.792c-.456 0-.744.336-.744.792s.288.792.744.792zm-1.176 12.4356h2.1852l-1.0812-6.5304h-.0239zm1.176-15.0276c1.08 0 1.824.816 1.824 1.8s-.744 1.8012-1.824 1.8012c-1.0788 0-1.848-.8172-1.848-1.8012s.7692-1.8 1.848-1.8zm-4.6092 20.1876 3.0732-16.2756h3.1201l3.0972 16.2756h-2.8081l-.504-2.976h-2.9052l-.48 2.976z"/><path d="m88.2117 67.5541v10.2263h-2.3052v-16.2755h2.688l2.9532 9.3384v-9.3384h2.28v16.2755h-2.4z"/><path d="m99.5159 69.0909h3.8891v8.6892h-1.969v-1.776c-.36 1.224-1.128 1.9692-2.6161 1.9692-2.352 0-3.4332-1.8732-3.4332-4.3944v-7.8732c0-2.544 1.2252-4.3932 4.1052-4.3932 3.0251 0 3.9131 1.6812 3.9131 4.0812v1.44h-2.496v-1.656c0-1.008-.385-1.584-1.3691-1.584-.984 0-1.416.696-1.416 1.68v8.7384c0 .984.408 1.68 1.344 1.68.8881 0 1.3451-.504 1.3451-1.56v-2.8812h-1.2971z"/><path d="m104.963 61.5049h6.409v2.2332h-3.673v4.6572h2.737v2.208h-2.737v7.1771h-2.736z"/><path d="m114.612 72.6205h2.184l-1.08-6.5304h-.025zm-3.435 5.1599 3.074-16.2755h3.121l3.097 16.2755h-2.809l-.504-2.9759h-2.905l-.479 2.9759z"/><path d="m121.594 61.5049h2.736v14.0436h3.265v2.2319h-6.001z"/><path d="m132.729 75.5485c1.128 0 1.56-.672 1.56-1.656v-8.5224c0-.96-.432-1.632-1.56-1.632h-1.153v11.8104zm4.296-9.6744v7.5384c0 2.496-1.032 4.3679-3.96 4.3679h-4.225v-16.2755h4.225c2.928 0 3.96 1.8492 3.96 4.3692z"/></g></svg>