<svg fill="none" height="192" viewBox="0 0 192 192" width="192" xmlns="http://www.w3.org/2000/svg"><path d="m192 0h-192v192h192z" fill="#fd9d24"/><g fill="#fff"><path d="m15.4963 22.7287v6.8328h.0564l4.5936-4.7676h.0588v29.8056h6.5461v-38.9364h-5.2261z"/><path d="m30.4258 22.7287v6.8328h.0588l4.5936-4.7676h.0564v29.8056h6.5484v-38.9364h-5.2236z"/><path d="m34.88 146.498h29.0473c.3936 0 .7127-.322.7127-.716 0-.183-.0732-.346-.1872-.474l-.0396-.042-14.4516-18.698-.1404-.155c-.132-.143-.318-.231-.5268-.231-.1788 0-.3395.074-.4679.182l-.0865.101-.1355.152-14.0989 18.502-.2172.265c-.0768.113-.1212.251-.1212.398 0 .394.3192.716.7128.716z"/><path d="m63.8397 149.133h-29.105c-.3936 0-.7115.318-.7115.713v22.776c0 .393.3179.715.7115.715h9.3685v-14.331c0-.396.318-.711.7128-.711h8.6952c.3936 0 .7128.315.7128.711v14.331h9.6157c.3924 0 .7128-.322.7128-.715v-22.776c0-.395-.3204-.713-.7128-.713z"/><path d="m161.822 152.495c0 .379-.314.686-.705.686h-8.604c-.392 0-.706-.307-.706-.686v-5.234c0-.377.314-.684.706-.684h8.604c.391 0 .705.307.705.684zm0 9.665c0 .382-.314.689-.705.689h-8.604c-.392 0-.706-.307-.706-.689v-5.229c0-.382.314-.686.706-.686h8.604c.391 0 .705.304.705.686zm-13.153-9.665c0 .379-.314.686-.703.686h-8.607c-.391 0-.708-.307-.708-.686v-5.234c0-.377.317-.684.708-.684h8.607c.389 0 .703.307.703.684zm0 9.665c0 .382-.314.689-.703.689h-8.607c-.391 0-.708-.307-.708-.689v-5.229c0-.382.317-.686.708-.686h8.607c.389 0 .703.304.703.686zm15.761-18.989h-28.806c-.39 0-.703.302-.703.684v29.089c0 .377.313.684.703.684h28.806c.392 0 .705-.307.705-.684v-29.089c0-.382-.313-.684-.705-.684z"/><path d="m93.3561 96.323c0 .2016-.1668.3684-.3732.3684h-6.4524c-.2052 0-.3696-.1668-.3696-.3684v-7.1952c0-.2064.1644-.3708.3696-.3708h6.4524c.2064 0 .3732.1644.3732.3708zm0 16.517c0 .204-.1668.369-.3732.369h-6.4524c-.2052 0-.3696-.165-.3696-.369v-7.195c0-.204.1644-.366.3696-.366h6.4524c.2064 0 .3732.162.3732.366zm0 16.52c0 .204-.1668.371-.3732.371h-6.4524c-.2052 0-.3696-.167-.3696-.371v-7.195c0-.204.1644-.37.3696-.37h6.4524c.2064 0 .3732.166.3732.37zm0 16.517c0 .209-.1668.371-.3732.371h-6.4524c-.2052 0-.3696-.162-.3696-.371v-7.19c0-.209.1644-.371.3696-.371h6.4524c.2064 0 .3732.162.3732.371zm0 16.52c0 .204-.1668.371-.3732.371h-6.4524c-.2052 0-.3696-.167-.3696-.371v-7.192c0-.204.1644-.368.3696-.368h6.4524c.2064 0 .3732.164.3732.368zm-12.6588-66.074c0 .2016-.1668.3684-.3708.3684h-6.4536c-.204 0-.3708-.1668-.3708-.3684v-7.1952c0-.2064.1668-.3708.3708-.3708h6.4536c.204 0 .3708.1644.3708.3708zm0 16.517c0 .204-.1668.369-.3708.369h-6.4536c-.204 0-.3708-.165-.3708-.369v-7.195c0-.204.1668-.366.3708-.366h6.4536c.204 0 .3708.162.3708.366zm0 16.52c0 .204-.1668.371-.3708.371h-6.4536c-.204 0-.3708-.167-.3708-.371v-7.195c0-.204.1668-.37.3708-.37h6.4536c.204 0 .3708.166.3708.37zm0 16.517c0 .209-.1668.371-.3708.371h-6.4536c-.204 0-.3708-.162-.3708-.371v-7.19c0-.209.1668-.371.3708-.371h6.4536c.204 0 .3708.162.3708.371zm0 16.52c0 .204-.1668.371-.3708.371h-6.4536c-.204 0-.3708-.167-.3708-.371v-7.192c0-.204.1668-.368.3708-.368h6.4536c.204 0 .3708.164.3708.368zm16.77-86.7476h-28.1916c-.3768 0-.6888.3072-.6888.6924v96.3432c0 .379.312.689.6888.689h28.1916c.3768 0 .6936-.31.6936-.689v-96.3432c0-.3852-.3168-.6924-.6936-.6924z"/><path d="m165.103 140.245c0 .323-.258.581-.579.581h-28.995c-.318 0-.579-.258-.579-.581v-5.798c0-.319.261-.58.579-.58h28.995c.321 0 .579.261.579.58z"/><path d="m128.313 123.282c0 .381-.312.689-.688.689h-8.4c-.386 0-.695-.308-.695-.689v-5.26c0-.384.309-.691.695-.691h8.4c.376 0 .688.307.688.691zm0 9.719c0 .38-.312.687-.688.687h-8.4c-.386 0-.695-.307-.695-.687v-5.259c0-.382.309-.69.695-.69h8.4c.376 0 .688.308.688.69zm0 9.72c0 .378-.312.686-.688.686h-8.4c-.386 0-.695-.308-.695-.686v-5.262c0-.382.309-.689.695-.689h8.4c.376 0 .688.307.688.689zm0 9.717c0 .382-.312.689-.688.689h-8.4c-.386 0-.695-.307-.695-.689v-5.259c0-.384.309-.689.695-.689h8.4c.376 0 .688.305.688.689zm0 9.717c0 .383-.312.69-.688.69h-8.4c-.386 0-.695-.307-.695-.69v-5.259c0-.38.309-.687.695-.687h8.4c.376 0 .688.307.688.687zm-12.82-41.041v11.896c0 .383-.312.689-.689.689h-8.4c-.384 0-.694-.306-.694-.689v-1.458c.004-.091.021-.177.053-.256.013-.029.016-.041.042-.081.017-.032.04-.063.061-.091.021-.032.053-.076.078-.113 1.074-1.537 5.921-7.507 7.956-10.003l.204-.246c.148-.178.371-.293.621-.293.385 0 .693.281.768.645zm-.023 21.607c0 .378-.307.686-.69.686h-8.403c-.381 0-.688-.308-.688-.686v-5.262c0-.382.307-.689.688-.689h8.403c.383 0 .69.307.69.689zm0 9.717c0 .382-.307.689-.69.689h-8.403c-.381 0-.688-.307-.688-.689v-5.259c0-.384.307-.689.688-.689h8.403c.383 0 .69.305.69.689zm0 9.717c0 .383-.307.69-.69.69h-8.403c-.381 0-.688-.307-.688-.69v-5.259c0-.38.307-.687.688-.687h8.403c.383 0 .69.307.69.687zm4.383-49.223.198-.248c1.896-2.434 5.091-6.366 6.648-8.277l.204-.243c.148-.178.371-.293.621-.293.385 0 .693.278.768.644v8.892c0 .43-.341.774-.766.792-.012 0-.023.007-.035.007s-.021-.007-.034-.007h-6.924c-.012 0-.023.007-.035.007s-.023-.007-.035-.007c-.425-.018-.766-.362-.766-.792 0-.177.058-.342.156-.475zm11.666-19.0873c-.094-.3096-.369-.54-.708-.54-.153 0-.286.0564-.404.1344-.018.0108-.034.0204-.052.0348l-.238.3-27.707 35.1471-.128.171c-.143.141-.234.333-.24.549v43.19c0 .379.309.687.691.687h28.163c.381 0 .689-.308.689-.687v-78.6983c0-.1032-.027-.2016-.066-.288z"/><path d="m60.7217 24.4246h-2.6412v7.1772h-2.736v-16.2756h2.736v6.8904h2.6412v-6.8904h2.76v16.2756h-2.76z"/><path d="m68.9542 14.007c.4572 0 .744-.336.744-.792s-.2868-.7919-.744-.7919c-.456 0-.744.3359-.744.7919s.288.792.744.792zm-1.176 12.4357h2.1852l-1.0812-6.5304h-.024zm1.176-15.0277c1.08 0 1.824.816 1.824 1.8s-.744 1.8013-1.824 1.8013-1.848-.8173-1.848-1.8013.768-1.8 1.848-1.8zm-4.6092 20.1877 3.0732-16.2756h3.12l3.0972 16.2756h-2.8092l-.504-2.976h-2.904l-.48 2.976z"/><path d="m74.4971 15.3262h2.736v14.0436h3.2651v2.232h-6.0011z"/><path d="m81.4795 15.3262h2.7372v14.0436h3.264v2.232h-6.0012z"/><path d="m91.2011 24.2806v5.0892h1.2012c.912 0 1.344-.456 1.344-1.32v-2.4492c0-.864-.4092-1.32-1.3692-1.32zm0-2.088h.9612c.888 0 1.296-.456 1.296-1.32v-1.9932c0-.888-.408-1.32-1.3212-1.32h-.936zm-2.736-6.8664h3.96c2.7372 0 3.6492 1.2732 3.6492 3.5772v1.656c0 1.3692-.504 2.2332-1.632 2.5932 1.368.312 2.04 1.224 2.04 2.712v2.1612c0 2.304-1.032 3.576-3.768 3.576h-4.2492z"/><path d="m100.466 26.4418h2.184l-1.08-6.5304h-.025zm-3.434 5.16 3.073-16.2756h3.12l3.097 16.2756h-2.808l-.504-2.976h-2.905l-.4798 2.976z"/><path d="m109.921 17.5594v5.0652h.912c.937 0 1.344-.48 1.344-1.3452v-2.4c0-.888-.407-1.32-1.344-1.32zm0 6.5772v7.4652h-2.737v-16.2756h3.986c2.759 0 3.768 1.3692 3.768 3.6492v2.0892c0 1.752-.624 2.784-2.185 3.144l2.617 7.3932h-2.881z"/><path d="m119.161 26.4418h2.184l-1.08-6.5304h-.025zm-3.435 5.16 3.073-16.2756h3.122l3.097 16.2756h-2.809l-.504-2.976h-2.906l-.478 2.976z"/><path d="m127.991 28.0974v-2.1852h2.545v2.2332c0 .912.408 1.44 1.344 1.44.864 0 1.248-.576 1.248-1.44v-.624c0-.936-.384-1.5132-1.224-2.3052l-1.608-1.608c-1.561-1.536-2.28-2.472-2.28-4.3452v-.552c0-2.016 1.175-3.5772 3.84-3.5772 2.736 0 3.816 1.3452 3.816 3.6972v1.32h-2.496v-1.416c0-.936-.432-1.392-1.296-1.392-.768 0-1.296.432-1.296 1.344v.336c0 .912.504 1.4412 1.296 2.208l1.752 1.7292c1.489 1.512 2.209 2.424 2.209 4.2252v.792c0 2.232-1.201 3.8172-3.985 3.8172s-3.865-1.5612-3.865-3.6972z"/><path d="m136.344 15.3262h7.274v2.2332h-2.257v14.0424h-2.761v-14.0424h-2.256z"/><path d="m147.913 12.6865h2.328v2.064h-2.328zm-1.489 13.7556h2.185l-1.081-6.5304h-.024zm-1.416-13.7556h2.328v2.064h-2.328zm-2.018 18.9156 3.074-16.2756h3.12l3.097 16.2756h-2.809l-.503-2.976h-2.905l-.48 2.976z"/><path d="m157.032 29.3698c1.128 0 1.56-.672 1.56-1.656v-8.5224c0-.96-.432-1.632-1.56-1.632h-1.154v11.8104zm4.296-9.6744v7.5384c0 2.496-1.032 4.368-3.96 4.368h-4.226v-16.2756h4.226c2.928 0 3.96 1.8492 3.96 4.3692z"/><path d="m162.622 15.3262h6.531v2.2332h-3.793v4.6572h2.712v2.208h-2.712v4.9452h3.793v2.232h-6.531z"/><path d="m173.087 17.5594v5.0652h.913c.936 0 1.344-.48 1.344-1.3452v-2.4c0-.888-.408-1.32-1.344-1.32zm0 6.5772v7.4652h-2.736v-16.2756h3.985c2.76 0 3.769 1.3692 3.769 3.6492v2.0892c0 1.752-.625 2.784-2.185 3.144l2.616 7.3932h-2.88z"/><path d="m60.8898 50.6342v-8.7384c0-.984-.4321-1.68-1.4173-1.68-.9588 0-1.3919.696-1.3919 1.68v8.7384c0 .984.4331 1.68 1.3919 1.68.9852 0 1.4173-.696 1.4173-1.68zm-5.5453-.4332v-7.8732c0-2.544 1.248-4.3932 4.128-4.3932 2.9053 0 4.1533 1.8492 4.1533 4.3932v7.8732c0 2.5212-1.248 4.3944-4.1533 4.3944-2.88 0-4.128-1.8732-4.128-4.3944z"/><path d="m64.9211 50.201v-7.8732c0-2.544 1.2-4.3932 4.08-4.3932 3.024 0 3.8652 1.6812 3.8652 4.0812v1.9212h-2.4959v-2.1372c0-1.008-.3372-1.584-1.3212-1.584-.9828 0-1.3921.696-1.3921 1.68v8.7384c0 .984.4093 1.68 1.3921 1.68.984 0 1.3212-.624 1.3212-1.584v-3.0012h2.4959v2.8092c0 2.328-.96 4.0572-3.8652 4.0572-2.88 0-4.08-1.8732-4.08-4.3944z"/><path d="m79.4663 47.2244h-2.6424v7.1772h-2.736v-16.2756h2.736v6.8904h2.6424v-6.8904h2.7588v16.2756h-2.7588z"/><path d="m85.6318 50.8982v-2.1852h2.5453v2.2332c0 .912.4079 1.44 1.3452 1.44.8628 0 1.248-.576 1.248-1.44v-.624c0-.936-.3853-1.5132-1.2253-2.3052l-1.6079-1.608c-1.5612-1.536-2.2801-2.472-2.2801-4.3452v-.552c0-2.016 1.1748-3.5772 3.8401-3.5772 2.736 0 3.8172 1.3452 3.8172 3.6972v1.32h-2.496v-1.416c0-.936-.4332-1.392-1.296-1.392-.7693 0-1.2972.432-1.2972 1.344v.336c0 .912.5039 1.4412 1.2972 2.208l1.7507 1.7292c1.4892 1.512 2.2092 2.424 2.2092 4.2252v.792c0 2.232-1.2011 3.8172-3.9851 3.8172-2.7841 0-3.8653-1.5612-3.8653-3.6972z"/><path d="m97.4183 49.2416h2.184l-1.08-6.5304h-.0252zm-3.4344 5.16 3.0732-16.2756h3.1199l3.097 16.2756h-2.808l-.5037-2.976h-2.9052l-.48 2.976z"/><path d="m111.673 43.8404h-.071l-1.849 10.5612h-1.272l-2.04-10.5612h-.048v10.5612h-2.257v-16.2756h3.193l1.776 9.1704h.024l1.585-9.1704h3.458v16.2756h-2.499z"/><path d="m120.84 47.2244h-2.641v7.1772h-2.736v-16.2756h2.736v6.8904h2.641v-6.8904h2.76v16.2756h-2.76z"/><path d="m129.384 35.4873h2.329v2.064h-2.329zm-1.488 13.7556h2.184l-1.08-6.5304h-.026zm-1.418-13.7556h2.33v2.064h-2.33zm-2.016 18.9156 3.072-16.2756h3.122l3.097 16.2756h-2.809l-.504-2.976h-2.906l-.478 2.976z"/><path d="m134.615 38.126h2.735v14.0436h3.266v2.232h-6.001z"/><path d="m141.597 38.126h2.736v14.0436h3.266v2.232h-6.002z"/><path d="m148.581 38.126h6.531v2.2332h-3.794v4.6572h2.712v2.208h-2.712v4.9452h3.794v2.232h-6.531z"/><path d="m158.615 44.1752v10.2264h-2.306v-16.2756h2.688l2.953 9.3384v-9.3384h2.281v16.2756h-2.4z"/></g></svg>