<svg fill="none" height="192" viewBox="0 0 192 192" width="192" xmlns="http://www.w3.org/2000/svg"><path d="m192 0h-192v192h192z" fill="#3f7e44"/><g fill="#fff"><path d="m24.6396 16.1992v38.9196h-6.5448v-29.7924h-.0576l-4.59 4.764h-.06v-6.8304l6.0264-7.0608z"/><path d="m46.2217 24.6385v3.3852c0 3.2712-1.7784 5.4516-4.476 6.3156 3.27.7452 4.8204 3.0408 4.8204 6.6v5.7408c0 5.3952-2.868 8.8968-9.4704 8.8968-6.66 0-9.0156-3.7884-9.0156-9.7008v-5.1084h5.9724v5.5692c0 2.2956.8016 3.7871 3.0432 3.7871 2.0052 0 2.9232-1.4339 2.9232-3.5016v-6.4283c0-2.0688-.918-3.1572-3.2124-3.1572h-2.754v-4.9944h2.4696c2.1228 0 3.4968-1.092 3.4968-3.1572v-4.1904c0-2.124-.7428-3.5016-2.8092-3.5016-2.064 0-2.8116 1.3776-2.8116 3.7884v3.96h-5.9736v-3.4428c0-5.7408 2.3556-9.7596 9.1272-9.7596 6.03 0 8.67 3.3876 8.67 8.8992z"/><path d="m127.49 127.939c-.799-.218-4.146-4.844-1.5-7.889.44-.5-.888-1.972-.524-2.001 1.447-.113 2.216.785 2.597 2.079.029.57.051 1.146.051 1.728 0 2.085-.218 4.119-.624 6.083zm-8.163 15.046c-.299-.084-.605-.18-.936-.346-1.627-.828-1.433.496-2.232.204-.805-.299.902-2.155-1.501-.585-2.392 1.566-1.746-.242-2.79-2.894-1.055-2.654 1.201-5.683 3.084-6.368 2.589-.938 4.197-1.128 5.412-1.428 3.579-.894 4.336-3.019 4.986-1.726.123.242.241.472.349.689.209.387.449 1.169.461 1.942-1.521 3.983-3.866 7.56-6.833 10.512zm-21.0194 8.676c-2.9112 0-5.7192-.425-8.376-1.2-.3816-.312-.6-.833-.3612-1.457.9228-2.405 3.6684-3.346 5.8356-3.554 4.834-.472 11.185 3.136 12.194 2.554 1.014-.58 3.057-3.237 6.054-3.127 2.046.079 2.032.423 2.718.682-5.012 3.823-11.27 6.102-18.0644 6.102zm-4.0524-19.426c-.4092.671-1.53 5.683-2.2824 5.1-.756-.585.3048-5.813.5232-6.211 1.176-2.159 3.7224-2.052 1.7592 1.111zm12.1718-5.917c-.588.524-2.095.332-2.849-.256-.749-.583.475-1.55.923-1.586 1.003-.089 2.509 1.312 1.926 1.842zm13.153.052c-.322-.12-.605-.424-.848-1.156s.372-1.15.973-.856c.613.311 1.406 1.223 1.406 1.712 0 .487-1.203.428-1.531.3zm1.267.915c1.002-.08 2.507 1.308 1.919 1.841-.587.528-2.089.335-2.843-.254-.75-.585.474-1.55.924-1.587zm-31.9702 11.885c-.5784 2.278-1.2552 3.1-1.8312 3.817-.576.727-2.7096 1.655-4.0632 1.555-1.356-.102-1.5444-3.718-1.5444-5.578 0-.644-.9096 1.262-1.3848-2.61-.3024-2.48-1.8948.259-2.0052-1.395-.114-1.65-.9084-1.321-1.746-2.352-.8304-1.031-1.8672.101-3.03.622-1.1556.513-.6792.785-2.3232.267-.0432-.014-.0636-.026-.1044-.04-1.5084-3.566-2.3424-7.486-2.3424-11.6 0-1.006.054-1.995.1488-2.974.0552-.1.114-.195.1836-.278 1.5756-1.864 1.5408-2.301 1.5408-2.301l1.7436-.604s2.784.429 4.8816 1.219c1.728.648 4.4496 2.114 6.0312 1.468 1.1436-.472 2.0388-1.097 1.9308-2.05-.1284-1.194-1.0692-1.478-2.2092-.673-.42.297-1.3152-1.801-2.0172-1.694-.702.104.8676 2.465.2724 2.564-.5976.102-1.7976-2.46-2.0028-2.875-.2016-.412-1.128-1.44-1.9596-.655-1.758 1.67-4.6128 1.568-5.1864 1.997-1.7448 1.305-2.2056-.429-2.166-1.486.0696-.241.1416-.486.2184-.725.57-.627 2.6148-.836 3.3168-.367.7716.515 1.3236-.133 1.6248-.446.306-.305.198-.801.006-1.211-.1956-.414.3864-.717.7848-.823.402-.107 1.7292-1.037 2.2584-1.347.5364-.308 3.2916-.643 4.5264-.025 1.2336.622 2.3676.114 2.9736-.6.762-.904 1.7316-1.594 2.1612-1.801.4332-.203-1.0632-1.599-2.292-.077-1.2324 1.514-1.86 1.655-2.4384 1.655-.5796 0-4.02-.859-4.4436-1.947-.42-1.084 1.0752-1.899 2.346-2.515 1.2684-.605 4.7436-.596 5.6316-.798 1.806-.396 4.1148-1.303 5.2776-.511 1.1568.778-4.8564 2.148-2.88 3.215.7032.386 3.8832-1.829 4.9728-2.395 2.5632-1.323-2.4864-1.76-1.8312-4.4465.7416-3.0372-6.192-1.8624-9.648-1.6044 4.6356-2.97 10.14-4.6968 16.0488-4.6968 14.0604 0 25.8384 9.7407 28.9784 22.8377.022.648-.079 1.114-.145 1.38-.269 1.074-2.307 1.996-3.489.267-.302-.435-1.58-1.643-1.536.423.04 2.066 2.007 2.276.102 3.517-1.904 1.238-2.254.939-3.134 1.251-.878.311-1.73 2.44-1.52 3.578.214 1.137 2.93 4.244.914 4.116-.472-.035-4.033-2.468-4.622-4.031-.619-1.647-1.297-3.258-1.777-4.5-.486-1.237-1.743-1.554-2.808-.826-1.06.726.296 1.451-.467 3.004-.758 1.549-1.304 2.934-2.424 1.653-2.909-3.333-7.1352-1.689-7.7988-5.398-.3576-2.012-2.0892-1.818-3.5364-2.957-1.4556-1.133-2.2656-1.749-2.5104-.929-.216.72 4.5552 4.502 4.8948 5.471.5064 1.44-1.428 2.709-2.8452 3.05-1.41.339-2.0328-.794-3.4212-2.24-1.3872-1.444-1.9956-2.477-2.0916-1.342-.1392 1.639 1.3188 4.048 2.7324 4.948 1.206.763 2.5572 1.109 2.1672 2.348-.3924 1.243-.0072.54-1.3584 1.877-1.3536 1.343-1.6116 1.775-1.512 3.63.0972 1.861-.3876 1.968-.678 3.515-.2892 1.548-.9612.209-1.5456 2.479zm-16.0104-32.846c.0684-.081.1296-.147.1548-.18.5376-.614 1.6092-.744 2.3496-.86.7416-.127 1.7304.246 1.8504.74.1272.49-1.86 1.39-2.2224 1.726-1.0296.948-2.6412 2.88-3.5832 3.088-.3084.07-.5616.023-.7692-.08.6192-1.545 1.3596-3.032 2.22-4.434zm1.5288-3.039c.3852-.565 1.6656-2.181 1.8216-2.385.33-.425.984-.512 1.4424-.593.4536-.088 1.0596.168 1.1328.51.078.342-.1764 1.665-.3996 1.893-.6276.652-2.2608 1.571-3.1608 1.426-.696-.107-.9696-.646-.8364-.851zm94.7428 17.611c-5.087-7.136-28.101-35.6265-70.8796-35.6265-42.7848 0-65.7912 28.4905-70.8864 35.6265-.2172.305-.4032.569-.5556.794.1524.23.3384.493.5556.801 5.0952 7.133 28.1016 35.626 70.8864 35.626 42.7786 0 65.7926-28.493 70.8796-35.626.223-.308.405-.571.552-.801-.147-.225-.329-.489-.552-.794z"/><path d="m61.9572 24.8597v5.0892h1.2012c.912 0 1.344-.456 1.344-1.32v-2.4492c0-.864-.408-1.32-1.368-1.32zm0-2.088h.9612c.888 0 1.296-.456 1.296-1.3212v-1.992c0-.888-.408-1.32-1.32-1.32h-.9372zm-2.736-6.8664h3.9612c2.736 0 3.6492 1.2732 3.6492 3.5772v1.656c0 1.3692-.5052 2.2332-1.632 2.5932 1.3668.312 2.04 1.224 2.04 2.712v2.1612c0 2.304-1.0332 3.576-3.7692 3.576h-4.2492z"/><path d="m68.604 15.9053h6.5304v2.2332h-3.7932v4.6572h2.712v2.208h-2.712v4.9452h3.7932v2.232h-6.5304z"/><path d="m79.3317 24.2597v7.9212h-2.736v-16.2756h2.736v7.1544l2.976-7.1544h2.6904l-3.1692 7.3224 3.24 8.9532h-2.88z"/><path d="m90.5901 13.2656h2.328v2.064h-2.328zm-1.4892 13.7557h2.1852l-1.0812-6.5304h-.024zm-1.416-13.7557h2.328v2.064h-2.328zm-2.0172 18.9156 3.0732-16.2756h3.12l3.0972 16.2756h-2.808l-.504-2.9759h-2.9052l-.48 2.9759z"/><path d="m103.621 21.6197h-.07l-1.851 10.5612h-1.271l-2.0396-10.5612h-.048v10.5612h-2.2572v-16.2756h3.1932l1.7746 9.1704h.025l1.584-9.1704h3.458v16.2756h-2.498z"/><path d="m110.411 18.1385v6.4092h1.009c.936 0 1.344-.456 1.344-1.344v-3.7452c0-.888-.408-1.32-1.344-1.32zm-2.736-2.2332h4.057c2.761 0 3.768 1.3692 3.768 3.6492v3.4332c0 2.28-1.007 3.672-3.768 3.672h-1.321v5.5212h-2.736z"/><path d="m118.955 27.0209h2.185l-1.08-6.5304h-.025zm-3.434 5.16 3.074-16.2756h3.121l3.097 16.2756h-2.809l-.504-2.976h-2.905l-.48 2.976z"/><path d="m131.195 24.2597v7.9212h-2.736v-16.2756h2.736v7.1544l2.977-7.1544h2.689l-3.169 7.3224 3.24 8.9532h-2.88z"/><path d="m137.963 15.9053h2.736v14.0436h3.265v2.232h-6.001z"/><path d="m147.947 15.9053h-2.736v16.2756h2.736z"/><path d="m157.068 21.6197h-.072l-1.849 10.5612h-1.272l-2.04-10.5612h-.048v10.5612h-2.257v-16.2756h3.194l1.774 9.1704h.026l1.584-9.1704h3.457v16.2756h-2.497z"/><path d="m164.123 27.0209h2.184l-1.081-6.5304h-.024zm-3.435 5.16 3.074-16.2756h3.12l3.097 16.2756h-2.808l-.504-2.976h-2.905l-.48 2.976z"/><path d="m169.594 15.9053h7.274v2.2332h-2.257v14.0424h-2.762v-14.0424h-2.255z"/><path d="m180.369 23.5156h-3.841v2.2076h3.841z"/><path d="m59.2212 38.7051h6.4092v2.2332h-3.6732v4.6572h2.7384v2.208h-2.7384v7.1771h-2.736z"/><path d="m71.0054 36.0645h2.3292v2.064h-2.3292zm1.1292 15.1476v-8.7384c0-.984-.4332-1.68-1.4172-1.68-.96 0-1.392.696-1.392 1.68v8.7384c0 .984.432 1.68 1.392 1.68.984 0 1.4172-.696 1.4172-1.68zm-4.0332-15.1476h2.3292v2.064h-2.3292zm-1.512 14.7144v-7.8732c0-2.544 1.248-4.3932 4.128-4.3932 2.9052 0 4.1531 1.8492 4.1531 4.3932v7.8732c0 2.5213-1.2479 4.3944-4.1531 4.3944-2.88 0-4.128-1.8731-4.128-4.3944z"/><path d="m79.1642 40.9383v5.0652h.9132c.936 0 1.344-.48 1.344-1.3452v-2.4c0-.888-.408-1.32-1.344-1.32zm0 6.5772v7.4651h-2.736v-16.2755h3.9852c2.76 0 3.7692 1.3692 3.7692 3.6492v2.0892c0 1.752-.6252 2.784-2.1852 3.144l2.616 7.3931h-2.88z"/><path d="m90.1585 36.0645h2.3292v2.064h-2.3292zm-1.488 13.7556h2.184l-1.08-6.5304h-.024zm-1.4172-13.7556h2.3292v2.064h-2.3292zm-2.016 18.9156 3.072-16.2756h3.1212l3.0972 16.2756h-2.8092l-.504-2.976h-2.9052l-.4788 2.976z"/><path d="m97.9571 44.7543v10.2263h-2.3052v-16.2755h2.6892l2.9529 9.3384v-9.3384h2.28v16.2755h-2.4z"/><path d="m109.021 52.7487c1.128 0 1.56-.6721 1.56-1.6561v-8.5223c0-.96-.432-1.632-1.56-1.632h-1.153v11.8104zm4.296-9.6744v7.5384c0 2.496-1.032 4.3679-3.961 4.3679h-4.224v-16.2755h4.224c2.929 0 3.961 1.8492 3.961 4.3692z"/><path d="m117.612 40.9383v5.0652h.913c.936 0 1.344-.48 1.344-1.3452v-2.4c0-.888-.408-1.32-1.344-1.32zm0 6.5772v7.4651h-2.736v-16.2755h3.985c2.761 0 3.769 1.3692 3.769 3.6492v2.0892c0 1.752-.624 2.784-2.185 3.144l2.617 7.3931h-2.881z"/><path d="m126.853 38.7051h-2.736v16.2755h2.736z"/><path d="m130.742 44.7543v10.2263h-2.305v-16.2755h2.688l2.953 9.3384v-9.3384h2.282v16.2755h-2.4z"/><path d="m142.045 46.2921h3.889v8.6892h-1.968v-1.7759c-.36 1.224-1.129 1.9692-2.617 1.9692-2.352 0-3.432-1.8732-3.432-4.3944v-7.8733c0-2.544 1.224-4.3932 4.105-4.3932 3.024 0 3.912 1.6812 3.912 4.0812v1.44h-2.496v-1.656c0-1.008-.384-1.584-1.368-1.584-.985 0-1.417.696-1.417 1.68v8.7384c0 .984.409 1.68 1.344 1.68.888 0 1.345-.5039 1.345-1.5599v-2.8813h-1.297z"/><path d="m150.493 49.8207h2.184l-1.08-6.5304h-.024zm-3.433 5.1599 3.072-16.2755h3.121l3.097 16.2755h-2.809l-.504-2.9759h-2.905l-.479 2.9759z"/><path d="m160.212 40.9383v5.0652h.912c.937 0 1.345-.48 1.345-1.3452v-2.4c0-.888-.408-1.32-1.345-1.32zm0 6.5772v7.4651h-2.737v-16.2755h3.986c2.76 0 3.768 1.3692 3.768 3.6492v2.0892c0 1.752-.624 2.784-2.185 3.144l2.617 7.3931h-2.881z"/><path d="m169.02 44.7543v10.2263h-2.305v-16.2755h2.688l2.953 9.3384v-9.3384h2.28v16.2755h-2.4z"/><path d="m179.196 49.8207h2.184l-1.08-6.5304h-.025zm-3.433 5.1599 3.072-16.2755h3.121l3.097 16.2755h-2.809l-.504-2.9759h-2.905l-.479 2.9759z"/></g></svg>