<svg fill="none" height="43" viewBox="0 0 100 43" width="100" xmlns="http://www.w3.org/2000/svg"><g fill="#000"><path d="m14.5292 3.64514c0-2.01481-1.6353-3.64514-3.6476-3.64514-2.01075 0-3.64026 1.63033-3.64026 3.64514 0 2.01317 1.62951 3.64514 3.64026 3.64514 2.0123 0 3.6476-1.63197 3.6476-3.64514z"/><path d="m87.6895 3.64514c0-2.01481 1.6336-3.64514 3.6468-3.64514 2.0091 0 3.6386 1.63033 3.6386 3.64514 0 2.01317-1.6295 3.64514-3.6386 3.64514-2.0132 0-3.6468-1.63197-3.6468-3.64514z"/><path d="m95.59 8.69563c2.4721.22332 4.41 2.30357 4.41 4.83947v10.1018c0 .7772-.6323 1.4119-1.4103 1.4119-.7836 0-1.4144-.6347-1.4144-1.4119v-8.676c0-.3256-.094-.7657-.6887-.7657-.4115 0-.4974.436-.5121.7134v26.0051c0 1.1182-.9056 2.0295-2.0287 2.0295-1.124 0-2.0336-.9113-2.0336-2.0295v-14.9855c-.0058-.166-.0606-.5955-.5759-.5955h-.0025c-.5178 0-.5808.4295-.5865.5955v14.9855c0 1.1182-.9048 2.0295-2.0279 2.0295-1.1256 0-2.0303-.9113-2.0303-2.0295v-26.0051c-.014-.2774-.1023-.7134-.5105-.7134-.598 0-.6888.4401-.6888.7657v8.676c0 .7772-.6331 1.4119-1.4135 1.4119-.7812 0-1.4111-.6347-1.4111-1.4119v-10.1018c0-2.5359 1.9395-4.61615 4.4157-4.83947l.0098-.0013c.0784-.01031.1643-.02161.2577-.02161h7.9643c.0925 0 .1697.00958.2468.01914z"/><path d="m62.5696 2.10475c1.9068 0 3.448 1.54853 3.448 3.45453 0 1.90683-1.5412 3.45126-3.448 3.45126-1.9076 0-3.4529-1.54443-3.4529-3.45126 0-1.906 1.5453-3.45453 3.4529-3.45453z"/><path d="m55.6153 13.3764-2.8688 9.3387s-.5113 1.7121.9415 2.1391c1.4447.4287 1.8831-1.2434 1.8831-1.2434l2.3142-7.7934s.1252-.5996.5759-.4703c.4507.1292.2814.7706.2814.7706l-4.0255 14.6059h3.7441v10.4617c0 .9898.8058 1.7956 1.7997 1.7956.9923 0 1.7947-.8058 1.7947-1.7956v-10.4617h1.0218v10.4617c0 .9898.8016 1.7956 1.7972 1.7956.9955 0 1.8004-.8058 1.8004-1.7956v-10.4617h3.7425l-4.023-14.6059s-.1694-.6414.2805-.7706c.4508-.1293.5768.4703.5768.4703l2.3125 7.7934s.4401 1.6721 1.8831 1.2434c1.4553-.427.9424-2.1391.9424-2.1391l-2.8688-9.3387s-1.025-2.6995-3.2959-2.6995h-7.3131c-2.2693 0-3.2967 2.6995-3.2967 2.6995z"/><path d="m41.8995 2.10475c1.906 0 3.4488 1.54853 3.4488 3.45453 0 1.90682-1.5428 3.45126-3.4488 3.45126-1.9077 0-3.4513-1.54444-3.4513-3.45126 0-1.906 1.5436-3.45453 3.4513-3.45453z"/><path d="m32.0782 22.7151 2.8672-9.3387s1.0282-2.6995 3.2975-2.6995h7.3123c2.2717 0 3.2942 2.6995 3.2942 2.6995l2.8688 9.3387s.5129 1.7121-.9415 2.1391c-1.4438.4287-1.8839-1.2434-1.8839-1.2434l-2.311-7.7934s-.1268-.5996-.5775-.4703c-.4491.1292-.2781.7706-.2781.7706l4.0222 14.6059h-3.7441v10.4617c0 .9898-.8017 1.7956-1.798 1.7956-.998 0-1.7972-.8058-1.7972-1.7956v-10.4617h-1.0217v10.4617c0 .9898-.8033 1.7956-1.7973 1.7956-.9914 0-1.7996-.8058-1.7996-1.7956v-10.4617h-3.7433l4.0247-14.6059s.171-.6414-.2814-.7706c-.4508-.1293-.5759.4703-.5759.4703l-2.3134 7.7934s-.4385 1.6721-1.8831 1.2434c-.4518-.1328-.7135-.3898-.8596-.681-.0958.2626-.2596.6106-.2596.6106l-2.6766 4.8378s-.175.3608-.175.6904v1.0004l1.5321 5.6412h-1.5321v4.6121c0 .7853-.6373 1.4152-1.4185 1.4152-.782 0-1.4168-.6299-1.4168-1.4152v-4.4411s.0093-.0739.0012-.171h-.8566c-.0081.0971.0014.171.0014.171v4.4411c0 .7853-.6307 1.4152-1.4119 1.4152-.7829 0-1.4161-.6299-1.4161-1.4152h-.0057v-4.6121h-1.5272l1.5272-5.6113v-1.0303c0-.3296-.1775-.6904-.1775-.6904l-2.8958-5.2411s-.0188-.0537-.0403-.1282c-.2285.4707-.7108.7965-1.27.7965-.7804 0-1.4144-.6347-1.4144-1.4119v-8.676c0-.3256-.0891-.7657-.6879-.7657-.4074 0-.4998.436-.5121.7134v26.0051c0 1.1182-.9047 2.0295-2.0295 2.0295-1.1224 0-2.0287-.9113-2.0287-2.0295v-14.9855c-.0041-.166-.0679-.5955-.5849-.5955h-.0017c-.5161 0-.5709.4295-.5791.5955v14.9855c0 1.1182-.90804 2.0295-2.03038 2.0295-1.12397 0-2.02707-.9113-2.02707-2.0295v-26.0051c-.018-.2774-.10307-.7134-.51372-.7134-.59553 0-.6896.4401-.6896.7657v8.676c0 .7686-.61768 1.3979-1.38776 1.4117.00843.0304.01021.0631.00397.0962l-3.236114 17.1532c-.021776.1155-.133002.1914-.24843.1696-.1154278-.0218-.1913472-.133-.16957064-.2484l3.23611464-17.1533c.00441-.0233.01248-.0451.0235-.0647-.60376-.1612-1.04882-.7127-1.04882-1.3643v-10.1018c0-2.5359 1.94037-4.61615 4.41163-4.83947l.02638-.00327c.07809-.00973.15765-.01964.25175-.01964h7.96512c.0909 0 .1719.01051.249.02051l.0185.0024c2.4762.22332 4.4149 2.30357 4.4149 4.83947v9.7698c.1907-.2586.4977-.4271.8432-.4271.3746 0 .6986.1963.8867.4908l.009-.0065c.0279.0236.1876.2914.4059.6574.4536.7609 1.1604 1.9461 1.4625 2.2449.4663.4712.8876.4189.8876.4189h3.4807s.4188.0523.8867-.4189c.3004-.3003 1.0144-1.4963 1.4684-2.2566.2148-.3598.3716-.6223.3984-.6457l.0122.0065c.1841-.2945.5072-.4908.886-.4908.329 0 .6222.1516.814.3879.015-.3166.0851-.5506.0851-.5506z"/><path d="m77.6072 24.8737c1.5894 0 2.8713-1.2859 2.8713-2.8754 0-1.5878-1.2819-2.8696-2.8713-2.8696-1.5886 0-2.8721 1.2818-2.8721 2.8696 0 1.5895 1.2835 2.8754 2.8721 2.8754z"/><path d="m71.139 35.1555c-.6741-.3108-.5587-1.0225-.4188-1.3587l-.0098-.0025c.0069-.0841.41-1.104.7279-1.9084l.0014-.0035.0008-.002c.1295-.3277.2447-.6192.3128-.7962 1.6516-4.248 2.1245-5.0153 3.6206-5.0619 1.4995-.0442 2.2251-.0148 2.2251-.0148s.6789-.027 1.8144 0l.0841.0023c1.1092.0292 2.2469.0591 2.8788 1.9037.1409.4139.9934 2.5263 1.551 3.9079l.0055.0137c.2717.6731.4721 1.1696.4836 1.2058l-.0106.0107c.211.2944.2691.6846.117 1.0478-.234.5571-.8721.8213-1.4242.589-.1636-.067-.6945-1.591-.6945-1.591l-1.2238-3.4096s-.1824-.2462-.1824.0982v11.7231c0 .8164-.6643 1.4741-1.4774 1.4741-.8147 0-1.4757-.6577-1.4757-1.4741v-4.6259s.081-.6544-.4458-.6544c-.5277 0-.4418.6544-.4418.6544v4.6259c0 .8164-.6585 1.4741-1.4732 1.4741-.8172 0-1.4741-.6577-1.4741-1.4741h-.0074v-11.7231c0-.3444-.2707-.0106-.2707-.0106l-1.5617 4.9793s-.4401.764-1.2311.4008z"/><path d="m25.785 24.8737c1.5895 0 2.8713-1.2859 2.8713-2.8754 0-1.5878-1.2818-2.8696-2.8713-2.8696-1.5878 0-2.8704 1.2818-2.8704 2.8696 0 1.5895 1.2826 2.8754 2.8704 2.8754z"/></g></svg>