<svg fill="none" height="192" viewBox="0 0 192 192" width="192" xmlns="http://www.w3.org/2000/svg"><path d="m192 0h-192v192h192z" fill="#bf8b2e"/><g fill="#fff"><path d="m19.9104 25.3738h.0588v29.8056h6.546v-38.9353h-5.2319l-6.0252 7.0633v6.834h.0564z"/><path d="m30.4174 24.2857v4.7076h5.9712v-4.8828c0-2.3532 1.1508-3.042 2.5272-3.042 1.2648 0 2.3556.516 2.3556 2.9304v3.2124c0 3.2184-.2868 4.4808-2.4144 6.72l-3.6732 3.906c-3.5592 3.7908-4.884 6.3168-4.884 10.1652v7.1796h17.0017v-5.3424h-10.7413v-1.8372c0-3.0444 1.092-4.1928 2.7564-5.9724l4.1928-4.422c3.3889-3.6168 4.1365-5.916 4.1365-9.8208v-3.7884c0-5.5728-2.6977-8.2128-8.5573-8.2128-5.7444 0-8.6712 3.0432-8.6712 8.4996z"/><path d="m150.072 103.446c-7.877-6.2198-17.319-6.8894-21.014-6.8894-1.948 0-3.751.1728-5.073.4872l-.517.1201c-4.988 1.1784-13.337 3.1491-23.054 15.2101l-.286.354c-.1593.229-.2433.475-.2433.729 0 .221.0552.432.1713.64l.22.362c1.604 2.682 2.94 5.013 3.998 6.992.379.735 1.393.974 2.079.291.067-.09.135-.183.181-.255 8.394-11.61 14.973-13.157 19.326-14.181l.539-.127c.6-.144 1.572-.227 2.666-.227 2.023 0 9.059.337 14.547 4.671 4.888 3.853 7.36 10.009 7.36 18.296 0 13.886-6.72 19.303-12.359 21.403-2.15.803-4.468 1.211-6.889 1.211-5.805 0-10.274-2.323-10.334-2.354l-.403-.196c-4.85-2.106-12.089-6.494-18.933-20.239-14.0314-28.181-25.8189-30.8521-33.6237-32.6209l-.4092-.0913c-.5976-.1344-2.286-.45-5.0304-.45-4.518 0-13.2133.8881-20.6641 6.8352-5.0868 4.057-11.1516 11.94-11.1516 26.444 0 8.838 1.8192 14.676 6.486 20.816.8772 1.197 9.0097 11.697 24.6205 11.697 2.3136 0 4.7124-.234 7.1304-.698 2.85-.546 7.2491-1.954 12.1607-5.557l4.104 3.703c.4584.419 1.2528.374 1.6656-.078.2004-.213.3072-.498.2964-.78l3.1752-19.558.0025-.228c-.0048-.333-.15-.65-.3828-.852-.2076-.198-.4764-.302-.822-.302h-.0084l-19.0404 5.262-.3624.06c-.24.051-.4524.175-.606.35-.216.238-.3253.543-.3085.862.0168.317.1584.608.39.813l3.9457 3.568c-2.0748 1.272-4.1473 2.113-6.1645 2.504-1.7172.328-3.4175.495-5.0507.495-10.788 0-16.0968-7.081-16.3164-7.381l-.1069-.147c-3.282-4.311-4.3908-7.982-4.3908-14.549 0-8.313 2.4337-14.472 7.2325-18.306 5.34-4.26 12.21-4.591 14.1912-4.591 1.0824 0 2.0651.083 2.6975.227l.4201.095c6.2316 1.41 14.7624 3.341 26.5908 27.099 6.2472 12.543 14.0807 20.748 23.9277 25.073 1.145.585 7.252 3.497 15.081 3.497 3.655 0 7.194-.628 10.524-1.866 5.751-2.147 19.131-9.482 19.131-31.17 0-14.494-6.156-22.396-11.316-26.473z"/><path d="m68.4935 24.4246h-2.6412v7.1772h-2.7361v-16.2756h2.7361v6.8904h2.6412v-6.8904h2.76v16.2756h-2.76z"/><path d="m76.6524 14.007c.4572 0 .744-.336.744-.792s-.2868-.7919-.744-.7919c-.456 0-.744.3359-.744.7919s.288.792.744.792zm-1.176 12.4357h2.1852l-1.0812-6.5304h-.024zm1.176-15.0277c1.08 0 1.824.816 1.824 1.8s-.744 1.8013-1.824 1.8013-1.848-.8173-1.848-1.8013.768-1.8 1.848-1.8zm-4.6092 20.1877 3.0732-16.2756h3.12l3.0972 16.2756h-2.8092l-.5028-2.976h-2.9052l-.48 2.976z"/><path d="m82.1233 15.3262h2.7372v14.0436h3.264v2.232h-6.0012z"/><path d="m89.0342 15.3262h2.7372v14.0436h3.264v2.232h-6.0012z"/><path d="m98.6833 24.2806v5.0892h1.2012c.9115 0 1.3435-.456 1.3435-1.32v-2.4492c0-.864-.408-1.32-1.3676-1.32zm0-2.088h.9612c.8875 0 1.2955-.456 1.2955-1.32v-1.9932c0-.888-.407-1.32-1.3195-1.32h-.9372zm-2.736-6.8664h3.9612c2.7355 0 3.6495 1.2732 3.6495 3.5772v1.656c0 1.3692-.506 2.2332-1.634 2.5932 1.368.312 2.042 1.224 2.042 2.712v2.1612c0 2.304-1.034 3.576-3.77 3.576h-4.2487z"/><path d="m107.875 26.4418h2.186l-1.082-6.5304h-.024zm-3.433 5.16 3.073-16.2756h3.12l3.098 16.2756h-2.81l-.502-2.976h-2.906l-.48 2.976z"/><path d="m117.259 17.5594v5.0652h.914c.936 0 1.344-.48 1.344-1.3452v-2.4c0-.888-.408-1.32-1.344-1.32zm0 6.5772v7.4652h-2.737v-16.2756h3.987c2.76 0 3.768 1.3692 3.768 3.6492v2.0892c0 1.752-.624 2.784-2.186 3.144l2.618 7.3932h-2.882z"/><path d="m65.8523 46.4804v7.9212h-2.7361v-16.2756h2.7361v7.1544l2.976-7.1544h2.6904l-3.1692 7.3224 3.24 8.9532h-2.88z"/><path d="m77.2285 50.6342v-8.7384c0-.984-.432-1.68-1.416-1.68-.96 0-1.3919.696-1.3919 1.68v8.7384c0 .984.4319 1.68 1.3919 1.68.984 0 1.416-.696 1.416-1.68zm-5.5452-.4332v-7.8732c0-2.544 1.248-4.3932 4.1292-4.3932 2.9052 0 4.1532 1.8492 4.1532 4.3932v7.8732c0 2.5212-1.248 4.3944-4.1532 4.3944-2.8812 0-4.1292-1.8732-4.1292-4.3944z"/><path d="m83.4928 44.1752v10.2264h-2.3053v-16.2756h2.688l2.9533 9.3384v-9.3384h2.2812v16.2756h-2.4z"/><path d="m90.1863 50.8982v-2.1852h2.5452v2.2332c0 .912.4079 1.44 1.3439 1.44.8641 0 1.248-.576 1.248-1.44v-.624c0-.936-.3839-1.5132-1.2239-2.3052l-1.6081-1.608c-1.5612-1.536-2.2799-2.472-2.2799-4.3452v-.552c0-2.016 1.1747-3.5772 3.8399-3.5772 2.736 0 3.8173 1.3452 3.8173 3.6972v1.32h-2.4961v-1.416c0-.936-.4331-1.392-1.2972-1.392-.768 0-1.296.432-1.296 1.344v.336c0 .912.504 1.4412 1.296 2.208l1.7521 1.7292c1.4892 1.512 2.2092 2.424 2.2092 4.2252v.792c0 2.232-1.2013 3.8172-3.9853 3.8172s-3.8651-1.5612-3.8651-3.6972z"/><path d="m107.085 38.126v12.3156c0 2.52-1.079 4.1532-3.864 4.1532-2.882 0-4.0816-1.6332-4.0816-4.1532v-12.3156h2.7356v12.5796c0 .96.386 1.608 1.346 1.608s1.345-.648 1.345-1.608v-12.5796z"/><path d="m115.845 43.8404h-.072l-1.85 10.5612h-1.27l-2.04-10.5612h-.048v10.5612h-2.258v-16.2756h3.194l1.774 9.1704h.026l1.584-9.1704h3.457v16.2756h-2.497z"/><path d="m119.251 38.126h7.273v2.2332h-2.256v14.0424h-2.761v-14.0424h-2.256z"/><path d="m130.194 38.126h-2.736v16.2756h2.736z"/><path d="m136.987 50.6342v-8.7384c0-.984-.432-1.68-1.416-1.68-.96 0-1.393.696-1.393 1.68v8.7384c0 .984.433 1.68 1.393 1.68.984 0 1.416-.696 1.416-1.68zm-5.545-.4332v-7.8732c0-2.544 1.248-4.3932 4.129-4.3932 2.904 0 4.152 1.8492 4.152 4.3932v7.8732c0 2.5212-1.248 4.3944-4.152 4.3944-2.881 0-4.129-1.8732-4.129-4.3944z"/><path d="m143.25 44.1752v10.2264h-2.305v-16.2756h2.688l2.959 9.3384v-9.3384h2.28v16.2756h-2.4z"/><path d="m157.812 50.6342v-8.7384c0-.984-.432-1.68-1.416-1.68-.96 0-1.392.696-1.392 1.68v8.7384c0 .984.432 1.68 1.392 1.68.984 0 1.416-.696 1.416-1.68zm-5.544-.4332v-7.8732c0-2.544 1.248-4.3932 4.128-4.3932 2.904 0 4.152 1.8492 4.152 4.3932v7.8732c0 2.5212-1.248 4.3944-4.152 4.3944-2.88 0-4.128-1.8732-4.128-4.3944z"/><path d="m161.772 50.201v-7.8732c0-2.544 1.2-4.3932 4.08-4.3932 3.024 0 3.864 1.6812 3.864 4.0812v1.9212h-2.496v-2.1372c0-1.008-.336-1.584-1.32-1.584s-1.392.696-1.392 1.68v8.7384c0 .984.408 1.68 1.392 1.68s1.32-.624 1.32-1.584v-3.0012h2.496v2.8092c0 2.328-.96 4.0572-3.864 4.0572-2.88 0-4.08-1.8732-4.08-4.3944z"/><path d="m176.244 47.2244h-2.64v7.1772h-2.736v-16.2756h2.736v6.8904h2.64v-6.8904h2.76v16.2756h-2.76z"/><path d="m65.8522 63.1599v6.4092h1.0092c.936 0 1.344-.4559 1.344-1.3439v-3.7452c0-.888-.408-1.3201-1.344-1.3201zm-2.736-2.2331h4.056c2.7612 0 3.7692 1.3692 3.7692 3.6492v3.4331c0 2.28-1.008 3.672-3.7692 3.672h-1.32v5.5213h-2.736z"/><path d="m74.7565 63.1599v5.0653h.9132c.936 0 1.344-.48 1.344-1.3452v-2.4c0-.888-.408-1.3201-1.344-1.3201zm0 6.5772v7.4653h-2.736v-16.2756h3.9852c2.76 0 3.7681 1.3692 3.7681 3.6492v2.0892c0 1.752-.6241 2.7839-2.1853 3.1439l2.6172 7.3933h-2.8812z"/><path d="m86.4707 73.4349v-8.7384c0-.984-.4332-1.68-1.4172-1.68-.96 0-1.392.696-1.392 1.68v8.7384c0 .984.432 1.68 1.392 1.68.984 0 1.4172-.696 1.4172-1.68zm-5.5464-.4332v-7.8732c0-2.544 1.248-4.3931 4.1292-4.3931 2.9052 0 4.1532 1.8491 4.1532 4.3931v7.8732c0 2.5212-1.248 4.3944-4.1532 4.3944-2.8812 0-4.1292-1.8732-4.1292-4.3944z"/><path d="m94.3179 74.9704c1.1268 0 1.5588-.6721 1.5588-1.6561v-8.5224c0-.96-.432-1.632-1.5588-1.632h-1.1532v11.8105zm4.296-9.6745v7.5385c0 2.496-1.0332 4.368-3.9612 4.368h-4.2252v-16.2756h4.2252c2.928 0 3.9612 1.8491 3.9612 4.3691z"/><path d="m107.781 60.9268v12.3155c0 2.52-1.079 4.1532-3.864 4.1532-2.881 0-4.0813-1.6332-4.0813-4.1532v-12.3155h2.7373v12.5795c0 .96.384 1.608 1.344 1.608s1.345-.648 1.345-1.608v-12.5795z"/><path d="m111.739 69.2811v7.9213h-2.736v-16.2756h2.736v7.1543l2.977-7.1543h2.69l-3.17 7.3223 3.24 8.9533h-2.88z"/><path d="m117.86 60.9268h7.274v2.2331h-2.258v14.0425h-2.76v-14.0425h-2.256z"/><path d="m128.804 60.9268h-2.736v16.2756h2.736z"/><path d="m135.597 73.4349v-8.7384c0-.984-.433-1.68-1.418-1.68-.959 0-1.392.696-1.392 1.68v8.7384c0 .984.433 1.68 1.392 1.68.985 0 1.418-.696 1.418-1.68zm-5.546-.4332v-7.8732c0-2.544 1.248-4.3931 4.128-4.3931 2.905 0 4.153 1.8491 4.153 4.3931v7.8732c0 2.5212-1.248 4.3944-4.153 4.3944-2.88 0-4.128-1.8732-4.128-4.3944z"/><path d="m141.859 66.976v10.2264h-2.305v-16.2756h2.688l2.958 9.3383v-9.3383h2.28v16.2756h-2.4z"/></g></svg>