<svg fill="none" height="99" viewBox="0 0 100 99" width="100" xmlns="http://www.w3.org/2000/svg"><g fill="#000"><path d="m33.5099 57.0392c.2496 0 .4492.2025.4492.452v14.8592c0 .2524-.1996.452-.4492.452h-6.0136c-.251 0-.4506-.1996-.4506-.452v-14.8592c0-.2495.1996-.452.4506-.452z"/><path d="m99.5465 79.1823h-99.09447c-.248128 0-.45203.2125-.45203.4649v6.0578c0 .2467.203902.4449.45203.4449h99.09447c.2424 0 .4535-.1982.4535-.4449v-6.0578c0-.2524-.2111-.4649-.4535-.4649z"/><path d="m99.5465 91.2192h-99.09447c-.248128 0-.45203.1996-.45203.4463v6.075c0 .2424.203902.4477.45203.4477h99.09447c.2424 0 .4535-.2053.4535-.4477v-6.075c0-.2467-.2111-.4463-.4535-.4463z"/><path d="m80.6877 40.5911c-1.2378-.9683-4.5418-3.2299-8.5718-3.2299-2.8791 0-5.5601 1.1351-7.9572 3.3825-.1697.1597-.2652.3836-.2652.6203v.5405c0 .2652.0884.5133.2823.6773.2153.1626.4406.2239.6987.1626.0571-.0072.127-.0257.1854-.0471.184-.0641.3551-.174.4963-.3137.5191-.3494 1.9379-.8271 3.9686-.8271 2.0977 0 6.2232.5618 10.2103 4.2795l.0899.0827c.2253.2296.5347.3579.8627.3579.3123 0 .6346-.1297.8385-.3508l.0799-.0827c4.01-3.7248 8.1269-4.2866 10.2246-4.2866 2.0463 0 3.4581.4777 3.98.8271.1426.1397.3166.2524.5476.3351.0884.0257.3394.077.5804.0185.3665-.1041.6246-.4349.6246-.8171v-.4791c0-.2253-.0984-.4535-.2667-.6118-2.4199-2.3073-5.1279-3.4723-8.0541-3.4723-3.9929 0-7.2828 2.226-8.5548 3.2342z"/><path d="m74.5379 1.09743c-.2097.09697-.3622.28948-.4307.52192l-.1013.33083c-.0727.25954-.027.53475.1298.74295.1555.2025.3722.32372.6146.3337.0442.00571.0884.01711.1227.00571.1725-.00571.3265-.04278.4805-.12264.087-.01711.2696-.06702.6004-.06702.4421 0 4.4378.13545 7.0788 4.62457l.0342.06419c.1426.25953.3679.43919.6332.50764.077.02425.2239.04853.3166.04853.1825 0 .3679-.0485.4977-.12408l.0655-.03137c1.446-.723 2.9434-1.09376 4.4222-1.09376 2.5026 0 4.1369 1.02244 4.5191 1.44739.0784.14403.1967.26952.3308.36934.0841.04849.2324.12408.3222.15545.0442.00999.0956.01713.1455.01998.0285.0057.0599.0057.0898.0057.1355 0 .2639-.0328.3922-.0984.2039-.10267.3551-.28665.4207-.50769l.0841-.29231c.0243-.07415.0343-.15545.0343-.24101 0-.15401-.04-.30375-.1156-.42496-1.9237-3.34117-4.7158-4.03989-6.7223-4.03989-1.4916 0-2.7978.38644-3.5665.6688-.9069-1.22068-3.2014-3.74475-6.6823-3.74475-1.2235 0-2.4713.315156-3.7162.94118z"/><path d="m53.6012 16.3416.0285.4463c.0129.2795.1597.5205.3964.6674.1954.1226.445.1668.666.1012.0485-.0114.1027-.0299.1454-.0456.1697-.0699.3152-.1783.4278-.3166.4221-.3037 1.7783-.8584 3.779-.8584 1.9252 0 4.8513.5147 7.8346 2.9646l.0699.0714c.2139.1839.4862.288.7643.288h.0727c.3123-.0242.6018-.1682.7787-.3736l.067-.0756c3.3012-3.4952 6.8592-4.0142 8.6873-4.0142 1.3006 0 2.2232.268 2.5825.472.1369.1169.3052.2096.5149.2666.0584.0143.2053.04.3622.0243.0641-.0072.1454-.03.2096-.0499.3537-.1241.5861-.4692.5604-.8528l-.0214-.3864c-.0142-.2311-.1226-.4393-.298-.5904-1.9722-1.6571-4.0984-2.4942-6.3387-2.4942-3.4852 0-6.2659 2.0592-7.4182 3.0689-1.0524-.7188-3.6107-2.1947-6.6096-2.1947-2.6367 0-5.0011 1.0952-7.0303 3.2485-.1597.1697-.241.4021-.231.6332z"/><path d="m3.45421 24.2974c0-5.9337 4.81144-10.7423 10.74369-10.7423.2325 0 .4578.02.6873.0329.5662-7.50804 6.8236-13.43175 14.4799-13.43175 8.0285 0 14.5369 6.50693 14.5369 14.53545 0 2.2745-.5391 4.4178-1.4703 6.3344 7.2742 1.6114 12.7202 8.0898 12.7202 15.8473 0 8.9697-7.2728 16.2425-16.2439 16.2425-.6545 0-21.677-.1256-21.677-.1256-6.3529-.0014-11.50367-5.1479-11.50367-11.5008 0-3.0531 1.1964-5.8167 3.13722-7.8745-3.22994-1.8538-5.41034-5.3276-5.41034-9.3176z"/></g></svg>