<svg fill="none" height="52" viewBox="0 0 100 52" width="100" xmlns="http://www.w3.org/2000/svg"><path d="m91.3096 5.86004c-6.0491-4.77647-13.3009-5.290704-16.1384-5.290704-1.4957 0-2.8808.132711-3.8955.374161l-.3972.092163c-3.8309.90498-10.2423 2.41818-17.7051 11.68084l-.2193.2719c-.1226.176-.1871.3649-.1871.5603 0 .1695.0424.3317.1318.4912l.1686.2783c1.2322 2.0597 2.2579 3.8494 3.0707 5.369.2912.5649 1.0699.7483 1.5962.224.0516-.0692.1041-.141.1391-.1963 6.4464-8.9162 11.4993-10.10408 14.8418-10.89018l.4138-.09767c.4608-.11059 1.2073-.17417 2.0477-.17417 1.5538 0 6.9569.25896 11.1713 3.58672 3.7544 2.9592 5.6528 7.6868 5.6528 14.0511 0 10.6643-5.1608 14.8243-9.4912 16.437-1.6514.6166-3.4319.9299-5.2907.9299-4.4585 0-7.8904-1.7842-7.9365-1.8081l-.3096-.1502c-3.7241-1.6174-9.2839-4.9875-14.5396-15.5432-10.7759-21.64199-19.8284-23.69338-25.8223-25.05177l-.3142-.070058c-.459-.103215-1.7556-.345587-3.8632-.345587-3.4697 0-10.1474.681975-15.86942 5.249245-3.90652 3.11582-8.56408 9.16957-8.56408 20.30857 0 6.7873 1.39706 11.2707 4.98103 15.9854.67367.9198 6.91917 8.9835 18.90777 8.9835 1.7768 0 3.619-.1797 5.476-.5364 2.1887-.4193 5.5671-1.5003 9.3391-4.2678l3.1517 2.844c.3521.3216.9622.2875 1.2792-.0599.1539-.1631.2359-.3825.2276-.599l2.4385-15.0197.0018-.1751c-.0037-.2562-.1151-.4995-.2939-.6543-.1595-.1521-.3659-.2323-.6313-.2323h-.0065l-14.6225 4.0411-.2783.0461c-.1843.0396-.3474.1346-.4654.2691-.1658.1825-.2497.4165-.2368.6617.0129.2433.1216.4672.2995.6248l3.0301 2.7398c-1.5934.9769-3.1849 1.6229-4.7341 1.9233-1.3187.2516-2.6246.3797-3.8788.3797-8.2849 0-12.3619-5.4382-12.5305-5.6686l-.0821-.1124c-2.52049-3.3112-3.37202-6.1302-3.37202-11.173 0-6.3846 1.86897-11.1141 5.55432-14.0585 4.101-3.27156 9.3769-3.52593 10.8984-3.52593.8313 0 1.586.06359 2.0717.17418l.3226.07281c4.7857 1.08284 11.3371 2.56564 20.4209 20.81174 4.7977 9.6322 10.8137 15.9338 18.3761 19.2551.8791.4488 5.5689 2.6855 11.5812 2.6855 2.8071 0 5.5248-.482 8.0822-1.433 4.417-1.6487 14.6925-7.2823 14.6925-23.9377 0-11.1307-4.7276-17.19918-8.6904-20.33066z" fill="#000"/></svg>