<svg fill="none" height="192" viewBox="0 0 192 192" width="192" xmlns="http://www.w3.org/2000/svg"><path d="m192 0h-192v192h192z" fill="#dd1367"/><g fill="#fff"><path d="m19.896 24.782v29.8356h6.5532v-38.976h-5.232l-6.0348 7.0716v6.8424h.0552l4.5984-4.7736z"/><path d="m37.5432 45.5942v-20.9268c0-2.3568.8615-4.0236 3.1044-4.0236 2.2992 0 3.1608 1.6668 3.1608 4.0236v20.9268c0 2.3581-.8616 4.0212-3.1608 4.0212-2.2429 0-3.1044-1.6631-3.1044-4.0212zm12.8196-1.0344v-18.858c0-6.0936-3.0456-10.5192-9.7152-10.5192-6.6097 0-9.6601 4.4256-9.6601 10.5192v18.858c0 6.0337 3.0504 10.5181 9.6601 10.5181 6.6696 0 9.7152-4.4844 9.7152-10.5181z"/><path d="m64.1314 104.941-17.3772 17.378 17.3772 17.377z"/><path d="m127.013 139.696 17.376-17.377-17.376-17.378z"/><path d="m112.975 90.9536-17.3759-17.3784-17.3772 17.3784z"/><path d="m78.2219 153.747 17.376 17.377 17.3771-17.377z"/><path d="m114.436 106.097h-37.7282v10.471h37.7282z"/><path d="m114.436 127.646h-37.7282v10.948h37.7282z"/><path d="m71.16 21.0406h-.072l-1.8492 10.5612h-1.2708l-2.0412-10.5612h-.048v10.5612h-2.2572v-16.2756h3.1944l1.7748 9.1704h.0252l1.584-9.1704h3.4572v16.2756h-2.4972z"/><path d="m77.9492 15.3262h-2.7361v16.2756h2.7361z"/><path d="m81.8377 21.3754v10.2264h-2.3052v-16.2756h2.6892l2.952 9.3384v-9.3384h2.2813v16.2756h-2.4001z"/><path d="m88.8694 28.0974v-2.1852h2.5452v2.2332c0 .912.4068 1.44 1.344 1.44.8628 0 1.248-.576 1.248-1.44v-.624c0-.936-.3852-1.5132-1.2252-2.3052l-1.608-1.608c-1.56-1.536-2.28-2.472-2.28-4.3452v-.552c0-2.016 1.176-3.5772 3.84-3.5772 2.7372 0 3.8172 1.3452 3.8172 3.6972v1.32h-2.4959v-1.416c0-.936-.4333-1.392-1.2961-1.392-.7692 0-1.296.432-1.296 1.344v.336c0 .912.504 1.4412 1.296 2.208l1.752 1.7292c1.488 1.512 2.2092 2.424 2.2092 4.2252v.792c0 2.232-1.2012 3.8172-3.9864 3.8172-2.784 0-3.864-1.5612-3.864-3.6972z"/><path d="m100.894 23.6806v7.9212h-2.7365v-16.2756h2.7365v7.1544l2.977-7.1544h2.689l-3.169 7.3224 3.24 8.9532h-2.88z"/><path d="m110.663 26.4418h2.184l-1.08-6.5304h-.026zm-3.435 5.16 3.074-16.2756h3.119l3.099 16.2756h-2.809l-.504-2.976h-2.905l-.481 2.976z"/><path d="m121.533 29.3698c1.128 0 1.56-.672 1.56-1.656v-8.5224c0-.96-.432-1.632-1.56-1.632h-1.153v11.8104zm4.296-9.6744v7.5384c0 2.496-1.032 4.368-3.96 4.368h-4.225v-16.2756h4.225c2.928 0 3.96 1.8492 3.96 4.3692z"/><path d="m69.168 50.6342v-8.7384c0-.984-.4332-1.68-1.4172-1.68-.96 0-1.392.696-1.392 1.68v8.7384c0 .984.432 1.68 1.392 1.68.984 0 1.4172-.696 1.4172-1.68zm-5.5464-.4332v-7.8732c0-2.544 1.2492-4.3932 4.1292-4.3932 2.9052 0 4.1532 1.8492 4.1532 4.3932v7.8732c0 2.5212-1.248 4.3944-4.1532 4.3944-2.88 0-4.1292-1.8732-4.1292-4.3944z"/><path d="m80.4949 38.126v12.5796c0 2.352-1.032 3.8892-3.7692 3.8892-2.832 0-3.6012-1.5612-3.6012-3.6252v-3.2412h2.5932v3.2892c0 .816.288 1.296 1.008 1.296.7452 0 1.0332-.48 1.0332-1.32v-12.8676z"/><path d="m86.2787 35.4873h2.3292v2.064h-2.3292zm-1.488 13.7556h2.184l-1.0801-6.5304h-.0239zm-1.4172-13.7556h2.3292v2.064h-2.3292zm-2.0161 18.9156 3.072-16.2756h3.1213l3.0972 16.2756h-2.8093l-.5039-2.976h-2.9053l-.4788 2.976z"/><path d="m99.3121 43.8404h-.072l-1.8492 10.5612h-1.2708l-2.0412-10.5612h-.048v10.5612h-2.2572v-16.2756h3.1944l1.7748 9.1704h.0252l1.584-9.1704h3.4569v16.2756h-2.4969z"/><path d="m103.365 38.126h2.736v14.0436h3.266v2.232h-6.002z"/><path d="m113.35 38.126h-2.736v16.2756h2.736z"/><path d="m117.67 46.4804v7.9212h-2.737v-16.2756h2.737v7.1544l2.976-7.1544h2.689l-3.168 7.3224 3.24 8.9532h-2.881z"/><path d="m129.815 47.2244h-2.643v7.1772h-2.735v-16.2756h2.735v6.8904h2.643v-6.8904h2.759v16.2756h-2.759z"/><path d="m134.134 38.126h6.53v2.2332h-3.793v4.6572h2.712v2.208h-2.712v4.9452h3.793v2.232h-6.53z"/><path d="m141.815 38.126h7.273v2.2332h-2.257v14.0424h-2.76v-14.0424h-2.256z"/></g></svg>