<svg fill="none" height="86" viewBox="0 0 100 86" width="100" xmlns="http://www.w3.org/2000/svg"><g fill="#000"><path d="m73.1043 64.8533c-3.3939 0-6.1438-2.7545-6.1438-6.1472 0-3.3915 2.7499-6.1391 6.1438-6.1391 3.4018 0 6.1517 2.7476 6.1517 6.1391 0 3.3927-2.7499 6.1472-6.1517 6.1472zm26.6845-2.8647c-2.3241-3.1402-17.3386-22.283-38.389-22.283-18.2798 0-37.8347 16.58-37.8347 16.58s-7.3455-15.0341-22.37148-16.479c-.08838 0-.18249-.0196-.282344-.0196h-.092958c-.313329.0173-.607146.3214-.573862.5946.042466.2628.235286.5497.235286.5497 1.937358 3.216 6.879458 12.3633 6.879458 21.5026 0 9.1692-4.97195 18.3418-6.890947 21.5416l-.129683.2043c-.056238.0965-.094114.1929-.094114.3168 0 .3179.246763.5647.554353.5922l.162974-.0137c.050497 0 .104447-.0001.158387-.0138 15.07303-1.4048 22.44493-16.4859 22.44493-16.4859s19.5549 16.5811 37.8347 16.5811c21.0504 0 36.0649-19.1428 38.389-22.2761.0643-.0861.1159-.1595.1618-.2158.0276-.0734.0494-.1423.0494-.2307 0-.0826-.0218-.1652-.0494-.2295-.0459-.0631-.0975-.1366-.1618-.2158z"/><path d="m.719621 3.72457c-.045909-.00918-.076895-.02525-.115917-.02525-.33284 0-.603704.27199-.603704.61057v4.18921c0 .1756.0665678.32939.175602.43383 10.161898 8.82947 19.783298.55663 22.009898-1.62978.0459-.06657.093-.12967.1595-.16984.0999-.06427.2089-.11019.3329-.11019.1572 0 .3053.06082.4085.16182.0081.01148.0207.02182.0299.02641 11.4784 10.95385 23.5134 2.08197 26.0177 0l.2468-.22497c.07-.03329.1458-.04589.2284-.04589.0849 0 .1699.0126.2387.04589l.2479.22497c2.5021 2.08197 14.5382 10.95385 26.0155 0 .0023-.00459.016-.01493.0218-.02641.1079-.101.249-.16182.4086-.16182.1239 0 .2399.04592.3328.11019.0689.04017.1171.10327.1687.16984 2.2254 2.18641 11.8365 10.45925 22.0065 1.62978.1056-.10444.1744-.25823.1744-.43383v-4.18921c0-.33858-.2628-.61057-.5956-.61057-.0437 0-.085.01607-.1309.02525-.0941.05395-.1916.10445-.3041.15839-3.1253 1.56549-12.8178 5.28868-21.6162-3.035748-.0827-.076897-.1699-.153766-.256-.243288-.0803-.033284-.1584-.055096-.2559-.055096-.062 0-.1286.017201-.1825.02753-.1309.052796-.2353.13658-.3053.23758-2.6225 1.999332-14.6587 10.147062-25.3785.149209l-.1549-.153798c-.1125-.098704-.2651-.180207-.435-.180207-.1584 0-.3156.081503-.4189.180207l-.1676.153798c-10.7128 9.997853-22.7617 1.850123-25.3796-.149209-.0689-.101-.1699-.184784-.2984-.23758-.062-.010329-.1228-.02753-.1917-.02753-.0849 0-.1698.021812-.2525.055096-.078.089522-.171.166391-.2571.243288-8.7973 8.324428-18.48749 4.601238-21.61389 3.035748-.11018-.05394-.214628-.10444-.309889-.15839z"/><path d="m22.1855 22.5474c.0482-.0677.093-.1182.1607-.1664.0987-.062.2077-.1125.3317-.1125.1572 0 .3064.0631.4108.1676.0058.0103.0184.0183.0276.0264 11.4749 10.939 23.5134 2.0716 26.0189 0l.2456-.2353c.07-.0275.1458-.0379.2273-.0379.0872 0 .1698.0104.2421.0379l.2457.2353c2.502 2.0716 14.537 10.939 26.0166 0 .0022-.0081.0114-.0161.0206-.0264.1079-.1045.2479-.1676.4074-.1676.1263 0 .2411.0505.3329.1125.0711.0482.1182.0987.1698.1664 2.2243 2.1887 11.8354 10.4639 22.0065 1.6263.1067-.1078.1779-.2501.1779-.4235v-4.2018c0-.334-.2686-.6014-.5991-.6014-.0436 0-.0849.0172-.1308.0252-.0942.0459-.1929.0987-.3042.1527-3.123 1.5678-12.8201 5.2818-21.6162-3.0312-.0815-.0792-.1688-.1573-.2548-.2422-.0815-.0447-.1596-.0597-.2571-.0597-.062 0-.1274.015-.1825.046-.132.0321-.2353.1159-.3053.2249-2.6202 1.9959-14.6587 10.1471-25.3785.1469l-.1561-.1561c-.1113-.1078-.2651-.1687-.4349-.1687-.1573 0-.3145.0609-.419.1687l-.1664.1561c-10.7128 10.0002-22.7616 1.849-25.3796-.1469-.0689-.109-.171-.1928-.2972-.2249-.062-.031-.1263-.046-.1929-.046-.0861 0-.1687.015-.2502.0597-.0826.0849-.171.163-.2605.2422-8.7973 8.313-18.48639 4.599-21.61279 3.0312-.11018-.054-.213489-.1068-.30875-.1527-.047057-.008-.076895-.0252-.115918-.0252-.333987 0-.604842.2674-.604842.6014v4.2018c0 .1734.0665597.3157.174446.4235 10.163054 8.8376 19.785654.5624 22.011054-1.6263z"/></g></svg>