<svg fill="none" height="192" viewBox="0 0 192 192" width="192" xmlns="http://www.w3.org/2000/svg"><g fill="#fff"><path d="m15.7908 24.967v6.8328h.0588l4.5936-4.7664h.0588v29.8044h6.546v-38.9364h-5.2236z"/><path d="m43.474 48.0528c0 2.4696-.9193 3.9048-3.1573 3.9048-2.1828 0-3.042-1.4916-3.042-3.9048v-7.1208c.1116-2.1816 1.0308-3.5604 3.1008-3.5604 2.2356 0 3.0985 1.3788 3.0985 3.9048zm6.4895-.5736v-5.7432c0-6.3732-2.5271-9.5917-7.236-9.5917-2.7576 0-4.422 1.2637-5.3976 3.1597h-.0552v-8.3844c0-2.3556.7428-4.0212 3.1008-4.0212 2.352 0 3.0421 1.3776 3.0421 3.7884v2.5884h5.9711v-2.0688c0-5.7432-1.8936-9.7621-9.1308-9.7621-6.8904 0-9.4764 4.4221-9.4764 10.5097v18.9504c0 6.0288 2.6436 10.3944 9.5352 10.3944 6.9468 0 9.6468-3.7896 9.6468-9.8196z"/><path d="m136.09 67.5479s-2.225 2.9568-1.578 5.8356c.651 2.8811 3.935 4.5947 3.935 4.5947s2.227-2.9556 1.578-5.8356c-.65-2.8824-3.935-4.5947-3.935-4.5947z"/><path d="m132.463 84.4291s2.226-2.9567 1.577-5.8379c-.651-2.8812-3.933-4.5912-3.933-4.5912s-2.229 2.9532-1.582 5.8356c.653 2.8788 3.938 4.5935 3.938 4.5935z"/><path d="m141.611 81.2625s2.351 2.3712 5.027 2.1324c2.677-.2376 4.66-2.9916 4.66-2.9916s-2.347-2.3712-5.025-2.1336c-2.677.2388-4.662 2.9928-4.662 2.9928z"/><path d="m145.462 68.6008c-2.178 2.2104-1.871 6.1212-1.871 6.1212s3.839.3323 6.022-1.8744c2.176-2.208 1.869-6.1188 1.869-6.1188s-3.841-.3324-6.02 1.872z"/><path d="m140.657 90.0516c2.667.3156 5.174-1.9753 5.174-1.9753s-1.815-2.8008-4.481-3.1152c-2.67-.3132-5.176 1.9764-5.176 1.9764s1.815 2.7997 4.483 3.1141z"/><path d="m143.039 136.386h-19.936c-1.56 0-2.824 1.259-2.824 2.819 0 1.557 1.264 2.821 2.824 2.821h19.936c1.558 0 2.82-1.264 2.82-2.821 0-1.56-1.262-2.819-2.82-2.819z"/><path d="m143.039 167.474h-19.936c-1.56 0-2.824 1.26-2.824 2.82 0 1.556 1.264 2.821 2.824 2.821h19.936c1.558 0 2.82-1.265 2.82-2.821 0-1.56-1.262-2.82-2.82-2.82z"/><path d="m53.3797 129.54c-.4679-.145-.9322-.272-1.3834-.357 0 0 .5111.159 1.3834.357z"/><path d="m85.6907 141.742c1.314.022 2.6328-.017 3.9528-.107v10.416l-3.9528-.09zm56.6133 2.254h-18.474c-.885 0-1.605.72-1.605 1.605v5.594l-12.059 1.326-17.6185-.403v-10.762c2.34-.3 4.6837-.765 7.0105-1.422 16.96-4.785 20.658-18.807 20.288-28.508-.369-9.88 2.793-13.7172 7.336-15.4236 1.301-.4884 2.588-.7968 3.766-.9972.05 2.4264.542 5.2478 1.627 8.6098.403-.023.804-.056 1.202-.099-1.146-3.44-1.634-6.268-1.661-8.68 2.348-.2772 4.022-.1213 4.022-.1213s-1.587-.8519-3.827-2.7251c.762-4.6788 3.548-7.5516 6.42-10.4892 1.579-1.6176 3.21-3.2868 4.494-5.2764l-1-.6469c-1.215 1.8912-2.812 3.5161-4.349 5.0905-2.801 2.8644-5.627 5.7924-6.584 10.4376-.911-.822-1.895-1.7928-2.903-2.9244-4.182-4.6884-9.565-1.2444-17.243 5.904-7.681 7.1452-17.3384 7.3892-26.7716-2.262-12.4464-12.7416-23.3016-12.6684-30.7476-11.946 5.094 2.1696 6.8747 6.9288 9.4523 19.0248 2.7012 12.6924 9.5149 18.4344 18.8353 19.2264-5.1852 1.832-5.4409 4.758-12.3865 9.554-5.4239 3.743-13.0536 2.56-16.1484 1.858 5.6796 1.77 12.4056 7.727 18.4248 9.8 3.504 1.206 7.1989 1.952 10.9825 2.252v10.302l-31.5624-.72v7.186l58.9416-1.348 12.059 1.327v5.589c0 .886.72 1.608 1.605 1.608h18.474c.887 0 1.608-.722 1.608-1.608v-18.327c0-.885-.721-1.605-1.608-1.605z"/><path d="m49.4989 157.172c0 1.515-1.0573 2.745-2.3605 2.745h-1.4196c-1.3008 0-2.3616-1.23-2.3616-2.745v-4.968c0-1.518 1.0608-2.744 2.3616-2.744h1.4196c1.3032 0 2.3605 1.226 2.3605 2.744z"/></g><path d="m192 0h-192v192h192z" fill="#00689d"/><g fill="#fff"><path d="m14.8572 23.2638v6.8328h.0588l4.5936-4.7663h.0588v29.8044h6.546v-38.9365h-5.2248z"/><path d="m42.5386 46.3486c0 2.4696-.918 3.9048-3.1572 3.9048-2.1816 0-3.0419-1.4916-3.0419-3.9048v-7.1207c.1128-2.1817 1.0319-3.5605 3.1007-3.5605 2.2356 0 3.0984 1.3788 3.0984 3.906zm6.4896-.5736v-5.7432c0-6.3732-2.526-9.5916-7.2348-9.5916-2.7588 0-4.422 1.2636-5.3976 3.1596h-.0563v-8.3844c0-2.3556.7427-4.0212 3.1007-4.0212 2.3532 0 3.042 1.3788 3.042 3.7884v2.5896h5.9725v-2.0699c0-5.7433-1.8936-9.7621-9.1308-9.7621-6.8916 0-9.4765 4.422-9.4765 10.5096v18.9504c0 6.0288 2.6436 10.3945 9.534 10.3945 6.9468 0 9.6468-3.7896 9.6468-9.8197z"/><path d="m129.04 87.6279s-1.826 2.4265-1.295 4.7893c.534 2.364 3.229 3.7704 3.229 3.7704s1.828-2.4264 1.295-4.7893c-.534-2.3652-3.229-3.7704-3.229-3.7704z"/><path d="m126.064 101.482s1.826-2.4262 1.295-4.7902c-.536-2.3652-3.23-3.768-3.23-3.768s-1.827 2.424-1.297 4.7892c.537 2.362 3.232 3.769 3.232 3.769z"/><path d="m133.571 98.8832s1.929 1.9468 4.125 1.7508 3.826-2.4564 3.826-2.4564-1.927-1.9453-4.126-1.7509c-2.196.1968-3.825 2.4565-3.825 2.4565z"/><path d="m136.73 88.4922c-1.787 1.8132-1.535 5.022-1.535 5.022s3.151.2736 4.942-1.5384c1.788-1.8108 1.536-5.0208 1.536-5.0208s-3.154-.2724-4.943 1.5372z"/><path d="m132.787 106.096c2.189.259 4.247-1.621 4.247-1.621s-1.491-2.298-3.677-2.556c-2.19-.258-4.249 1.622-4.249 1.622s1.49 2.297 3.679 2.555z"/><path d="m134.743 141.284h-16.361c-1.28 0-2.317 1.033-2.317 2.314 0 1.278 1.037 2.316 2.317 2.316h16.361c1.278 0 2.314-1.038 2.314-2.316 0-1.281-1.036-2.314-2.314-2.314z"/><path d="m134.743 166.797h-16.361c-1.28 0-2.317 1.033-2.317 2.313 0 1.278 1.037 2.315 2.317 2.315h16.361c1.278 0 2.314-1.037 2.314-2.315 0-1.28-1.036-2.313-2.314-2.313z"/><path d="m61.164 135.665c-.3863-.119-.7667-.223-1.1374-.293 0 0 .4199.131 1.1374.293z"/><path d="m87.6793 145.68c1.0788.018 2.16-.015 3.2449-.088v8.548l-3.2449-.075zm46.4607 1.85h-15.161c-.726 0-1.316.59-1.316 1.318v4.59l-9.898 1.088-14.4577-.331v-8.832c1.92-.245 3.8436-.628 5.7528-1.167 13.9179-3.927 16.9539-12.596 16.6499-20.558-.303-8.108 2.292-11.256 6.019-12.656 1.068-.402 2.124-.656 3.092-.82.04 1.992.445 4.307 1.335 7.066.33-.018.66-.046.987-.081-.941-2.822-1.342-5.144-1.365-7.123 1.927-.228 3.301-.1 3.301-.1s-1.302-.699-3.14-2.236c.625-3.84 2.911-6.197 5.269-8.6081 1.295-1.3284 2.634-2.6976 3.688-4.3308l-.821-.5303c-.998 1.5528-2.306 2.8847-3.568 4.1771-2.299 2.3521-4.618 4.7541-5.404 8.5661-.747-.675-1.556-1.472-2.381-2.399-3.433-3.849-7.851-1.021-14.152 4.844-6.304 5.863-14.2295 6.065-21.9707-1.856-10.2144-10.4559-19.1232-10.3971-25.2324-9.8031 4.1784 1.7796 5.6413 5.6861 7.7569 15.6121 2.2164 10.416 7.8071 15.128 15.4559 15.779-3.546.575-4.464 1.065-10.164 5.003-4.452 3.072-10.7136 2.101-13.2516 1.524 4.6608 1.453 10.1796 6.342 15.1188 8.042 2.8764.99 5.9076 1.602 9.0132 1.848v8.454l-27.4248-.59v5.898l49.8937-1.108 9.898 1.09v4.588c0 .725.59 1.319 1.316 1.319h15.161c.728 0 1.32-.594 1.32-1.319v-15.04c0-.728-.592-1.318-1.32-1.318z"/><path d="m56.455 158.342c0 1.243-.8676 2.252-1.9368 2.252h-1.1664c-1.0667 0-1.9368-1.009-1.9368-2.252v-4.078c0-1.246.8701-2.252 1.9368-2.252h1.1664c1.0692 0 1.9368 1.006 1.9368 2.252z"/><path d="m61.3916 15.9053h6.4092v2.2332h-3.6732v4.6572h2.7384v2.208h-2.7384v7.1772h-2.736z"/><path d="m71.736 18.1385v5.0652h.9132c.936 0 1.344-.48 1.344-1.3452v-2.4c0-.888-.408-1.32-1.344-1.32zm0 6.5772v7.4652h-2.736v-16.2756h3.9852c2.76 0 3.7692 1.3692 3.7692 3.6492v2.0892c0 1.752-.6252 2.784-2.1852 3.144l2.616 7.3932h-2.88z"/><path d="m78.239 15.9053h6.5305v2.2332h-3.7944v4.6572h2.7132v2.208h-2.7132v4.9452h3.7944v2.232h-6.5305z"/><path d="m90.1211 29.9489c1.1268 0 1.5589-.672 1.5589-1.656v-8.5224c0-.96-.4321-1.632-1.5589-1.632h-1.1532v11.8104zm4.2961-9.6744v7.5384c0 2.496-1.0333 4.368-3.9613 4.368h-4.2252v-16.2756h4.2252c2.928 0 3.9613 1.8492 3.9613 4.3692z"/><path d="m95.9749 15.9053h2.7371v14.0436h3.264v2.232h-6.0011z"/><path d="m105.96 15.9053h-2.737v16.2756h2.737z"/><path d="m111.672 23.4913h3.889v8.6892h-1.969v-1.776c-.36 1.224-1.128 1.9692-2.617 1.9692-2.352 0-3.432-1.8732-3.432-4.3944v-7.8732c0-2.544 1.225-4.3932 4.105-4.3932 3.024 0 3.913 1.6812 3.913 4.0812v1.44h-2.496v-1.656c0-1.008-.385-1.584-1.369-1.584s-1.417.696-1.417 1.68v8.7384c0 .984.409 1.68 1.344 1.68.889 0 1.346-.504 1.346-1.56v-2.8812h-1.297z"/><path d="m120.12 27.0209h2.184l-1.081-6.5304h-.024zm-3.434 5.16 3.073-16.2756h3.12l3.097 16.2756h-2.808l-.504-2.976h-2.905l-.48 2.976z"/><path d="m135.168 28.4125v-8.7384c0-.984-.433-1.68-1.417-1.68-.96 0-1.392.696-1.392 1.68v8.7384c0 .984.432 1.68 1.392 1.68.984 0 1.417-.696 1.417-1.68zm-5.547-.4332v-7.8732c0-2.544 1.25-4.3932 4.13-4.3932 2.905 0 4.153 1.8492 4.153 4.3932v7.8732c0 2.5212-1.248 4.3944-4.153 4.3944-2.88 0-4.13-1.8732-4.13-4.3944z"/><path d="m139.462 27.9793v-7.8732c0-2.544 1.2-4.3932 4.08-4.3932 3.025 0 3.865 1.6812 3.865 4.0812v1.9212h-2.496v-2.1372c0-1.008-.337-1.584-1.321-1.584-.983 0-1.392.696-1.392 1.68v8.7384c0 .984.409 1.68 1.392 1.68.984 0 1.321-.624 1.321-1.584v-3.0012h2.496v2.8092c0 2.328-.96 4.0572-3.865 4.0572-2.88 0-4.08-1.8732-4.08-4.3944z"/><path d="m154.271 25.0037h-2.642v7.1772h-2.736v-16.2756h2.736v6.8904h2.642v-6.8904h2.759v16.2756h-2.759z"/><path d="m64.1277 38.7051h-2.7361v16.2755h2.7361z"/><path d="m68.0171 44.7543v10.2263h-2.3052v-16.2755h2.688l2.9532 9.3384v-9.3384h2.28v16.2755h-2.4z"/><path d="m77.9267 47.0595v7.9211h-2.736v-16.2755h2.736v7.1544l2.9772-7.1544h2.6892l-3.1692 7.3224 3.2412 8.9531h-2.8812z"/><path d="m84.6963 38.7051h2.736v14.0436h3.2652v2.2319h-6.0012z"/><path d="m99.6489 38.7051v12.3156c0 2.52-1.0788 4.1532-3.8652 4.1532-2.8801 0-4.0801-1.6332-4.0801-4.1532v-12.3156h2.7361v12.5796c0 .96.384 1.608 1.344 1.608.9612 0 1.3451-.648 1.3451-1.608v-12.5796z"/><path d="m105.097 52.7487c1.127 0 1.56-.6721 1.56-1.6561v-8.5223c0-.96-.433-1.632-1.56-1.632h-1.153v11.8104zm4.296-9.6744v7.5384c0 2.496-1.032 4.3679-3.961 4.3679h-4.224v-16.2755h4.224c2.929 0 3.961 1.8492 3.961 4.3692z"/><path d="m110.951 38.7051h6.529v2.2332h-3.793v4.6572h2.713v2.208h-2.713v4.9452h3.793v2.2319h-6.529z"/><path d="m121.678 40.9383v5.0652h.913c.936 0 1.344-.48 1.344-1.3452v-2.4c0-.888-.408-1.32-1.344-1.32zm0 6.5772v7.4651h-2.736v-16.2755h3.985c2.76 0 3.769 1.3692 3.769 3.6492v2.0892c0 1.752-.624 2.784-2.185 3.144l2.616 7.3931h-2.88z"/><path d="m131.184 49.8207h2.185l-1.081-6.5304h-.024zm-3.433 5.1599 3.072-16.2755h3.121l3.097 16.2755h-2.809l-.504-2.9759h-2.905l-.479 2.9759z"/><path d="m140.472 44.7543v10.2263h-2.305v-16.2755h2.688l2.953 9.3384v-9.3384h2.28v16.2755h-2.4z"/><path d="m151.535 52.7487c1.128 0 1.56-.6721 1.56-1.6561v-8.5223c0-.96-.432-1.632-1.56-1.632h-1.154v11.8104zm4.296-9.6744v7.5384c0 2.496-1.032 4.3679-3.96 4.3679h-4.225v-16.2755h4.225c2.928 0 3.96 1.8492 3.96 4.3692z"/><path d="m157.389 38.7051h6.531v2.2332h-3.795v4.6572h2.714v2.208h-2.714v4.9452h3.795v2.2319h-6.531z"/><path d="m61.248 74.2761v-2.1852h2.5453v2.2332c0 .912.408 1.44 1.344 1.44.864 0 1.248-.576 1.248-1.44v-.6252c0-.9348-.384-1.512-1.224-2.304l-1.608-1.608c-1.5612-1.5372-2.2812-2.472-2.2812-4.3452v-.552c0-2.016 1.176-3.5772 3.8412-3.5772 2.736 0 3.816 1.3452 3.816 3.6972v1.32h-2.496v-1.416c0-.936-.432-1.392-1.296-1.392-.768 0-1.296.432-1.296 1.344v.336c0 .912.504 1.4412 1.296 2.208l1.752 1.7292c1.488 1.512 2.2092 2.424 2.2092 4.2252v.792c0 2.232-1.2012 3.8172-3.9852 3.8172-2.7852 0-3.8653-1.5612-3.8653-3.6972z"/><path d="m73.2975 72.6205h2.184l-1.08-6.5304h-.0252zm-3.4332 5.1599 3.072-16.2755h3.1212l3.0972 16.2755h-2.8092l-.504-2.9759h-2.9052l-.4788 2.9759z"/><path d="m87.817 67.2193h-.072l-1.8492 10.5611h-1.272l-2.04-10.5611h-.048v10.5611h-2.2572v-16.2755h3.1932l1.776 9.1704h.024l1.5852-9.1704h3.4572v16.2755h-2.4972z"/><path d="m97.249 70.6033h-2.6412v7.1771h-2.736v-16.2755h2.736v6.8904h2.6412v-6.8904h2.76v16.2755h-2.76z"/><path d="m106.057 58.8652h2.328v2.064h-2.328zm-1.488 13.7557h2.184l-1.081-6.5304h-.024zm-1.417-13.7557h2.328v2.064h-2.328zm-2.017 18.9157 3.073-16.2756h3.12l3.097 16.2756h-2.808l-.504-2.976h-2.905l-.48 2.976z"/><path d="m111.551 61.5049h2.736v14.0436h3.265v2.2319h-6.001z"/><path d="m118.798 61.5049h2.736v14.0436h3.265v2.2319h-6.001z"/><path d="m126.046 61.5049h6.529v2.2332h-3.793v4.6572h2.713v2.208h-2.713v4.9452h3.793v2.2319h-6.529z"/><path d="m136.343 67.5541v10.2263h-2.305v-16.2755h2.688l2.953 9.3384v-9.3384h2.281v16.2755h-2.4z"/></g></svg>