<svg fill="none" height="192" viewBox="0 0 192 192" width="192" xmlns="http://www.w3.org/2000/svg"><path d="m192 0h-192v192h192z" fill="#19486a"/><g fill="#fff"><path d="m30.1188 17.8896v38.9341h-6.546v-29.8044h-.0588l-4.5935 4.7664h-.0565v-6.834l6.03-7.0621z"/><path d="m33.104 17.8896h16.4244v6.0289l-8.556 32.9052h-6.4932l8.7312-33.5952h-10.1064z"/><path d="m111.446 129.132c4.478-4.154 7.288-10.083 7.288-16.66 0-.984-.07-1.953-.191-2.906 9.099.975 16.213 8.696 16.213 18.053 0 5.315-2.31 10.089-5.966 13.414-3.422-6.412-9.822-10.997-17.344-11.901zm15.433 22.569c0 10.008-8.145 18.155-18.157 18.155-3.258 0-6.307-.875-8.9533-2.382 3.8613-4.078 6.2433-9.579 6.2433-15.623 0-1.488-.151-2.941-.424-4.35 3.265 1.814 7.017 2.852 11.011 2.852 3.552 0 6.917-.822 9.913-2.282.241 1.173.367 2.388.367 3.63zm-61.7603.15c0-1.291.138-2.548.3972-3.762 2.9916 1.448 6.3444 2.264 9.8844 2.264 3.9804 0 7.7208-1.031 10.9765-2.834-.252 1.355-.3925 2.753-.3925 4.182 0 6.139 2.4552 11.718 6.4272 15.812-2.6868 1.573-5.8044 2.493-9.1356 2.493-10.0128 0-18.1572-8.145-18.1572-18.155zm-7.8768-24.232c0-9.357 7.1124-17.077 16.2108-18.053-.1212.953-.1896 1.922-.1896 2.906 0 6.645 2.868 12.634 7.4268 16.795-7.5408.858-13.974 5.415-17.4312 11.813-3.6828-3.324-6.0168-8.121-6.0168-13.461zm38.7552-33.3047c7.4399 0 13.8409 4.4988 16.6449 10.9177-7.387 1.303-13.5525 6.179-16.6449 12.776-3.0876-6.598-9.2567-11.474-16.6427-12.776 2.8044-6.4189 9.2051-10.9177 16.6427-10.9177zm4.3249 41.3027c2.515-1.319 5.366-2.075 8.4-2.075 7.139 0 13.309 4.152 16.277 10.157-2.518 1.32-5.374 2.076-8.4 2.076-7.141 0-13.314-4.151-16.277-10.158zm-8.7061.123c-2.988 5.941-9.1248 10.035-16.2156 10.035-3.0072 0-5.8416-.747-8.3412-2.047 2.9868-5.94 9.1272-10.036 16.2168-10.036 3.0096 0 5.8404.748 8.34 2.048zm-13.5384-26.061c8.7444 1.301 15.4812 8.838 15.4812 17.94 0 .949-.096 1.878-.2376 2.789-8.7456-1.301-15.48-8.836-15.48-17.936 0-.952.0948-1.881.2364-2.793zm18.0036 55.027c-3.3984-3.301-5.5176-7.909-5.5176-13.005 0-5.021 2.0509-9.57 5.3509-12.859 3.3972 3.3 5.5186 7.908 5.5186 13.009 0 5.017-2.0483 9.566-5.3519 12.855zm18.0749-52.234c0 9.1-6.735 16.635-15.4805 17.936-.1416-.911-.2363-1.84-.2363-2.789 0-9.102 6.7358-16.638 15.4798-17.939.142.911.237 1.84.237 2.792zm25.177 15.147c0-12.259-9.753-22.274-21.9-22.718-3.125-8.8239-11.553-15.1647-21.4359-15.1647-9.8808 0-18.3084 6.3408-21.4356 15.1647-12.1476.445-21.8952 10.46-21.8952 22.718 0 7.273 3.438 13.757 8.772 17.921-.5796 2.006-.8988 4.122-.8988 6.311 0 12.531 10.2 22.731 22.7364 22.731 4.758 0 9.1764-1.471 12.8328-3.98 3.612 2.418 7.9503 3.829 12.6133 3.829 12.535 0 22.734-10.199 22.734-22.73 0-2.147-.304-4.221-.862-6.186 5.314-4.167 8.739-10.638 8.739-17.896z"/><path d="m66.9335 23.4913h3.8892v8.6892h-1.968v-1.776c-.36 1.224-1.1292 1.9692-2.6173 1.9692-2.352 0-3.432-1.8732-3.432-4.3944v-7.8732c0-2.544 1.224-4.3932 4.1052-4.3932 3.0241 0 3.9121 1.6812 3.9121 4.0812v1.44h-2.496v-1.656c0-1.008-.384-1.584-1.368-1.584-.9852 0-1.4173.696-1.4173 1.68v8.7384c0 .984.4092 1.68 1.344 1.68.888 0 1.3453-.504 1.3453-1.56v-2.8812h-1.2972z"/><path d="m72.3801 15.9053h6.5304v2.2332h-3.7932v4.6572h2.712v2.208h-2.712v4.9452h3.7932v2.232h-6.5304z"/><path d="m82.6761 21.9545v10.2264h-2.304v-16.2756h2.688l2.9532 9.3384v-9.3384h2.28v16.2756h-2.4z"/><path d="m95.3977 28.4125v-8.7384c0-.984-.4319-1.68-1.4171-1.68-.9588 0-1.3921.696-1.3921 1.68v8.7384c0 .984.4333 1.68 1.3921 1.68.9852 0 1.4171-.696 1.4171-1.68zm-5.5452-.4332v-7.8732c0-2.544 1.248-4.3932 4.1281-4.3932 2.9052 0 4.1532 1.8492 4.1532 4.3932v7.8732c0 2.5212-1.248 4.3944-4.1532 4.3944-2.8801 0-4.1281-1.8732-4.1281-4.3944z"/><path d="m107.228 21.6197h-.071l-1.849 10.5612h-1.272l-2.04-10.5612h-.048v10.5612h-2.2576v-16.2756h3.1936l1.776 9.1704h.024l1.585-9.1704h3.456v16.2756h-2.497z"/><path d="m111.281 15.9053h6.41v2.2332h-3.672v4.6572h2.737v2.208h-2.737v7.1772h-2.738z"/><path d="m123.067 13.2656h2.328v2.064h-2.328zm1.128 15.1476v-8.7384c0-.984-.432-1.68-1.417-1.68-.959 0-1.392.696-1.392 1.68v8.7384c0 .984.433 1.68 1.392 1.68.985 0 1.417-.696 1.417-1.68zm-4.032-15.1476h2.328v2.064h-2.328zm-1.513 14.7145v-7.8733c0-2.544 1.248-4.3932 4.128-4.3932 2.905 0 4.153 1.8492 4.153 4.3932v7.8733c0 2.5212-1.248 4.3943-4.153 4.3943-2.88 0-4.128-1.8731-4.128-4.3943z"/><path d="m131.225 18.1385v5.0652h.913c.936 0 1.344-.48 1.344-1.3452v-2.4c0-.888-.408-1.32-1.344-1.32zm0 6.5772v7.4652h-2.736v-16.2756h3.985c2.76 0 3.769 1.3692 3.769 3.6492v2.0892c0 1.752-.624 2.784-2.185 3.144l2.616 7.3932h-2.88z"/><path d="m140.73 27.0209h2.185l-1.081-6.5304h-.024zm-3.433 5.16 3.073-16.2756h3.12l3.097 16.2756h-2.809l-.504-2.976h-2.904l-.48 2.976z"/><path d="m150.018 21.9545v10.2264h-2.305v-16.2756h2.688l2.953 9.3384v-9.3384h2.28v16.2756h-2.4z"/><path d="m161.081 29.9489c1.128 0 1.56-.672 1.56-1.656v-8.5224c0-.96-.432-1.632-1.56-1.632h-1.154v11.8104zm4.296-9.6744v7.5384c0 2.496-1.032 4.368-3.96 4.368h-4.226v-16.2756h4.226c2.928 0 3.96 1.8492 3.96 4.3692z"/><path d="m166.935 15.9053h6.531v2.2332h-3.795v4.6572h2.714v2.208h-2.714v4.9452h3.795v2.232h-6.531z"/><path d="m68.3506 51.2133v-8.7384c0-.984-.432-1.68-1.4172-1.68-.96 0-1.392.696-1.392 1.68v8.7384c0 .984.432 1.68 1.392 1.68.9852 0 1.4172-.696 1.4172-1.68zm-5.5452-.4331v-7.8733c0-2.544 1.248-4.3932 4.128-4.3932 2.9052 0 4.1532 1.8492 4.1532 4.3932v7.8733c0 2.5212-1.248 4.3944-4.1532 4.3944-2.88 0-4.128-1.8732-4.128-4.3944z"/><path d="m72.6443 50.7802v-7.8733c0-2.544 1.2-4.3932 4.08-4.3932 3.0252 0 3.8652 1.6812 3.8652 4.0812v1.9212h-2.496v-2.1372c0-1.008-.336-1.584-1.3212-1.584-.9828 0-1.392.696-1.392 1.68v8.7384c0 .984.4092 1.68 1.392 1.68.9852 0 1.3212-.624 1.3212-1.584v-3.0012h2.496v2.8092c0 2.328-.96 4.0573-3.8652 4.0573-2.88 0-4.08-1.8732-4.08-4.3944z"/><path d="m87.4533 47.8035h-2.6411v7.1771h-2.7372v-16.2755h2.7372v6.8904h2.6411v-6.8904h2.76v16.2755h-2.76z"/><path d="m98.4214 46.2921h3.8896v8.6892h-1.97v-1.7759c-.3596 1.224-1.1276 1.9692-2.6168 1.9692-2.352 0-3.432-1.8732-3.432-4.3944v-7.8733c0-2.544 1.2252-4.3932 4.1052-4.3932 3.0236 0 3.9136 1.6812 3.9136 4.0812v1.44h-2.4964v-1.656c0-1.008-.3852-1.584-1.3692-1.584s-1.4172.696-1.4172 1.68v8.7384c0 .984.4092 1.68 1.344 1.68.8892 0 1.3464-.5039 1.3464-1.5599v-2.8813h-1.2972z"/><path d="m103.868 38.7051h2.736v14.0436h3.265v2.2319h-6.001z"/><path d="m116.541 51.2133v-8.7384c0-.984-.432-1.68-1.417-1.68-.959 0-1.392.696-1.392 1.68v8.7384c0 .984.433 1.68 1.392 1.68.985 0 1.417-.696 1.417-1.68zm-5.545-.4331v-7.8733c0-2.544 1.248-4.3932 4.128-4.3932 2.905 0 4.153 1.8492 4.153 4.3932v7.8733c0 2.5212-1.248 4.3944-4.153 4.3944-2.88 0-4.128-1.8732-4.128-4.3944z"/><path d="m123.572 47.6595v5.0892h1.2c.912 0 1.345-.4561 1.345-1.3201v-2.4491c0-.864-.409-1.32-1.369-1.32zm0-2.088h.96c.889 0 1.296-.456 1.296-1.3212v-1.992c0-.888-.407-1.32-1.32-1.32h-.936zm-2.737-6.8664h3.961c2.736 0 3.649 1.2732 3.649 3.5772v1.656c0 1.3692-.505 2.2332-1.632 2.5932 1.367.312 2.04 1.224 2.04 2.712v2.1612c0 2.304-1.032 3.5759-3.769 3.5759h-4.249z"/><path d="m133.101 49.8207h2.184l-1.08-6.5304h-.025zm-3.433 5.1599 3.072-16.2755h3.121l3.098 16.2755h-2.81l-.503-2.9759h-2.906l-.479 2.9759z"/><path d="m140.083 38.7051h2.737v14.0436h3.264v2.2319h-6.001z"/><path d="m145.459 38.7051h7.273v2.2332h-2.257v14.0423h-2.76v-14.0423h-2.256z"/><path d="m65.5414 63.7381v6.4092h1.0092c.936 0 1.344-.456 1.344-1.344v-3.7452c0-.888-.408-1.32-1.344-1.32zm-2.736-2.2332h4.0572c2.76 0 3.768 1.3692 3.768 3.6492v3.4332c0 2.28-1.008 3.672-3.768 3.672h-1.3212v5.5211h-2.736z"/><path d="m74.0866 72.6205h2.1851l-1.0812-6.5304h-.024zm-3.4333 5.1599 3.072-16.2755h3.1213l3.0972 16.2755h-2.8093l-.5039-2.9759h-2.9053l-.4788 2.9759z"/><path d="m83.8051 63.7381v5.0652h.9132c.936 0 1.344-.48 1.344-1.3452v-2.4c0-.888-.408-1.32-1.344-1.32zm0 6.5772v7.4651h-2.736v-16.2755h3.9852c2.76 0 3.768 1.3692 3.768 3.6492v2.0892c0 1.752-.624 2.784-2.1852 3.144l2.6172 7.3931h-2.8812z"/><path d="m89.7585 61.5049h7.2733v2.2332h-2.2572v14.0423h-2.76v-14.0423h-2.2561z"/><path d="m100.607 67.5541v10.2263h-2.3055v-16.2755h2.6885l2.953 9.3384v-9.3384h2.28v16.2755h-2.4z"/><path d="m107.78 61.5049h6.531v2.2332h-3.794v4.6572h2.712v2.208h-2.712v4.9452h3.794v2.2319h-6.531z"/><path d="m118.509 63.7381v5.0652h.912c.938 0 1.346-.48 1.346-1.3452v-2.4c0-.888-.408-1.32-1.346-1.32zm0 6.5772v7.4651h-2.737v-16.2755h3.987c2.76 0 3.768 1.3692 3.768 3.6492v2.0892c0 1.752-.624 2.784-2.186 3.144l2.618 7.3931h-2.882z"/><path d="m124.749 74.2761v-2.1852h2.545v2.2332c0 .912.408 1.44 1.344 1.44.864 0 1.248-.576 1.248-1.44v-.6252c0-.9348-.384-1.512-1.224-2.304l-1.608-1.608c-1.561-1.5372-2.281-2.472-2.281-4.3452v-.552c0-2.016 1.176-3.5772 3.841-3.5772 2.736 0 3.816 1.3452 3.816 3.6972v1.32h-2.496v-1.416c0-.936-.432-1.392-1.296-1.392-.768 0-1.296.432-1.296 1.344v.336c0 .912.504 1.4412 1.296 2.208l1.752 1.7292c1.488 1.512 2.209 2.424 2.209 4.2252v.792c0 2.232-1.201 3.8172-3.985 3.8172-2.785 0-3.865-1.5612-3.865-3.6972z"/><path d="m136.775 69.8593v7.9211h-2.736v-16.2755h2.736v7.1544l2.977-7.1544h2.689l-3.169 7.3224 3.241 8.9531h-2.881z"/><path d="m146.544 72.6205h2.184l-1.08-6.5304h-.026zm-3.434 5.1599 3.072-16.2755h3.122l3.097 16.2755h-2.809l-.504-2.9759h-2.906l-.478 2.9759z"/><path d="m156.263 63.7381v6.4092h1.009c.936 0 1.344-.456 1.344-1.344v-3.7452c0-.888-.408-1.32-1.344-1.32zm-2.738-2.2332h4.058c2.761 0 3.769 1.3692 3.769 3.6492v3.4332c0 2.28-1.008 3.672-3.769 3.672h-1.32v5.5211h-2.738z"/></g></svg>