<svg fill="none" height="87" viewBox="0 0 100 87" width="100" xmlns="http://www.w3.org/2000/svg"><g fill="#000"><path d="m33.884 82.2991v2.6085c-.0024.0173-.0093.0392-.0093.0588 0 .0219.0069.0427.0093.0611.0265.6455.5533 1.1597 1.2034 1.1723.0069 0 .0138.0046.023.0046.0093 0 .0208-.0046.0312-.0046h30.5975c.0081 0 .0173.0046.0265.0046s.0185-.0046.0266-.0046c.6685-.0126 1.2022-.5556 1.2068-1.2253 0-.0011.0046-.0035.0046-.0081 0 0-.0046-.0046-.0046-.0092v-2.9521c17.2262-5.646 30.1296-19.6065 32.9676-36.6205.0069-.0357.0115-.0703.0161-.1014.0104-.06.0173-.1141.0173-.1718 0-.6835-.551-1.2368-1.2369-1.2368h-97.52278c-.687014 0-1.24032.5533-1.24032 1.2368l.0645515.5568c2.9809085 17.1754 16.2394485 31.2143 33.8194485 36.6309z"/><path d="m66.9715 2.25256c-.4023.57174-9.8246 14.13684.2097 25.10604 4.6028 5.0339 4.2028 9.4753 2.8887 12.4758h6.4368c1.3037-4.4299.7654-9.9848-4.4599-15.6942-7.3935-8.0828.0945-19.00817.2075-19.17647.8818-1.24608.4092-2.85296-1.0443-3.60222-1.4605-.745805-3.3533-.34696-4.2385.89105z"/><path d="m50.6698 39.8348h6.439c1.3014-4.431.7608-9.9836-4.4645-15.6942-7.3957-8.0839.0865-19.00355.2052-19.18222.8784-1.24032.4127-2.84489-1.0466-3.59646-1.4559-.743497-3.3509-.34811-4.2328.89105-.4046.56944-9.8349 14.13683.2087 25.10603 4.6027 5.035 4.2016 9.4776 2.891 12.4758z"/><path d="m28.1653 2.25279c-.4081.57175-9.8304 14.13681.2063 25.10601 4.6051 5.0362 4.2062 9.4776 2.8956 12.4758h6.4367c1.3015-4.4276.7631-9.9825-4.4667-15.6941-7.3958-8.0828.0922-19.00824.2109-19.18114.8749-1.24147.4081-2.84835-1.0512-3.59761-1.4548-.750418-3.3498-.34927-4.2316.89104z"/></g></svg>