<svg fill="none" height="192" viewBox="0 0 192 192" width="192" xmlns="http://www.w3.org/2000/svg"><path d="m192 0h-192v192h192z" fill="#dda63a"/><g fill="#fff"><path d="m38.2536 49.7795h-10.7388v-1.8372c0-3.042 1.092-4.1917 2.7564-5.9713l4.1904-4.422c3.3876-3.618 4.1352-5.9148 4.1352-9.822v-3.7896c0-5.568-2.7-8.2128-8.5572-8.2128-5.7408 0-8.67 3.0456-8.67 8.5008v4.7064h5.9724v-4.8804c0-2.352 1.1484-3.0432 2.5284-3.0432 1.26 0 2.3532.5172 2.3532 2.9292v3.216c0 3.2184-.2892 4.4808-2.412 6.72l-3.678 3.9036c-3.558 3.7932-4.8792 6.3192-4.8792 10.1653v7.1796h16.9992z"/><path d="m79.1639 164.091v2.715c-.0024.018-.0096.041-.0096.061 0 .023.0072.045.0096.064.0276.672.576 1.207 1.2528 1.22.0072 0 .0144.005.024.005s.0216-.005.0324-.005h31.8529c.008 0 .018.005.027.005.01 0 .02-.005.028-.005.696-.013 1.252-.578 1.257-1.275 0-.001.004-.004.004-.009 0 0-.004-.004-.004-.009v-3.073c17.932-5.878 31.365-20.411 34.32-38.123.007-.037.012-.073.016-.106.011-.062.018-.119.018-.179 0-.711-.573-1.287-1.287-1.287h-101.5239c-.7152 0-1.2912.576-1.2912 1.287l.0672.58c3.1032 17.88 16.9056 32.495 35.2068 38.134z"/><path d="m113.609 80.7592c-.419.5952-10.228 14.7168.218 26.1358 4.792 5.241 4.375 9.864 3.007 12.988h6.701c1.357-4.612.797-10.395-4.643-16.338-7.696-8.4146.099-19.7882.216-19.9634.918-1.2972.426-2.97-1.087-3.75-1.52-.7764-3.491-.3612-4.412.9276z"/><path d="m96.6387 119.884h6.7033c1.355-4.613.792-10.393-4.6477-16.338-7.6992-8.4156.09-19.7832.2136-19.9692.9144-1.2912.4296-2.9616-1.0896-3.744-1.5156-.774-3.4884-.3624-4.4064.9276-.4212.5928-10.2384 14.7168.2172 26.1356 4.7916 5.242 4.374 9.867 3.0096 12.988z"/><path d="m73.2108 80.7599c-.4248.5952-10.2336 14.7168.2148 26.1361 4.794 5.243 4.3788 9.866 3.0144 12.988h6.7008c1.3548-4.61.7944-10.392-4.65-16.338-7.6992-8.4149.096-19.7885.2196-19.9685.9108-1.2924.4248-2.9652-1.0944-3.7452-1.5144-.7812-3.4872-.3636-4.4052.9276z"/><path d="m59.6291 16.0342h-2.736v16.2756h2.736z"/><path d="m63.5183 22.0834v10.2264h-2.3052v-16.2756h2.688l2.9532 9.3384v-9.3384h2.28v16.2756h-2.4z"/><path d="m74.8213 23.6212h3.8892v8.6892h-1.9692v-1.776c-.36 1.224-1.128 1.968-2.6172 1.968-2.3508 0-3.432-1.872-3.432-4.3932v-7.8732c0-2.544 1.2252-4.3932 4.1052-4.3932 3.0252 0 3.9132 1.68 3.9132 4.0812v1.44h-2.496v-1.656c0-1.008-.3852-1.5852-1.3692-1.5852s-1.4172.6972-1.4172 1.6812v8.7384c0 .984.4092 1.68 1.3452 1.68.888 0 1.3452-.504 1.3452-1.56v-2.8812h-1.2972z"/><path d="m80.2693 16.0342h6.5292v2.2332h-3.7932v4.656h2.7132v2.2092h-2.7132v4.9452h3.7932v2.232h-6.5292z"/><path d="m90.5667 22.0834v10.2264h-2.3052v-16.2756h2.688l2.9532 9.3384v-9.3384h2.28v16.2756h-2.4z"/><path d="m62.2715 47.9334h-2.6424v7.1772h-2.736v-16.2756h2.736v6.8892h2.6424v-6.8892h2.7588v16.2756h-2.7588z"/><path d="m74.5346 38.835v12.3144c0 2.5212-1.0788 4.1532-3.864 4.1532-2.8812 0-4.0812-1.632-4.0812-4.1532v-12.3144h2.736v12.5796c0 .96.3852 1.608 1.3452 1.608s1.3452-.648 1.3452-1.608v-12.5796z"/><path d="m78.3985 44.8842v10.2264h-2.3052v-16.2756h2.688l2.9532 9.3384v-9.3384h2.2811v16.2756h-2.3999z"/><path d="m89.7024 46.421h3.8892v8.6892h-1.968v-1.776c-.36 1.224-1.1292 1.968-2.6172 1.968-2.352 0-3.4332-1.872-3.4332-4.3932v-7.8732c0-2.544 1.2252-4.3932 4.1052-4.3932 3.0252 0 3.9132 1.68 3.9132 4.0812v1.44h-2.496v-1.656c0-1.008-.384-1.5852-1.3692-1.5852-.984 0-1.416.6972-1.416 1.6812v8.7384c0 .984.4092 1.68 1.344 1.68.888 0 1.3452-.504 1.3452-1.56v-2.8812h-1.2972z"/><path d="m95.1494 38.835h6.5296v2.2332h-3.7936v4.656h2.7136v2.2092h-2.7136v4.9452h3.7936v2.232h-6.5296z"/><path d="m105.876 41.0682v5.0652h.913c.936 0 1.344-.4812 1.344-1.3452v-2.4c0-.888-.408-1.32-1.344-1.32zm0 6.5772v7.4652h-2.736v-16.2756h3.985c2.76 0 3.769 1.368 3.769 3.6492v2.088c0 1.752-.624 2.7852-2.185 3.1452l2.616 7.3932h-2.88z"/></g></svg>