<svg fill="none" height="71" viewBox="0 0 100 71" width="100" xmlns="http://www.w3.org/2000/svg"><g fill="#000"><path d="m100 37.2108c0-4.1956-2.6933-7.598-6.7713-7.598-2.039 0-4.4996 2.2337-5.8352 3.6072-1.3355-1.3754-3.6331-3.6109-5.673-3.6109-4.0779 0-6.9362 3.4033-6.9362 7.5999 0 2.0992.8258 3.9982 2.1641 5.3746l10.4544 10.4729 10.4396-10.4618-.0074-.0074c1.3374-1.3754 2.165-3.2772 2.165-5.3765z"/><path d="m55.4891 70.1562c-.0352 0-.0704-.001-.1066-.0037-.7942-.0482-1.4504-.6377-1.5857-1.4227l-5.3097-30.9286-8.0448 14.9142c-.3521.6534-1.088 1.0056-1.811.8759-.7303-.1298-1.2938-.7137-1.3995-1.4468l-3.4152-23.8681-6.2477 14.0328c-.2762.6191-.8906 1.0186-1.5681 1.0186h-24.28342c-.949057 0-1.71738-.7693-1.71738-1.7165 0-.9481.768323-1.7174 1.71738-1.7174h23.16842l8.2181-18.4583c.3114-.6989 1.0472-1.1066 1.8054-1.0019.7581.1056 1.3541.6997 1.4625 1.4569l3.5209 24.6115 7.9335-14.7085c.3476-.646 1.065-.9991 1.7888-.8795.7229.1186 1.2901.6821 1.4143 1.4041l4.9167 28.644 17.9236-59.53648c.2048-.677498.8036-1.161293 1.5089-1.216902.7081-.051902 1.3754.328091 1.6821.965732l9.4303 19.55105c.4125.8545.0538 1.8796-.7998 2.292-.8536.4125-1.8805.0538-2.292-.7998l-7.5137-15.57599-18.7531 62.29189c-.2196.7294-.8897 1.2225-1.6432 1.2225z"/></g></svg>