<svg fill="none" height="192" viewBox="0 0 192 192" width="192" xmlns="http://www.w3.org/2000/svg"><path d="m192 0h-192v192h192z" fill="#4c9f38"/><g fill="#fff"><path d="m31.2659 55.643c6.606 0 9.4752-3.5052 9.4752-8.9016v-5.742c0-3.5592-1.5504-5.8584-4.8228-6.6036 2.6988-.8604 4.4784-3.0444 4.4784-6.3168v-3.3876c0-5.5128-2.6412-8.9004-8.6712-8.9004-6.7776 0-9.132 4.0176-9.132 9.7608v3.4452h5.9724v-3.9624c0-2.412.7488-3.7884 2.8152-3.7884 2.0688 0 2.8116 1.3764 2.8116 3.5016v4.1928c0 2.0676-1.3764 3.1572-3.5004 3.1572h-2.4708v4.998h2.7576c2.2956 0 3.2136 1.0896 3.2136 3.1572v6.432c0 2.0652-.918 3.504-2.9268 3.504-2.2404 0-3.0444-1.4952-3.0444-3.792v-5.5692h-5.9688v5.1096c0 5.916 2.352 9.7056 9.0132 9.7056z"/><path d="m165.117 120.683c0-5.432-3.487-9.837-8.767-9.837-2.64 0-5.826 2.892-7.555 4.67-1.729-1.781-4.704-4.675-7.345-4.675-5.28 0-8.981 4.406-8.981 9.84 0 2.718 1.069 5.177 2.802 6.959l13.536 13.56 13.517-13.546-.01-.01c1.732-1.78 2.803-4.243 2.803-6.961z"/><path d="m107.486 163.34c-.045 0-.091-.001-.138-.005-1.028-.062-1.878-.826-2.053-1.842l-6.8747-40.045-10.416 19.31c-.456.846-1.4088 1.302-2.3448 1.134-.9456-.168-1.6752-.924-1.812-1.873l-4.422-30.904-8.0892 18.17c-.3576.801-1.1532 1.318-2.0304 1.318h-31.4412c-1.2288 0-2.2236-.996-2.2236-2.222 0-1.228.9948-2.224 2.2236-2.224h29.9976l10.6404-23.899c.4032-.9045 1.356-1.4325 2.3376-1.2969.9816.1368 1.7532.906 1.8936 1.8859l4.5588 31.866 10.272-19.044c.45-.836 1.3788-1.293 2.316-1.138.9363.153 1.6703.883 1.8313 1.818l6.366 37.087 23.207-77.0857c.265-.8772 1.04-1.5036 1.953-1.5756.917-.0672 1.781.4248 2.178 1.2504l12.21 25.314c.534 1.1059.07 2.4339-1.035 2.9679s-2.435.069-2.968-1.036l-9.728-20.1671-24.281 80.6531c-.284.944-1.152 1.583-2.128 1.583z"/><path d="m62.6338 23.6212h3.8892v8.6892h-1.968v-1.776c-.36 1.224-1.1292 1.968-2.6172 1.968-2.352 0-3.4319-1.872-3.4319-4.3932v-7.8732c0-2.544 1.2239-4.3932 4.1051-4.3932 3.024 0 3.912 1.68 3.912 4.0812v1.44h-2.496v-1.656c0-1.008-.384-1.5852-1.368-1.5852-.9852 0-1.4172.6972-1.4172 1.6812v8.7384c0 .984.4092 1.68 1.344 1.68.888 0 1.3452-.504 1.3452-1.56v-2.8812h-1.2972z"/><path d="m73.6258 28.5424v-8.7384c0-.984-.432-1.6812-1.416-1.6812-.96 0-1.392.6972-1.392 1.6812v8.7384c0 .984.432 1.68 1.392 1.68.984 0 1.416-.696 1.416-1.68zm-5.5452-.4332v-7.8732c0-2.544 1.2479-4.3932 4.1292-4.3932 2.9052 0 4.1532 1.8492 4.1532 4.3932v7.8732c0 2.5212-1.248 4.3932-4.1532 4.3932-2.8813 0-4.1292-1.872-4.1292-4.3932z"/><path d="m81.8096 30.0778c1.1268 0 1.56-.672 1.56-1.656v-8.5224c0-.96-.4332-1.632-1.56-1.632h-1.1532v11.8104zm4.296-9.6744v7.5384c0 2.496-1.032 4.368-3.9612 4.368h-4.224v-16.2756h4.224c2.9292 0 3.9612 1.8492 3.9612 4.3692z"/><path d="m95.5617 25.1326h-2.6412v7.1772h-2.7372v-16.2756h2.7372v6.8892h2.6412v-6.8892h2.76v16.2756h-2.76z"/><path d="m104.369 13.3955h2.328v2.064h-2.328zm-1.489 13.7544h2.185l-1.081-6.5292h-.024zm-1.416-13.7544h2.328v2.064h-2.328zm-2.017 18.9156 3.073-16.2756h3.12l3.097 16.2756h-2.809l-.504-2.976h-2.904l-.48 2.976z"/><path d="m109.863 16.0342h2.736v14.0436h3.265v2.232h-6.001z"/><path d="m116.847 28.8064v-2.1852h2.546v2.2332c0 .912.408 1.44 1.344 1.44.864 0 1.248-.576 1.248-1.44v-.6252c0-.9348-.384-1.512-1.224-2.304l-1.608-1.608c-1.562-1.5372-2.28-2.472-2.28-4.3452v-.552c0-2.0172 1.174-3.5772 3.84-3.5772 2.736 0 3.816 1.3452 3.816 3.6972v1.32h-2.496v-1.416c0-.936-.432-1.392-1.296-1.392-.768 0-1.296.432-1.296 1.344v.336c0 .912.504 1.44 1.296 2.208l1.752 1.7292c1.488 1.512 2.209 2.424 2.209 4.2252v.792c0 2.232-1.201 3.816-3.985 3.816-2.786 0-3.866-1.56-3.866-3.696z"/><path d="m128.898 27.1486h2.184l-1.08-6.5292h-.025zm-3.433 5.1612 3.072-16.2756h3.121l3.097 16.2756h-2.809l-.504-2.976h-2.905l-.479 2.976z"/><path d="m143.945 28.5424v-8.7384c0-.984-.432-1.6812-1.418-1.6812-.958 0-1.392.6972-1.392 1.6812v8.7384c0 .984.434 1.68 1.392 1.68.986 0 1.418-.696 1.418-1.68zm-5.546-.4332v-7.8732c0-2.544 1.248-4.3932 4.128-4.3932 2.906 0 4.154 1.8492 4.154 4.3932v7.8732c0 2.5212-1.248 4.3932-4.154 4.3932-2.88 0-4.128-1.872-4.128-4.3932z"/><path d="m148.238 28.1092v-7.8732c0-2.544 1.2-4.3932 4.081-4.3932 3.024 0 3.865 1.68 3.865 4.0812v1.9212h-2.497v-2.1372c0-1.008-.336-1.5852-1.32-1.5852s-1.393.6972-1.393 1.6812v8.7384c0 .984.409 1.68 1.393 1.68s1.32-.624 1.32-1.584v-3.0012h2.497v2.8092c0 2.328-.961 4.056-3.865 4.056-2.881 0-4.081-1.872-4.081-4.3932z"/><path d="m163.047 25.1326h-2.641v7.1772h-2.736v-16.2756h2.736v6.8892h2.641v-6.8892h2.76v16.2756h-2.76z"/><path d="m67.2681 38.835-3.0972 16.2756h-2.9773l-3.0959-16.2756h2.7839l1.8732 11.3544h.0229l1.9211-11.3544z"/><path d="m71.442 36.1943h2.3292v2.064h-2.3292zm-1.488 13.7544h2.1839l-1.0799-6.5292h-.0252zm-1.4172-13.7544h2.3291v2.064h-2.3291zm-2.016 18.9156 3.0719-16.2756h3.1213l3.0971 16.2756h-2.8092l-.5039-2.976h-2.9053l-.4787 2.976z"/><path d="m76.9353 38.835h2.7372v14.0436h3.264v2.232h-6.0012z"/><path d="m86.9218 47.7894v5.0892h1.2012c.9108 0 1.344-.456 1.344-1.32v-2.4492c0-.864-.4092-1.32-1.3692-1.32zm0-2.0892h.96c.8892 0 1.296-.4548 1.296-1.32v-1.992c0-.888-.4068-1.32-1.32-1.32h-.936zm-2.7372-6.8652h3.9612c2.736 0 3.6492 1.2732 3.6492 3.5772v1.656c0 1.3692-.5052 2.232-1.632 2.5932 1.3668.312 2.04 1.224 2.04 2.712v2.1612c0 2.304-1.032 3.576-3.7692 3.576h-4.2492z"/><path d="m93.5684 38.835h6.5296v2.2332h-3.7936v4.656h2.7132v2.2092h-2.7132v4.9452h3.7936v2.232h-6.5296z"/><path d="m101.559 38.835h6.41v2.2332h-3.674v4.656h2.738v2.2092h-2.738v7.1772h-2.736z"/><path d="m111.903 38.835h-2.736v16.2756h2.736z"/><path d="m115.791 44.8842v10.2264h-2.305v-16.2756h2.688l2.953 9.3384v-9.3384h2.282v16.2756h-2.4z"/><path d="m125.273 44.8842v10.2264h-2.306v-16.2756h2.688l2.954 9.3384v-9.3384h2.28v16.2756h-2.4z"/><path d="m135.447 49.9494h2.184l-1.08-6.5292h-.025zm-3.433 5.1612 3.072-16.2756h3.121l3.098 16.2756h-2.81l-.504-2.976h-2.905l-.479 2.976z"/><path d="m144.734 44.8842v10.2264h-2.305v-16.2756h2.689l2.954 9.3384v-9.3384h2.28v16.2756h-2.4z"/><path d="m155.798 52.8786c1.127 0 1.56-.672 1.56-1.656v-8.5224c0-.96-.433-1.632-1.56-1.632h-1.153v11.8104zm4.296-9.6744v7.5384c0 2.496-1.032 4.368-3.961 4.368h-4.224v-16.2756h4.224c2.929 0 3.961 1.8492 3.961 4.3692z"/><path d="m161.653 38.835h6.529v2.2332h-3.793v4.656h2.713v2.2092h-2.713v4.9452h3.793v2.232h-6.529z"/></g></svg>