<svg fill="none" height="192" viewBox="0 0 192 192" width="192" xmlns="http://www.w3.org/2000/svg"><path d="m192 0h-192v192h192z" fill="#c5192d"/><g fill="#fff"><path d="m26.4829 43.6938 5.8573-16.0224h.0588v16.0224zm5.8009 11.4264h6.2016v-6.3168h2.6436v-5.1096h-2.6436v-27.5112h-6.4332l-11.3112 28.6008v4.02h11.5428z"/><path d="m87.6621 103.546-34.6345-19.9981v64.6921l34.6345 10.449z"/><path d="m91.4712 103.679v55.034l34.8578-10.481v-64.6822z"/><path d="m153.517 81.9097c0-2.2644-1.836-4.0992-4.094-4.0992-2.267 0-4.1 1.8348-4.1 4.0992v4.4172h8.194z"/><path d="m146.34 147.092h-1.017l4.099 14.322 4.092-14.322h-1.017 1.017v-57.5568h-8.193v57.5568z"/><path d="m133.769 86.3264-3.713-2.9328v66.6014l-38.4819 12.434h-3.912l-38.3112-10.703v-68.3324l-3.7152 2.9328v68.0056l41.8501 11.586h4.2611l38.6111-12.26 3.411-1.003z"/><path d="m61.3223 23.6192h3.8904v8.6892h-1.9692v-1.776c-.36 1.224-1.128 1.968-2.6172 1.968-2.352 0-3.432-1.872-3.432-4.3932v-7.8732c0-2.544 1.2253-4.3932 4.1053-4.3932 3.024 0 3.9131 1.6812 3.9131 4.0812v1.44h-2.496v-1.656c0-1.008-.3852-1.584-1.3692-1.584s-1.4171.696-1.4171 1.68v8.7384c0 .984.4092 1.68 1.344 1.68.8892 0 1.3464-.504 1.3464-1.56v-2.8812h-1.2985z"/><path d="m72.3157 28.5404v-8.7384c0-.984-.4332-1.68-1.4172-1.68-.9601 0-1.392.696-1.392 1.68v8.7384c0 .984.4319 1.68 1.392 1.68.984 0 1.4172-.696 1.4172-1.68zm-5.5452-.4332v-7.8732c0-2.544 1.2479-4.3932 4.128-4.3932 2.9052 0 4.1532 1.8492 4.1532 4.3932v7.8732c0 2.5212-1.248 4.3932-4.1532 4.3932-2.8801 0-4.128-1.872-4.128-4.3932z"/><path d="m80.498 30.0768c1.1268 0 1.5601-.672 1.5601-1.656v-8.5224c0-.96-.4333-1.632-1.5601-1.632h-1.1532v11.8104zm4.296-9.6744v7.5384c0 2.496-1.0319 4.368-3.9611 4.368h-4.224v-16.2756h4.224c2.9292 0 3.9611 1.8492 3.9611 4.3692z"/><path d="m96.8187 16.0332v12.3144c0 2.5212-1.08 4.1532-3.8652 4.1532-2.8812 0-4.0812-1.632-4.0812-4.1532v-12.3144h2.7372v12.5796c0 .96.384 1.608 1.344 1.608.9612 0 1.3452-.648 1.3452-1.608v-12.5796z"/><path d="m98.0649 16.0332h7.2731v2.2332h-2.257v14.0424h-2.76v-14.0424h-2.2561z"/><path d="m109.344 24.9876v5.0892h1.201c.912 0 1.344-.456 1.344-1.32v-2.4492c0-.864-.409-1.32-1.368-1.32zm0-2.0892h.961c.888 0 1.296-.4548 1.296-1.32v-1.992c0-.888-.408-1.32-1.321-1.32h-.936zm-2.736-6.8652h3.961c2.736 0 3.649 1.2732 3.649 3.5772v1.656c0 1.3692-.505 2.232-1.633 2.5932 1.368.312 2.04 1.224 2.04 2.712v2.1612c0 2.304-1.032 3.576-3.768 3.576h-4.249z"/><path d="m118.727 16.0332h-2.736v16.2756h2.736z"/><path d="m120.312 16.0332h2.736v14.0436h3.265v2.232h-6.001z"/><path d="m131.449 30.0768c1.127 0 1.56-.672 1.56-1.656v-8.5224c0-.96-.433-1.632-1.56-1.632h-1.153v11.8104zm4.296-9.6744v7.5384c0 2.496-1.032 4.368-3.961 4.368h-4.224v-16.2756h4.224c2.929 0 3.961 1.8492 3.961 4.3692z"/><path d="m139.609 22.0824v10.2264h-2.305v-16.2756h2.688l2.953 9.3384v-9.3384h2.28v16.2756h-2.4z"/><path d="m149.52 16.0332h-2.738v16.2756h2.738z"/><path d="m153.408 22.0824v10.2264h-2.305v-16.2756h2.688l2.953 9.3384v-9.3384h2.28v16.2756h-2.4z"/><path d="m164.712 23.6192h3.889v8.6892h-1.969v-1.776c-.36 1.224-1.128 1.968-2.616 1.968-2.352 0-3.433-1.872-3.433-4.3932v-7.8732c0-2.544 1.225-4.3932 4.105-4.3932 3.025 0 3.913 1.6812 3.913 4.0812v1.44h-2.496v-1.656c0-1.008-.384-1.584-1.369-1.584-.984 0-1.416.696-1.416 1.68v8.7384c0 .984.408 1.68 1.344 1.68.888 0 1.345-.504 1.345-1.56v-2.8812h-1.297z"/><path d="m57.1943 38.833h6.4093v2.2332h-3.6732v4.656h2.7384v2.2092h-2.7384v7.1772h-2.7361z"/><path d="m68.9785 36.1924h2.3292v2.064h-2.3292zm1.1292 15.1476v-8.7384c0-.984-.4332-1.68-1.4172-1.68-.96 0-1.392.696-1.392 1.68v8.7384c0 .984.432 1.68 1.392 1.68.984 0 1.4172-.696 1.4172-1.68zm-4.0332-15.1476h2.3292v2.064h-2.3292zm-1.512 14.7144v-7.8732c0-2.544 1.248-4.3932 4.128-4.3932 2.9052 0 4.1532 1.8492 4.1532 4.3932v7.8732c0 2.5212-1.248 4.3932-4.1532 4.3932-2.88 0-4.128-1.872-4.128-4.3932z"/><path d="m77.1369 41.0662v5.0652h.9132c.936 0 1.344-.4812 1.344-1.3452v-2.4c0-.888-.408-1.32-1.344-1.32zm0 6.5772v7.4652h-2.736v-16.2756h3.9853c2.76 0 3.7692 1.368 3.7692 3.6492v2.0892c0 1.7508-.6252 2.784-2.1852 3.144l2.616 7.3932h-2.8801z"/><path d="m89.1639 49.9474h2.184l-1.08-6.5292h-.0252zm-3.4344 5.1612 3.0732-16.2756h3.12l3.0984 16.2756h-2.8092l-.504-2.976h-2.9052l-.48 2.976z"/><path d="m96.145 38.833h2.7361v14.0436h3.2649v2.232h-6.001z"/><path d="m103.392 38.833h2.736v14.0436h3.265v2.232h-6.001z"/><path d="m113.641 49.9474h2.184l-1.08-6.5292h-.024zm-3.433 5.1612 3.072-16.2756h3.121l3.098 16.2756h-2.81l-.504-2.976h-2.905l-.479 2.976z"/></g></svg>