<svg fill="none" height="82" viewBox="0 0 100 82" width="100" xmlns="http://www.w3.org/2000/svg"><g fill="#000"><path d="m38.9563 24.0114-32.1043-18.53702v59.96602l32.1043 9.6862z"/><path d="m42.4869 24.1338v51.0139l32.3111-9.7151v-59.95709z"/><path d="m100 3.95597c0-2.09897-1.7019-3.79972-3.7953-3.79972-2.1012 0-3.7997 1.70075-3.7997 3.79972v4.09449h7.595z"/><path d="m93.3472 64.3767h-.9422l3.7997 13.2757 3.7931-13.2757v-53.352h-7.595v53.352z"/><path d="m81.6943 8.04946-3.4416-2.71855v61.73569l-35.6703 11.526h-3.6262l-35.51247-9.9209v-63.34079l-3.44373 2.71855v63.03714l38.7927 10.7396h3.9498l35.7906-11.3636 3.1612-.9299z"/></g></svg>