<svg fill="none" height="136" viewBox="0 0 100 136" width="100" xmlns="http://www.w3.org/2000/svg"><g fill="#000"><path d="m41.2624 88.853c-16.7476 0-30.3683-13.6255-30.3683-30.3698 0-16.7491 13.6207-30.373 30.3683-30.373 16.7491 0 30.3729 13.6239 30.3729 30.373 0 16.7443-13.6238 30.3698-30.3729 30.3698zm58.3296-88.026828h-31.504c-.2158 0-.4001.177998-.4001.400098v10.46873c0 .2253.1843.4033.4001.4033h12.5433l-13.9279 13.9326c-7.0159-5.5132-15.8449-8.8116-25.441-8.8116-22.7491 0-41.2624 18.5101-41.2624 41.2639 0 20.947 15.6952 38.282 35.9366 40.9047v12.0641h-12.4252c-.2316 0-.4064.178-.4064.397v11.222c0 .224.1748.4.4064.4h12.4252v11.872c0 .223.1796.401.4001.401h11.2154c.2237 0 .4064-.178.4064-.401v-11.872h12.4252c.2221 0 .4001-.176.4001-.4v-11.222c0-.219-.178-.397-.4001-.397h-12.4252v-12.2594c19.5782-3.2118 34.5662-20.2381 34.5662-40.7094 0-8.8322-2.796-17.0169-7.5373-23.7335l13.7309-13.7342v11.7179c0 .2205.1843.4001.4064.4001h10.4673c.2237 0 .408-.1796.408-.4001v-31.50713c0-.2221-.1843-.400098-.408-.400098z"/><path d="m59.8151 46.016h-36.8392c-.2221 0-.4002.1638-.4002.3592v8.9187c0 .2079.1781.3655.4002.3655h36.8392c.2284 0 .4064-.1576.4064-.3655v-8.9187c0-.1954-.178-.3592-.4064-.3592z"/><path d="m59.8151 61.9398h-36.8392c-.2221 0-.4002.1685-.4002.3717v8.9173c0 .2.1781.3607.4002.3607h36.8392c.2284 0 .4064-.1607.4064-.3607v-8.9173c0-.2032-.178-.3717-.4064-.3717z"/></g></svg>