<svg fill="none" height="192" viewBox="0 0 192 192" width="192" xmlns="http://www.w3.org/2000/svg"><path d="m192 0h-192v192h192z" fill="#ff3a21"/><g fill="#fff"><path d="m32.4585 28.5118c-2.5836 0-4.4795.9168-5.5127 2.6988h-.0589v-9.7056h11.2572v-5.34h-17.226v21.9384h5.9688v-.8652c0-2.2968 1.0368-3.5604 2.8716-3.5604 2.0112 0 2.8164 1.3812 2.8164 3.5064v9.4176c0 2.0688-.7475 3.5028-2.7575 3.5028-2.2416 0-3.0421-1.4928-3.0421-3.7884v-4.8828h-5.9772v4.422c0 5.9148 2.3557 9.7056 9.0193 9.7056 6.6048 0 9.3023-3.5028 9.3023-8.9016v-9.534c0-6.1452-3.1572-8.6136-6.6612-8.6136z"/><path d="m97.8864 140.131c-12.7584 0-23.1348-10.38-23.1348-23.136 0-12.76 10.3764-23.1385 23.1348-23.1385 12.7596 0 23.1386 10.3785 23.1386 23.1385 0 12.756-10.379 23.136-23.1386 23.136zm44.4356-67.0597h-24c-.164 0-.304.1356-.304.3048v7.9752c0 .1716.14.3072.304.3072h9.556l-10.61 10.614c-5.345-4.2-12.071-6.7128-19.3816-6.7128-17.3304 0-31.434 14.1012-31.434 31.4353 0 15.958 11.9568 29.164 27.3768 31.162v9.19h-9.4656c-.1764 0-.3096.136-.3096.303v8.548c0 .171.1332.305.3096.305h9.4656v9.045c0 .169.1368.305.3048.305h8.544c.17 0 .31-.136.31-.305v-9.045h9.465c.169 0 .305-.134.305-.305v-8.548c0-.167-.136-.303-.305-.303h-9.465v-9.339c14.914-2.447 26.332-15.418 26.332-31.013 0-6.729-2.13-12.964-5.742-18.0805l10.461-10.4628v8.9268c0 .168.14.3048.309.3048h7.974c.171 0 .311-.1368.311-.3048v-24.0024c0-.1692-.14-.3048-.311-.3048z"/><path d="m112.02 107.497h-28.0643c-.1692 0-.3048.125-.3048.274v6.794c0 .158.1356.278.3048.278h28.0643c.174 0 .31-.12.31-.278v-6.794c0-.149-.136-.274-.31-.274z"/><path d="m112.02 119.628h-28.0643c-.1692 0-.3048.128-.3048.283v6.793c0 .153.1356.275.3048.275h28.0643c.174 0 .31-.122.31-.275v-6.793c0-.155-.136-.283-.31-.283z"/><path d="m64.0904 16.0332v12.5796c0 2.352-1.032 3.888-3.7692 3.888-2.832 0-3.6-1.56-3.6-3.6252v-3.24h2.5919v3.288c0 .8172.2881 1.2972 1.0081 1.2972.7452 0 1.0332-.48 1.0332-1.3212v-12.8664z"/><path d="m69.8734 13.3936h2.3292v2.064h-2.3292zm-1.4881 13.7544h2.1853l-1.0812-6.5292h-.0241zm-1.416-13.7544h2.328v2.064h-2.328zm-2.0172 18.9156 3.0721-16.2756h3.1212l3.0972 16.2756h-2.8092l-.5041-2.976h-2.9051l-.4788 2.976z"/><path d="m82.9053 21.7476h-.072l-1.8492 10.5612h-1.2708l-2.0412-10.5612h-.0479v10.5612h-2.256v-16.2756h3.1932l1.7748 9.1704h.0252l1.584-9.1704h3.4571v16.2756h-2.4972z"/><path d="m86.8159 28.8044v-2.1852h2.5453v2.2332c0 .912.408 1.44 1.344 1.44.864 0 1.2479-.576 1.2479-1.44v-.6252c0-.9348-.384-1.512-1.2252-2.304l-1.6068-1.608c-1.5612-1.5372-2.2812-2.472-2.2812-4.3452v-.552c0-2.0172 1.1761-3.5772 3.8401-3.5772 2.7372 0 3.8171 1.3452 3.8171 3.6972v1.32h-2.4959v-1.416c0-.936-.432-1.392-1.296-1.392-.7692 0-1.2961.432-1.2961 1.344v.336c0 .912.5041 1.4412 1.2961 2.208l1.7519 1.7292c1.488 1.512 2.2092 2.424 2.2092 4.2252v.792c0 2.232-1.2011 3.816-3.9863 3.816-2.784 0-3.8641-1.56-3.8641-3.696z"/><path d="m95.4319 16.0332h7.2741v2.2332h-2.257v14.0424h-2.7611v-14.0424h-2.256z"/><path d="m107.265 13.3936h2.328v2.064h-2.328zm-1.489 13.7544h2.185l-1.081-6.5292h-.024zm-1.416-13.7544h2.328v2.064h-2.328zm-2.017 18.9156 3.073-16.2756h3.12l3.097 16.2756h-2.809l-.503-2.976h-2.905l-.48 2.976z"/><path d="m112.759 16.0332h2.736v14.0436h3.265v2.232h-6.001z"/><path d="m120.007 16.0332h2.736v14.0436h3.265v2.232h-6.001z"/><path d="m131.145 30.0768c1.127 0 1.56-.672 1.56-1.656v-8.5224c0-.96-.433-1.632-1.56-1.632h-1.153v11.8104zm4.296-9.6744v7.5384c0 2.496-1.032 4.368-3.961 4.368h-4.224v-16.2756h4.224c2.929 0 3.961 1.8492 3.961 4.3692z"/><path d="m142.377 25.1316h-2.641v7.1772h-2.736v-16.2756h2.736v6.8892h2.641v-6.8892h2.76v16.2756h-2.76z"/><path d="m146.696 16.0332h6.529v2.2332h-3.793v4.656h2.713v2.2092h-2.713v4.9452h3.793v2.232h-6.529z"/><path d="m154.376 16.0332h7.274v2.2332h-2.257v14.0424h-2.761v-14.0424h-2.256z"/></g></svg>