<svg fill="none" height="192" viewBox="0 0 192 192" width="192" xmlns="http://www.w3.org/2000/svg"><path d="m192 0h-192v192h192z" fill="#26bde2"/><g fill="#fff"><path d="m25.8373 39.2635c.1152-2.1804 1.0344-3.5592 3.1008-3.5592 2.238 0 3.1007 1.3788 3.1007 3.906v6.7776c0 2.4672-.9155 3.9048-3.1571 3.9048-2.184 0-3.0444-1.494-3.0444-3.9048zm3.0444 16.3704c6.9468 0 9.6468-3.792 9.6468-9.8232v-5.7432c0-6.3732-2.526-9.5892-7.2372-9.5892-2.7564 0-4.4196 1.266-5.3976 3.1596h-.0564v-8.3856c0-2.3556.7476-4.02 3.1008-4.02s3.0443 1.38 3.0443 3.7908v2.5836h5.9725v-2.0664c0-5.7444-1.896-9.762-9.1308-9.762-6.8916 0-9.4764 4.4196-9.4764 10.5072v18.9516c0 6.0312 2.6412 10.3968 9.534 10.3968z"/><path d="m126.928 93.0649c-1.898-.8364-4.304-.5352-6.616.402-8.692 3.5232-14.608 4.7904-23.7512 1.9272-5.7576-1.8024-11.1444-5.5764-17.5128-3.2784-4.2252 1.5204-8.1636 2.97-12.9408 2.9328l-2.76-14.148h65.5658zm-22.223 42.0121s-3.182 3.271-8.3602 2.917c-5.1888.354-8.3688-2.917-8.3688-2.917-5.2488-5.243-3.3756-11.767-1.5492-15.137 1.1292-2.112 9.1932-14.222 9.8868-15.252v-.081s.012.015.0312.039l.0288-.039v.081c.6744 1.03 8.7514 13.14 9.8794 15.252 1.829 3.37 3.696 9.894-1.548 15.137zm27.076-56.9893c-.163-.1776-.384-.2772-.634-.2772h-70.0569c-.2424 0-.4645.0996-.6289.2772-.1536.1956-.2148.4368-.1764.6624l11.7709 71.1869c.0648.393.4091.686.8075.686h14.4457l.9876 11.594-6.078.008 14.1444 14.144 14.1781-14.177-6.077.007.986-11.576h14.7c.406 0 .744-.293.804-.698l11.013-71.1749c.037-.2436-.035-.4776-.186-.6624z"/><path d="m57.564 18.2664v5.0652h.9121c.9372 0 1.3452-.4812 1.3452-1.3452v-2.4c0-.888-.408-1.32-1.3452-1.32zm0 6.5772v7.4652h-2.7371v-16.2756h3.9864c2.7588 0 3.768 1.368 3.768 3.6492v2.0892c0 1.7508-.624 2.784-2.1852 3.144l2.6172 7.3932h-2.8812z"/><path d="m64.0684 16.0332h6.5292v2.2332h-3.7933v4.656h2.7133v2.2092h-2.7133v4.9452h3.7933v2.232h-6.5292z"/><path d="m74.3642 22.0824v10.2264h-2.3051v-16.2756h2.688l2.9532 9.3384v-9.3384h2.28v16.2756h-2.4z"/><path d="m81.2271 16.0332h7.2743v2.2332h-2.2572v14.0424h-2.7612v-14.0424h-2.2559z"/><path d="m101.052 16.0332-3.0969 16.2756h-2.9772l-3.0961-16.2756h2.7852l1.872 11.3544h.024l1.92-11.3544z"/><path d="m103.738 27.1476h2.184l-1.08-6.5292h-.024zm-3.433 5.1612 3.072-16.2756h3.121l3.097 16.2756h-2.809l-.504-2.976h-2.905l-.479 2.976z"/><path d="m109.21 16.0332h7.273v2.2332h-2.257v14.0424h-2.76v-14.0424h-2.256z"/><path d="m117.44 16.0332h7.275v2.2332h-2.257v14.0424h-2.762v-14.0424h-2.256z"/><path d="m125.985 16.0332h6.53v2.2332h-3.793v4.656h2.712v2.2092h-2.712v4.9452h3.793v2.232h-6.53z"/><path d="m136.281 22.0824v10.2264h-2.306v-16.2756h2.69l2.953 9.3384v-9.3384h2.28v16.2756h-2.4z"/><path d="m151.524 28.5404v-8.7384c0-.984-.432-1.68-1.428-1.68-.948 0-1.392.696-1.392 1.68v8.7384c0 .984.444 1.68 1.392 1.68.996 0 1.428-.696 1.428-1.68zm-5.556-.4332v-7.8732c0-2.544 1.248-4.3932 4.128-4.3932 2.916 0 4.164 1.8492 4.164 4.3932v7.8732c0 2.5212-1.248 4.3932-4.164 4.3932-2.88 0-4.128-1.872-4.128-4.3932z"/><path d="m155.82 28.1072v-7.8732c0-2.544 1.2-4.3932 4.08-4.3932 3.024 0 3.864 1.6812 3.864 4.0812v1.9212h-2.496v-2.1372c0-1.008-.336-1.584-1.32-1.584s-1.392.696-1.392 1.68v8.7384c0 .984.408 1.68 1.392 1.68s1.32-.624 1.32-1.584v-3.0012h2.496v2.8092c0 2.328-.96 4.056-3.864 4.056-2.88 0-4.08-1.872-4.08-4.3932z"/><path d="m170.628 25.1316h-2.652v7.1772h-2.736v-16.2756h2.736v6.8892h2.652v-6.8892h2.76v16.2756h-2.76z"/><path d="m54.6831 51.6052v-2.1852h2.5453v2.2332c0 .912.4079 1.44 1.3439 1.44.8641 0 1.2493-.576 1.2493-1.44v-.6252c0-.9348-.3852-1.512-1.2252-2.304l-1.6081-1.608c-1.5612-1.5372-2.2799-2.472-2.2799-4.3452v-.552c0-2.0172 1.1747-3.5772 3.8399-3.5772 2.736 0 3.8173 1.3452 3.8173 3.6972v1.32h-2.4961v-1.416c0-.936-.4331-1.392-1.2972-1.392-.768 0-1.296.432-1.296 1.344v.336c0 .912.504 1.4412 1.296 2.208l1.7521 1.7292c1.4892 1.512 2.2092 2.424 2.2092 4.2252v.792c0 2.232-1.2013 3.816-3.9853 3.816s-3.8652-1.56-3.8652-3.696z"/><path d="m66.732 49.9474h2.1853l-1.0813-6.5292h-.024zm-3.4332 5.1612 3.0732-16.2756h3.12l3.0973 16.2756h-2.8093l-.504-2.976h-2.904l-.48 2.976z"/><path d="m76.02 44.8822v10.2264h-2.3052v-16.2756h2.688l2.9533 9.3384v-9.3384h2.28v16.2756h-2.4z"/><path d="m85.9311 38.833h-2.736v16.2756h2.736z"/><path d="m87.2029 38.833h7.2732v2.2332h-2.256v14.0424h-2.7612v-14.0424h-2.256z"/><path d="m95.7458 38.833h6.5292v2.2332h-3.7932v4.656h2.7132v2.2092h-2.7132v4.9452h3.7932v2.232h-6.5292z"/><path d="m103.425 38.833h7.274v2.2332h-2.257v14.0424h-2.761v-14.0424h-2.256z"/><path d="m114.489 38.833h6.409v2.2332h-3.673v4.656h2.738v2.2092h-2.738v7.1772h-2.736z"/><path d="m126.274 36.1924h2.329v2.064h-2.329zm1.129 15.1476v-8.7384c0-.984-.432-1.68-1.417-1.68-.96 0-1.392.696-1.392 1.68v8.7384c0 .984.432 1.68 1.392 1.68.985 0 1.417-.696 1.417-1.68zm-4.032-15.1476h2.328v2.064h-2.328zm-1.513 14.7144v-7.8732c0-2.544 1.248-4.3932 4.128-4.3932 2.905 0 4.153 1.8492 4.153 4.3932v7.8732c0 2.5212-1.248 4.3932-4.153 4.3932-2.88 0-4.128-1.872-4.128-4.3932z"/><path d="m134.433 41.0662v5.0652h.913c.936 0 1.344-.4812 1.344-1.3452v-2.4c0-.888-.408-1.32-1.344-1.32zm0 6.5772v7.4652h-2.736v-16.2756h3.985c2.76 0 3.769 1.368 3.769 3.6492v2.0892c0 1.7508-.625 2.784-2.185 3.144l2.616 7.3932h-2.88z"/><path d="m146.46 49.9474h2.184l-1.08-6.5292h-.024zm-3.437 5.1612 3.077-16.2756h3.12l3.096 16.2756h-2.808l-.504-2.976h-2.904l-.48 2.976z"/><path d="m153.444 38.833h2.736v14.0436h3.264v2.232h-6z"/><path d="m160.692 38.833h2.736v14.0436h3.264v2.232h-6z"/><path d="m170.941 49.9474h2.184l-1.08-6.5292h-.025zm-3.432 5.1612 3.072-16.2756h3.12l3.095 16.2756h-2.807l-.505-2.976h-2.903l-.48 2.976z"/></g></svg>