<svg fill="none" height="139" viewBox="0 0 100 139" width="100" xmlns="http://www.w3.org/2000/svg"><path d="m92.9592 22.0176c-2.6476-1.1664-6.0031-.7464-9.2264.5607-12.1234 4.9136-20.3741 6.6809-33.1251 2.6878-8.0298-2.5138-15.5425-7.7772-24.4241-4.5723-5.8927 2.1205-11.3854 4.1421-18.04787 4.0903l-3.8492-19.73149h91.44077zm-30.9929 58.5919s-4.4384 4.5621-11.6598 4.0684c-7.2366.4937-11.6715-4.0684-11.6715-4.0684-7.3203-7.3119-4.7078-16.4111-2.1607-21.1105 1.5749-2.9455 12.8213-19.8352 13.7886-21.2711v-.1138s.0168.0217.0436.0552l.0401-.0552v.1138c.9406 1.4359 12.2054 18.3256 13.7786 21.2711 2.5505 4.6994 5.1547 13.7986-2.1589 21.1105zm37.7609-79.47975c-.2276-.247687-.5356-.386586-.8837-.386586h-97.70493c-.338066 0-.647758.138899-.877037.386586-.214218.27279-.2995246.60919-.2459702.92382l16.4161372 99.27943c.0904.549.5706.958 1.1263.958h20.1465l1.3773 16.17-8.4766.01 19.7264 19.726 19.7733-19.771-8.475.01 1.3757-16.145h20.5013c.5656 0 1.0376-.409 1.1212-.974l15.3584-99.26343c.0515-.33974-.0484-.66609-.2593-.92382z" fill="#000"/></svg>