<svg fill="none" height="192" viewBox="0 0 192 192" width="192" xmlns="http://www.w3.org/2000/svg"><path d="m192 0h-192v192h192z" fill="#fcc30b"/><g fill="#fff"><path d="m20.0542 21.0055h10.1088l-8.7312 33.594h6.492l8.5572-32.9052v-6.0312h-16.4268z"/><path d="m96.8759 135.847c-8.1288 0-14.7204-6.589-14.7204-14.72 0-6.607 4.35-12.197 10.3452-14.059v5.48c-3.12 1.594-5.2608 4.832-5.2608 8.579 0 5.323 4.3116 9.637 9.636 9.637 5.3241 0 9.6361-4.314 9.6361-9.637 0-3.756-2.152-7.002-5.286-8.592v-5.475c6.007 1.856 10.373 7.45 10.373 14.067 0 8.131-6.592 14.72-14.7231 14.72zm-2.1-31.623c0-.944.9456-1.98 2.1072-1.98 1.1592 0 2.0964 1.036 2.0964 1.98v9.716c0 .937-.9372 1.964-2.0964 1.964-1.1616 0-2.1072-1.027-2.1072-1.964zm2.0952-11.182c-15.6288 0-28.2996 12.672-28.2996 28.302 0 15.637 12.6708 28.306 28.2996 28.306 15.6299 0 28.3009-12.669 28.3009-28.306 0-15.63-12.671-28.302-28.3009-28.302z"/><path d="m64.3837 121.097c0-1.283-1.1364-2.324-2.1756-2.324h-12.3936c-1.0452 0-2.1924 1.041-2.1924 2.324 0 1.286 1.1472 2.331 2.1924 2.331h12.3936c1.0392 0 2.1756-1.045 2.1756-2.331z"/><path d="m146.134 121.097c0-1.283-1.137-2.324-2.175-2.324h-12.393c-1.044 0-2.191 1.041-2.191 2.324 0 1.286 1.147 2.331 2.191 2.331h12.393c1.038 0 2.175-1.045 2.175-2.331z"/><path d="m96.8831 88.6071c1.2804 0 2.3208-1.1364 2.3208-2.1744v-12.3948c0-1.0452-1.0404-2.1912-2.3208-2.1912-1.2852 0-2.3328 1.146-2.3328 2.1912v12.3948c0 1.038 1.0476 2.1744 2.3328 2.1744z"/><path d="m96.8831 170.356c1.2804 0 2.3208-1.136 2.3208-2.176v-12.392c0-1.044-1.0404-2.192-2.3208-2.192-1.2852 0-2.3328 1.148-2.3328 2.192v12.392c0 1.04 1.0476 2.176 2.3328 2.176z"/><path d="m68.6771 104.957c.6384-1.115.1692-2.581-.7332-3.096l-10.7568-6.1559c-.9072-.5208-2.4192-.1872-3.0564.9252-.6384 1.1172-.162 2.5932.7452 3.114l10.7568 6.1557c.9.516 2.406.174 3.0444-.943z"/><path d="m139.63 145.563c.637-1.112.166-2.581-.734-3.096l-10.756-6.156c-.908-.52-2.42-.187-3.057.928-.638 1.114-.162 2.593.744 3.111l10.757 6.156c.901.516 2.406.173 3.046-.943z"/><path d="m113.023 92.9025c1.114.636 2.578.1668 3.095-.7332l6.156-10.7568c.521-.9084.188-2.4204-.925-3.0576-1.116-.6396-2.596-.162-3.114.7452l-6.156 10.7556c-.516.9024-.174 2.4084.944 3.0468z"/><path d="m72.4165 163.853c1.1124.636 2.58.167 3.0948-.734l6.156-10.756c.5196-.907.186-2.421-.9264-3.057-1.1148-.639-2.5944-.162-3.1128.744l-6.156 10.756c-.516.9-.1716 2.409.9444 3.047z"/><path d="m80.6833 92.9291c1.1124-.6396 1.4472-2.1432.9288-3.0432l-6.1776-10.7448c-.5232-.906-1.9932-1.38-3.1068-.7404-1.1172.6396-1.4496 2.1564-.9276 3.0624l6.1776 10.7424c.5196.9 1.9884 1.3656 3.1056.7236z"/><path d="m121.435 163.798c1.113-.639 1.447-2.143.931-3.042l-6.178-10.744c-.524-.906-1.995-1.383-3.108-.742-1.116.64-1.45 2.155-.927 3.062l6.178 10.744c.517.899 1.989 1.363 3.104.722z"/><path d="m125.051 104.907c.638 1.111 2.142 1.446 3.042.929l10.742-6.1781c.907-.522 1.386-1.9944.745-3.1056-.642-1.116-2.156-1.4508-3.062-.9288l-10.744 6.1785c-.9.518-1.365 1.99-.723 3.105z"/><path d="m54.1822 145.66c.6384 1.111 2.142 1.446 3.042.927l10.7424-6.177c.9072-.521 1.3848-1.993.7428-3.106-.6384-1.116-2.1564-1.449-3.06-.93l-10.7448 6.179c-.9.517-1.3632 1.991-.7224 3.107z"/><path d="m59.55 24.4246h-2.6424v7.1772h-2.736v-16.2756h2.736v6.8904h2.6424v-6.8904h2.7588v16.2756h-2.7588z"/><path d="m68.0447 14.007c.456 0 .744-.336.744-.792s-.288-.7919-.744-.7919-.744.3359-.744.7919.288.792.744.792zm-1.176 12.4357h2.184l-1.08-6.5304h-.024zm1.176-15.0277c1.08 0 1.824.816 1.824 1.8s-.744 1.8013-1.824 1.8013-1.848-.8173-1.848-1.8013.768-1.8 1.848-1.8zm-4.6092 20.1877 3.072-16.2756h3.1212l3.0972 16.2756h-2.8092l-.504-2.976h-2.9052l-.4788 2.976z"/><path d="m73.8503 15.3262h2.7372v14.0436h3.264v2.232h-6.0012z"/><path d="m81.0996 15.3262h2.736v14.0436h3.2652v2.232h-6.0012z"/><path d="m91.0837 24.2806v5.0892h1.2012c.912 0 1.344-.456 1.344-1.32v-2.4492c0-.864-.4092-1.32-1.3692-1.32zm0-2.088h.9612c.888 0 1.296-.456 1.296-1.32v-1.9932c0-.888-.408-1.32-1.3212-1.32h-.936zm-2.736-6.8664h3.96c2.7372 0 3.6492 1.2732 3.6492 3.5772v1.656c0 1.3692-.5052 2.2332-1.632 2.5932 1.368.312 2.04 1.224 2.04 2.712v2.1612c0 2.304-1.032 3.576-3.768 3.576h-4.2492z"/><path d="m100.612 26.4418h2.185l-1.081-6.5304h-.024zm-3.4335 5.16 3.0715-16.2756h3.122l3.097 16.2756h-2.809l-.504-2.976h-2.906l-.4783 2.976z"/><path d="m110.33 17.5594v5.0652h.914c.936 0 1.344-.48 1.344-1.3452v-2.4c0-.888-.408-1.32-1.344-1.32zm0 6.5772v7.4652h-2.736v-16.2756h3.986c2.76 0 3.769 1.3692 3.769 3.6492v2.0892c0 1.752-.625 2.784-2.187 3.144l2.618 7.3932h-2.88z"/><path d="m119.354 15.3262h6.531v2.2332h-3.794v4.6572h2.714v2.208h-2.714v4.9452h3.794v2.232h-6.531z"/><path d="m129.653 21.3754v10.2264h-2.305v-16.2756h2.688l2.953 9.3384v-9.3384h2.281v16.2756h-2.4z"/><path d="m136.826 15.3262h6.531v2.2332h-3.794v4.6572h2.712v2.208h-2.712v4.9452h3.794v2.232h-6.531z"/><path d="m147.554 17.5594v5.0652h.914c.936 0 1.344-.48 1.344-1.3452v-2.4c0-.888-.408-1.32-1.344-1.32zm0 6.5772v7.4652h-2.736v-16.2756h3.986c2.76 0 3.769 1.3692 3.769 3.6492v2.0892c0 1.752-.625 2.784-2.187 3.144l2.618 7.3932h-2.88z"/><path d="m158.186 22.9122h3.89v8.6892h-1.968v-1.776c-.36 1.224-1.13 1.9692-2.618 1.9692-2.352 0-3.432-1.8732-3.432-4.3944v-7.8732c0-2.544 1.223-4.3932 4.106-4.3932 3.024 0 3.912 1.6812 3.912 4.0812v1.44h-2.496v-1.656c0-1.008-.384-1.584-1.368-1.584-.986 0-1.418.696-1.418 1.68v8.7384c0 .984.41 1.68 1.344 1.68.888 0 1.346-.504 1.346-1.56v-2.88h-1.298z"/><path d="m166.371 15.3262h-2.737v16.2756h2.737z"/><path d="m54.1716 38.126h6.4092v2.2332h-3.6732v4.6572h2.7384v2.208h-2.7384v7.1772h-2.736z"/><path d="m65.9558 35.4873h2.3292v2.064h-2.3292zm1.1292 15.1477v-8.7385c0-.984-.4332-1.68-1.4172-1.68-.96 0-1.392.696-1.392 1.68v8.7385c0 .984.432 1.68 1.392 1.68.984 0 1.4172-.696 1.4172-1.68zm-4.0332-15.1477h2.3292v2.064h-2.3292zm-1.512 14.7144v-7.8732c0-2.544 1.248-4.3932 4.128-4.3932 2.9052 0 4.1532 1.8492 4.1532 4.3932v7.8732c0 2.5213-1.248 4.3945-4.1532 4.3945-2.88 0-4.128-1.8732-4.128-4.3945z"/><path d="m74.1144 40.3592v5.0652h.9132c.936 0 1.344-.48 1.344-1.3452v-2.4c0-.888-.408-1.32-1.344-1.32zm0 6.5772v7.4652h-2.736v-16.2756h3.9852c2.76 0 3.7692 1.3692 3.7692 3.6492v2.0892c0 1.752-.6252 2.784-2.1852 3.144l2.616 7.3932h-2.88z"/><path d="m86.1409 49.2416h2.184l-1.08-6.5304h-.0252zm-3.4344 5.16 3.0732-16.2756h3.1212l3.0972 16.2756h-2.8092l-.504-2.976h-2.9052l-.4788 2.976z"/><path d="m93.1223 38.126h2.736v14.0436h3.2652v2.232h-6.0012z"/><path d="m100.369 38.126h2.736v14.0436h3.266v2.232h-6.002z"/><path d="m110.619 49.2416h2.184l-1.081-6.5304h-.023zm-3.434 5.16 3.072-16.2756h3.122l3.097 16.2756h-2.809l-.504-2.976h-2.906l-.478 2.976z"/></g></svg>