<svg fill="none" height="101" viewBox="0 0 100 101" width="100" xmlns="http://www.w3.org/2000/svg"><g fill="#000"><path d="m49.9981 65.1673c-8.2516 0-14.9428-6.689-14.9428-14.9433 0-6.7072 4.4157-12.3814 10.5015-14.272v5.5634c-3.1671 1.6177-5.3403 4.9055-5.3403 8.7086 0 5.4038 4.3768 9.7831 9.7816 9.7831 5.4049 0 9.7816-4.3793 9.7816-9.7831 0-3.8128-2.1841-7.108-5.3658-8.7221v-5.5572c6.0979 1.8833 10.5295 7.5623 10.5295 14.2793 0 8.2543-6.6912 14.9433-14.9453 14.9433zm-2.1317-32.1024c0-.9575.9599-2.01 2.139-2.01 1.1768 0 2.1281 1.0525 2.1281 2.01v9.8635c0 .9514-.9513 1.9942-2.1281 1.9942-1.1791 0-2.139-1.0428-2.139-1.9942zm2.1269-11.3509c-15.865 0-28.7272 12.8639-28.7272 28.7305 0 15.874 12.8622 28.7342 28.7272 28.7342 15.8661 0 28.7284-12.8602 28.7284-28.7342 0-15.8666-12.8623-28.7305-28.7284-28.7305z"/><path d="m17.0149 50.1934c0-1.3022-1.1536-2.3583-2.2085-2.3583h-12.58088c-1.06099 0-2.22552 1.0561-2.22552 2.3583 0 1.3059 1.16453 2.3669 2.22552 2.3669h12.58088c1.0549 0 2.2085-1.061 2.2085-2.3669z"/><path d="m100 50.1934c0-1.3022-1.1536-2.3583-2.2073-2.3583h-12.5808c-1.0598 0-2.2243 1.0561-2.2243 2.3583 0 1.3059 1.1645 2.3669 2.2243 2.3669h12.5808c1.0537 0 2.2073-1.061 2.2073-2.3669z"/><path d="m50.0055 17.2114c1.2998 0 2.3559-1.1536 2.3559-2.2073v-12.58246c0-1.06102-1.0561-2.224374-2.3559-2.224374-1.3046 0-2.368 1.163354-2.368 2.224374v12.58246c0 1.0537 1.0634 2.2073 2.368 2.2073z"/><path d="m50.0055 100.197c1.2998 0 2.3559-1.1534 2.3559-2.2083v-12.58c0-1.0598-1.0561-2.2256-2.3559-2.2256-1.3046 0-2.368 1.1658-2.368 2.2256v12.58c0 1.0549 1.0634 2.2083 2.368 2.2083z"/><path d="m21.3733 33.809c.648-1.1317.1717-2.6203-.7443-3.1429l-10.91933-6.2492c-.92091-.5287-2.45575-.19-3.10258.9392-.64804 1.1341-.16445 2.6325.75646 3.1612l10.91935 6.2492c.9136.5238 2.4423.1766 3.0904-.9575z"/><path d="m93.3976 75.0301c.6469-1.1293.1693-2.6203-.7443-3.1429l-10.9193-6.2493c-.9209-.5274-2.4557-.19-3.1026.9417-.648 1.1317-.1644 2.6325.7553 3.1588l10.9193 6.2491c.9148.5239 2.4424.1755 3.0916-.9574z"/><path d="m66.3893 21.5714c1.1304.6457 2.6165.1694 3.1415-.7443l6.249-10.91963c.5287-.92215.1913-2.45705-.9391-3.10389-1.1329-.64929-2.6349-.16445-3.1611.75648l-6.249 10.91844c-.5238.9161-.1766 2.4449.9587 3.0929z"/><path d="m25.169 93.5964c1.1292.6456 2.619.1693 3.1415-.7455l6.249-10.9185c.5275-.9209.1889-2.4582-.9404-3.1039-1.1316-.648-2.6335-.1644-3.1598.7553l-6.249 10.9197c-.5238.9136-.1742 2.4448.9587 3.0929z"/><path d="m33.5607 21.5992c1.1293-.6493 1.4691-2.1757.9429-3.0893l-6.271-10.90744c-.5311-.91971-2.0233-1.40089-3.1537-.75161-1.1341.64928-1.4715 2.18904-.9416 3.10876l6.2709 10.90499c.5275.9136 2.0185 1.3863 3.1525.7346z"/><path d="m74.9284 93.5401c1.1292-.6492 1.4691-2.1756.9453-3.088l-6.2722-10.9074c-.5311-.9197-2.0245-1.4033-3.155-.7528-1.1328.6493-1.4715 2.1878-.9404 3.1087l6.271 10.9062c.525.9124 2.0196 1.3838 3.1513.7333z"/><path d="m78.5986 33.7575c.648 1.1281 2.1743 1.468 3.0879.9429l10.9047-6.2711c.921-.5299 1.407-2.0246.7565-3.1526-.6517-1.1329-2.189-1.4728-3.1087-.9429l-10.9059 6.2723c-.9136.5251-1.3862 2.0198-.7345 3.1514z"/><path d="m6.65941 75.1282c.64804 1.128 2.17436 1.4679 3.08796.9416l10.90473-6.2711c.9209-.5287 1.4057-2.0233.754-3.1526-.648-1.1329-2.189-1.4715-3.1062-.9441l-10.90718 6.2724c-.9136.525-1.3838 2.0209-.73331 3.1538z"/></g></svg>