<svg fill="none" height="106" viewBox="0 0 100 106" width="100" xmlns="http://www.w3.org/2000/svg"><g fill="#000"><path d="m90.3881 25.2198-21.142 20.1125c-.7971.7942-1.206 1.3781-1.206 3.0224v56.3693c0 .661.5398 1.203 1.206 1.203h21.8392c.6677 0 1.2045-.542 1.2045-1.203v-78.9983c0-.6633-.5206-1.8781-1.9017-.5059z"/><path d="m29.4783 51.4241-21.14641 20.1096c-.79421.7957-1.20455 1.3781-1.20455 3.0195v30.1708c0 .659.54124 1.2 1.20455 1.2h21.84061c.6678 0 1.2046-.541 1.2046-1.2v-52.7954c0-.6662-.5251-1.884-1.8988-.5045z"/><path d="m99.9994.82676c.0076-.160312-.0485-.330925-.178-.45741-.1117-.108836-.2544-.160318-.3927-.172084l-.1161.008842-.1736.008819-16.1901 3.651873-.2926.0294c-.1162.02501-.2265.0809-.3162.16621-.2383.2412-.2383.63094 0 .87067l.1823.18385 3.6975 3.69745-36.685 36.68502-16.943-16.9446c-.1912-.1941-.4957-.1941-.6898 0l-4.5961 4.5976c-.0059 0-.0059.0059-.0059.0059l-27.158908 27.1544c-.1882561.1927-.1882561.503 0 .6913l4.603438 4.602c.18826.1897.49418.1897.68244 0l26.82503-26.8162 12.294 12.2955c.0133.0191.0207.0397.0398.0588l4.5961 4.5946c.1926.1912.5.1912.6897 0l41.6385-41.637 3.8813 3.8814c.2383.2412.628.2412.8633 0 .1133-.1148.1692-.2515.178-.3986l.0015-.053 3.5548-16.52678z"/><path d="m60.0537 54.9524-10.232 10.3158c-.1926.1603-.4765.1544-.656-.025l-9.2701-9.448c-1.6972-1.6899-2.0635-.3192-2.0635.3441v48.5817c0 .662.5339 1.203 1.1987 1.203h21.8436c.6648 0 1.2031-.541 1.2031-1.203v-49.3862c0-.6648-.5236-1.8855-2.0238-.3824z"/></g></svg>