<svg fill="none" height="192" viewBox="0 0 192 192" width="192" xmlns="http://www.w3.org/2000/svg"><path d="m192 0h-192v192h192z" fill="#a21942"/><g fill="#fff"><path d="m31.4448 45.761c0 2.3556-.8616 4.02-3.2148 4.02-2.2992 0-3.1584-1.6644-3.1584-4.02v-6.318c0-2.3532.8592-4.02 3.1584-4.02 2.3532 0 3.2148 1.6668 3.2148 4.02zm-6.1452-21.534c0-2.3568.8064-3.7356 2.9304-3.7356 2.1804 0 2.9868 1.3788 2.9868 3.7356v2.64c0 2.3544-.8064 3.7356-2.9868 3.7356-2.124 0-2.9304-1.3812-2.9304-3.7356zm12.6924 20.8452v-4.2504c0-3.732-1.3188-6.432-4.3644-7.8108 2.5824-1.2612 3.7908-3.558 3.7908-6.7752v-1.6104c0-6.0864-3.1584-9.3588-9.1884-9.3588-5.9712 0-9.0744 3.2724-9.0744 9.3588v1.6104c0 3.1596 1.1508 5.514 3.6744 6.7752-3.0432 1.3788-4.3068 4.0788-4.3068 7.8108v4.2504c0 5.9136 2.8152 10.05 9.7068 10.05 6.9468 0 9.762-4.1364 9.762-10.05z"/><path d="m135.256 110.697-17.25 16.41c-.65.648-.984 1.125-.984 2.466v45.993c0 .539.44.981.984.981h17.819c.545 0 .983-.442.983-.981v-64.456c0-.541-.425-1.532-1.552-.413z"/><path d="m85.5589 132.077-17.2536 16.407c-.648.65-.9828 1.125-.9828 2.464v24.617c0 .537.4416.979.9828.979h17.82c.5448 0 .9828-.442.9828-.979v-43.077c0-.543-.4284-1.537-1.5492-.411z"/><path d="m143.097 90.7939c.006-.1308-.039-.27-.145-.3732-.091-.0888-.207-.1308-.32-.1404l-.095.0072-.142.0072-13.209 2.9796-.239.024c-.095.0204-.185.066-.258.1356-.194.1968-.194.5148 0 .7104l.149.15 3.017 3.0168-29.932 29.9319-13.8239-13.826c-.156-.158-.4044-.158-.5628 0l-3.75 3.752c-.0048 0-.0048.004-.0048.004l-22.1592 22.156c-.1536.157-.1536.41 0 .564l3.756 3.755c.1536.155.4032.155.5568 0l21.8868-21.88 10.0308 10.032c.0108.016.0168.033.0324.048l3.7499 3.749c.157.156.408.156.563 0l33.973-33.972 3.167 3.167c.194.197.512.197.704 0 .093-.094.138-.205.145-.325l.002-.044 2.9-13.4839z"/><path d="m110.506 134.956-8.349 8.417c-.157.13-.388.126-.535-.021l-7.5634-7.709c-1.3848-1.378-1.6836-.26-1.6836.281v39.639c0 .54.4356.981.978.981h17.822c.543 0 .982-.441.982-.981v-40.295c0-.543-.427-1.539-1.651-.312z"/><path d="m56.3461 26.4416h2.1839l-1.0799-6.5293h-.0252zm-3.4333 5.1611 3.0721-16.2756h3.1212l3.0972 16.2756h-2.8093l-.504-2.9772h-2.9051l-.4788 2.9772z"/><path d="m65.6331 21.3763v10.2264h-2.3052v-16.2756h2.6892l2.9532 9.3384v-9.3384h2.28v16.2756h-2.4z"/><path d="m72.6636 28.0981v-2.184h2.5452v2.232c0 .912.408 1.4412 1.344 1.4412.864 0 1.248-.5772 1.248-1.4412v-.624c0-.936-.384-1.512-1.2252-2.304l-1.6068-1.6092c-1.5612-1.536-2.2812-2.472-2.2812-4.344v-.552c0-2.0172 1.176-3.5772 3.84-3.5772 2.7372 0 3.8172 1.344 3.8172 3.6972v1.32h-2.496v-1.416c0-.9372-.432-1.392-1.296-1.392-.7692 0-1.296.4308-1.296 1.344v.3348c0 .9132.504 1.4412 1.296 2.2092l1.752 1.728c1.488 1.5132 2.2092 2.4252 2.2092 4.2252v.792c0 2.2332-1.2012 3.8172-3.9864 3.8172-2.784 0-3.864-1.56-3.864-3.6972z"/><path d="m81.281 15.3271h7.2744v2.232h-2.2572v14.0436h-2.7612v-14.0436h-2.256z"/><path d="m93.1141 12.6875h2.328v2.064h-2.328zm-1.4892 13.7544h2.1852l-1.0812-6.5292h-.024zm-1.416-13.7544h2.328v2.064h-2.328zm-2.0172 18.9156 3.0732-16.2756h3.12l3.096 16.2756h-2.8068l-.504-2.9772h-2.9052l-.48 2.9772z"/><path d="m100.913 21.3763v10.2264h-2.3053v-16.2756h2.6883l2.953 9.3384v-9.3384h2.28v16.2756h-2.4z"/><path d="m111.976 29.3707c1.128 0 1.56-.6732 1.56-1.6572v-8.5211c0-.9612-.432-1.6333-1.56-1.6333h-1.152v11.8116zm4.297-9.6743v7.5372c0 2.496-1.033 4.3691-3.961 4.3691h-4.225v-16.2756h4.225c2.928 0 3.961 1.8481 3.961 4.3693z"/><path d="m120.568 15.3271h-2.737v16.2756h2.737z"/><path d="m126.28 22.9129h3.89v8.6904h-1.969v-1.7772c-.36 1.2252-1.128 1.9692-2.617 1.9692-2.352 0-3.432-1.872-3.432-4.3932v-7.8732c0-2.5452 1.224-4.3932 4.105-4.3932 3.024 0 3.913 1.68 3.913 4.0812v1.44h-2.496v-1.6572c0-1.0068-.385-1.584-1.369-1.584s-1.417.6972-1.417 1.6812v8.7372c0 .9852.409 1.6812 1.344 1.6812.889 0 1.345-.5052 1.345-1.5612v-2.88h-1.297z"/><path d="m134.728 26.4416h2.185l-1.081-6.5293h-.024zm-3.433 5.1611 3.073-16.2756h3.12l3.097 16.2756h-2.809l-.503-2.9772h-2.905l-.48 2.9772z"/><path d="m56.3461 49.2414h2.1839l-1.0799-6.5292h-.0252zm-3.4333 5.1612 3.0721-16.2756h3.1212l3.0972 16.2756h-2.8093l-.504-2.9772h-2.9051l-.4788 2.9772z"/><path d="m66.0651 40.359v5.0652h.912c.9372 0 1.3452-.48 1.3452-1.344v-2.4c0-.888-.408-1.3212-1.3452-1.3212zm0 6.5784v7.4652h-2.7372v-16.2756h3.9864c2.76 0 3.768 1.368 3.768 3.648v2.0892c0 1.752-.624 2.784-2.1852 3.1452l2.6172 7.3932h-2.8812z"/><path d="m75.3036 47.0814v5.0892h1.2012c.912 0 1.344-.456 1.344-1.3212v-2.448c0-.864-.4092-1.32-1.3692-1.32zm0-2.0892h.9612c.888 0 1.296-.456 1.296-1.32v-1.992c0-.888-.408-1.3212-1.3212-1.3212h-.936zm-2.736-6.8652h3.96c2.7372 0 3.6492 1.272 3.6492 3.5772v1.656c0 1.368-.504 2.232-1.632 2.592 1.368.3132 2.04 1.224 2.04 2.7132v2.16c0 2.3052-1.032 3.5772-3.768 3.5772h-4.2492z"/><path d="m81.9519 38.127h6.5292v2.232h-3.7932v4.6572h2.7132v2.208h-2.7132v4.9464h3.7932v2.232h-6.5292z"/><path d="m89.6304 38.127h7.2744v2.232h-2.2572v14.0436h-2.7612v-14.0436h-2.256z"/><path d="m97.7891 50.898v-2.184h2.5449v2.232c0 .912.408 1.4412 1.344 1.4412.864 0 1.248-.5772 1.248-1.4412v-.624c0-.936-.384-1.512-1.224-2.304l-1.609-1.6092c-1.5599-1.536-2.2787-2.472-2.2787-4.3441v-.552c0-2.0172 1.1748-3.5772 3.8397-3.5772 2.736 0 3.817 1.344 3.817 3.6972v1.3201h-2.497v-1.4161c0-.9372-.432-1.392-1.296-1.392-.768 0-1.296.4309-1.296 1.3441v.3347c0 .9132.503 1.4413 1.296 2.2093l1.752 1.728c1.489 1.5132 2.209 2.4252 2.209 4.2252v.792c0 2.2332-1.201 3.8172-3.985 3.8172-2.7837 0-3.8649-1.56-3.8649-3.6972z"/><path d="m115.48 38.127-3.098 16.2756h-2.976l-3.096-16.2756h2.784l1.873 11.3544h.023l1.921-11.3544z"/><path d="m119.341 38.127h-2.736v16.2756h2.736z"/><path d="m120.926 38.127h2.737v14.0436h3.264v2.232h-6.001z"/><path d="m128.173 38.127h2.738v14.0436h3.264v2.232h-6.002z"/><path d="m138.158 46.4802v7.9224h-2.736v-16.2756h2.736v7.1532l2.976-7.1532h2.69l-3.168 7.3212 3.24 8.9544h-2.88z"/><path d="m149.872 50.634v-8.7372c0-.9841-.434-1.6813-1.418-1.6813-.96 0-1.392.6972-1.392 1.6813v8.7372c0 .9852.432 1.6812 1.392 1.6812.984 0 1.418-.696 1.418-1.6812zm-5.547-.432v-7.8732c0-2.5453 1.248-4.3933 4.129-4.3933 2.906 0 4.154 1.848 4.154 4.3933v7.8732c0 2.5212-1.248 4.3932-4.154 4.3932-2.881 0-4.129-1.872-4.129-4.3932z"/><path d="m156.901 40.359v5.0652h.913c.936 0 1.344-.48 1.344-1.344v-2.4c0-.888-.408-1.3212-1.344-1.3212zm0 6.5784v7.4652h-2.736v-16.2756h3.985c2.76 0 3.77 1.368 3.77 3.648v2.0892c0 1.752-.626 2.784-2.187 3.1452l2.617 7.3932h-2.88z"/><path d="m58.8899 73.4347v-8.7372c0-.984-.432-1.6812-1.416-1.6812-.96 0-1.3932.6972-1.3932 1.6812v8.7372c0 .9852.4332 1.6812 1.3932 1.6812.984 0 1.416-.696 1.416-1.6812zm-5.5452-.432v-7.8732c0-2.5452 1.248-4.3932 4.1292-4.3932 2.904 0 4.152 1.848 4.152 4.3932v7.8732c0 2.5212-1.248 4.3932-4.152 4.3932-2.8812 0-4.1292-1.872-4.1292-4.3932z"/><path d="m63.1836 73.0027v-7.8732c0-2.5452 1.2-4.3932 4.0812-4.3932 3.024 0 3.864 1.68 3.864 4.0812v1.92h-2.496v-2.1372c0-1.0068-.336-1.584-1.32-1.584s-1.392.6972-1.392 1.6812v8.7372c0 .9852.408 1.6812 1.392 1.6812s1.32-.624 1.32-1.5852v-3h2.496v2.808c0 2.3292-.9588 4.0572-3.864 4.0572-2.8812 0-4.0812-1.872-4.0812-4.3932z"/><path d="m77.9929 70.0259h-2.6412v7.1784h-2.736v-16.2756h2.736v6.8892h2.6412v-6.8892h2.76v16.2756h-2.76z"/><path d="m84.8318 60.9287h6.5304v2.232h-3.7932v4.6572h2.712v2.208h-2.712v4.9464h3.7932v2.232h-6.5304z"/><path d="m95.5609 69.2819v7.9224h-2.7372v-16.2756h2.7372v7.1532l2.9761-7.1532h2.689l-3.1679 7.3212 3.2399 8.9544h-2.8798z"/><path d="m107.274 73.4347v-8.7372c0-.984-.433-1.6812-1.417-1.6812-.96 0-1.392.6972-1.392 1.6812v8.7372c0 .9852.432 1.6812 1.392 1.6812.984 0 1.417-.696 1.417-1.6812zm-5.546-.432v-7.8732c0-2.5452 1.246-4.3932 4.129-4.3932 2.905 0 4.153 1.848 4.153 4.3932v7.8732c0 2.5212-1.248 4.3932-4.153 4.3932-2.883 0-4.129-1.872-4.129-4.3932z"/><path d="m113.873 66.9779v10.2264h-2.305v-16.2756h2.688l2.953 9.3384v-9.3384h2.28v16.2756h-2.4z"/><path d="m126.593 73.4347v-8.7372c0-.984-.432-1.6812-1.417-1.6812-.959 0-1.392.6972-1.392 1.6812v8.7372c0 .9852.433 1.6812 1.392 1.6812.985 0 1.417-.696 1.417-1.6812zm-5.545-.432v-7.8732c0-2.5452 1.248-4.3932 4.128-4.3932 2.905 0 4.153 1.848 4.153 4.3932v7.8732c0 2.5212-1.248 4.3932-4.153 4.3932-2.88 0-4.128-1.872-4.128-4.3932z"/><path d="m138.424 66.6419h-.071l-1.849 10.5624h-1.272l-2.04-10.5624h-.048v10.5624h-2.258v-16.2756h3.194l1.776 9.1704h.024l1.585-9.1704h3.457v16.2756h-2.498z"/><path d="m145.215 60.9287h-2.737v16.2756h2.737z"/><path d="m146.653 73.6987v-2.184h2.546v2.232c0 .912.408 1.4412 1.344 1.4412.864 0 1.248-.5772 1.248-1.4412v-.624c0-.936-.384-1.512-1.224-2.304l-1.608-1.6092c-1.562-1.536-2.282-2.472-2.282-4.344v-.552c0-2.0172 1.176-3.5772 3.842-3.5772 2.736 0 3.816 1.344 3.816 3.6972v1.32h-2.496v-1.416c0-.9372-.432-1.392-1.296-1.392-.77 0-1.296.4308-1.296 1.344v.3348c0 .9132.504 1.4412 1.296 2.2092l1.752 1.728c1.488 1.5132 2.209 2.4252 2.209 4.2252v.792c0 2.2332-1.201 3.8172-3.985 3.8172-2.786 0-3.866-1.56-3.866-3.6972z"/><path d="m158.677 69.2819v7.9224h-2.736v-16.2756h2.736v7.1532l2.978-7.1532h2.689l-3.169 7.3212 3.241 8.9544h-2.881z"/><path d="m53.033 83.7275h7.2744v2.232h-2.2572v14.0435h-2.7612v-14.0435h-2.256z"/><path d="m64.3129 83.7275h-2.7372v16.2755h2.7372z"/><path d="m65.8958 83.7275h2.7359v14.0448h3.2653v2.2307h-6.0012z"/><path d="m73.1438 83.7275h2.736v14.0448h3.2652v2.2307h-6.0012z"/><path d="m87.7141 83.7275-3.0972 16.2755h-2.9772l-3.096-16.2755h2.784l1.8732 11.3544h.0228l1.9212-11.3544z"/><path d="m91.8875 81.0879h2.3292v2.064h-2.3292zm-1.488 13.7544h2.184l-1.08-6.5292h-.0252zm-1.4172-13.7544h2.3292v2.064h-2.3292zm-2.016 18.9161 3.072-16.2761h3.1212l3.096 16.2761h-2.808l-.504-2.9765h-2.9052l-.4788 2.9765z"/><path d="m99.6386 91.3847-2.4012-7.6572h2.8556l1.514 5.3772 1.56-5.3772h2.593l-2.4 7.7772 2.664 8.4983h-2.857l-1.8-6.1691-1.7284 6.1691h-2.5932z"/><path d="m106.695 83.7275h7.274v2.232h-2.257v14.0435h-2.761v-14.0435h-2.256z"/></g></svg>