<svg fill="none" height="192" viewBox="0 0 192 192" width="192" xmlns="http://www.w3.org/2000/svg"><path d="m192 0h-192v192h192z" fill="#fd6925"/><g fill="#fff"><path d="m31.1762 31.4317c-.114 2.1804-1.032 3.558-3.0984 3.558-2.2356 0-3.0996-1.3776-3.0996-3.9048v-6.7717c0-2.4684.9168-3.9024 3.1572-3.9024 2.1816 0 3.0408 1.4916 3.0408 3.9024zm6.4896-5.9688c0-6.0288-2.6424-10.3897-9.5304-10.3897-6.9468 0-9.642 3.7861-9.642 9.8137v5.7408c0 6.372 2.5236 9.5856 7.2324 9.5856 2.7552 0 4.4184-1.2648 5.3952-3.156h.0552v8.3784c0 2.3532-.918 4.0188-3.27 4.0188-2.3544 0-3.2148-1.3788-3.2148-3.7896v-2.5812h-5.97v2.0664c0 5.7396 2.0676 9.7572 9.3012 9.7572 6.8844 0 9.6432-4.4196 9.6432-10.5048z"/><path d="m136.424 159.881-17.435 10.062v-20.128l17.435-10.067zm-57.5977 10.062v-18.598l16.1076 9.3zm-2.6496 0-17.4324-10.062v-20.133l17.4324 10.067zm18.7572-55.677-16.1076 9.301v-18.6zm21.4061 9.3-16.106-9.3 16.106-9.299zm-16.106 13.888 17.43-10.062 17.435 10.061-17.435 10.067zm-3.974-2.294-16.1077-9.298 16.1077-9.301zm18.755-9.298-16.1055 9.296v-18.597zm-18.755 32.489-16.1089-9.301 16.1089-9.302zm42.152-22.045-19.423-11.21v-22.424c0-.473-.252-.911-.662-1.147l-20.0799-11.5947c-.4116-.2352-.9143-.2352-1.3247 0l-20.0821 11.5947c-.4116.236-.6636.674-.6636 1.147v22.424l-19.4184 11.21c-.4104.237-.6624.674-.6624 1.147v23.192c0 .474.252.911.6624 1.149l20.082 11.59c.2052.118.4332.178.6624.178.228 0 .4572-.06.6624-.178l19.4185-11.21 19.4184 11.21c.205.118.433.178.662.178.23 0 .458-.059.663-.178l20.085-11.59c.411-.238.662-.675.662-1.149v-23.192c0-.473-.251-.911-.662-1.147z"/><path d="m54.2102 24.4246h-2.6412v7.1772h-2.7372v-16.2756h2.7372v6.8904h2.6412v-6.8904h2.76v16.2756h-2.76z"/><path d="m62.0086 14.007c.4572 0 .744-.336.744-.792s-.2868-.7919-.744-.7919c-.456 0-.744.3359-.744.7919s.288.792.744.792zm-1.176 12.4357h2.1852l-1.0812-6.5304h-.024zm1.176-15.0277c1.08 0 1.824.816 1.824 1.8s-.744 1.8013-1.824 1.8013-1.848-.8173-1.848-1.8013.768-1.8 1.848-1.8zm-4.6092 20.1877 3.0732-16.2756h3.12l3.0972 16.2756h-2.8092l-.504-2.976h-2.904l-.48 2.976z"/><path d="m67.1206 15.3262h2.736v14.0436h3.2652v2.232h-6.0012z"/><path d="m73.6711 15.3262h2.7361v14.0436h3.2652v2.232h-6.0013z"/><path d="m82.9594 24.2806v5.0892h1.2012c.912 0 1.344-.456 1.344-1.32v-2.4492c0-.864-.4092-1.32-1.3692-1.32zm0-2.088h.9612c.888 0 1.296-.456 1.296-1.32v-1.9932c0-.888-.408-1.32-1.3212-1.32h-.936zm-2.736-6.8664h3.96c2.7372 0 3.6492 1.2732 3.6492 3.5772v1.656c0 1.3692-.5052 2.2332-1.632 2.5932 1.368.312 2.04 1.224 2.04 2.712v2.1612c0 2.304-1.032 3.576-3.768 3.576h-4.2492z"/><path d="m91.7916 26.4418h2.184l-1.08-6.5304h-.024zm-3.4332 5.16 3.072-16.2756h3.1212l3.0972 16.2756h-2.8092l-.504-2.976h-2.9052l-.4788 2.976z"/><path d="m100.815 17.5594v5.0652h.912c.938 0 1.346-.48 1.346-1.3452v-2.4c0-.888-.408-1.32-1.346-1.32zm0 6.5772v7.4652h-2.7369v-16.2756h3.9869c2.758 0 3.768 1.3692 3.768 3.6492v2.0892c0 1.752-.624 2.784-2.186 3.144l2.618 7.3932h-2.882z"/><path d="m111.182 15.3262h-2.736v16.2756h2.736z"/><path d="m114.376 21.3754v10.2264h-2.304v-16.2756h2.688l2.953 9.3384v-9.3384h2.28v16.2756h-2.4z"/><path d="m124.744 29.3698c1.128 0 1.56-.672 1.56-1.656v-8.5224c0-.96-.432-1.632-1.56-1.632h-1.154v11.8104zm4.296-9.6744v7.5384c0 2.496-1.032 4.368-3.962 4.368h-4.224v-16.2756h4.224c2.93 0 3.962 1.8492 3.962 4.3692z"/><path d="m137.848 15.3262v12.3156c0 2.52-1.079 4.1532-3.865 4.1532-2.88 0-4.08-1.6332-4.08-4.1532v-12.3156h2.736v12.5796c0 .96.385 1.608 1.344 1.608.961 0 1.345-.648 1.345-1.608v-12.5796z"/><path d="m138.566 28.0974v-2.1852h2.546v2.2332c0 .912.408 1.44 1.344 1.44.864 0 1.248-.576 1.248-1.44v-.624c0-.936-.384-1.5132-1.226-2.3052l-1.606-1.608c-1.562-1.536-2.282-2.472-2.282-4.3452v-.552c0-2.016 1.176-3.5772 3.84-3.5772 2.738 0 3.818 1.3452 3.818 3.6972v1.32h-2.496v-1.416c0-.936-.432-1.392-1.296-1.392-.77 0-1.296.432-1.296 1.344v.336c0 .912.504 1.4412 1.296 2.208l1.752 1.7292c1.488 1.512 2.209 2.424 2.209 4.2252v.792c0 2.232-1.201 3.8172-3.987 3.8172-2.784 0-3.864-1.5612-3.864-3.6972z"/><path d="m146.487 15.3262h7.275v2.2332h-2.257v14.0424h-2.762v-14.0424h-2.256z"/><path d="m157.071 17.5594v5.0652h.912c.938 0 1.344-.48 1.344-1.3452v-2.4c0-.888-.406-1.32-1.344-1.32zm0 6.5772v7.4652h-2.737v-16.2756h3.987c2.758 0 3.768 1.3692 3.768 3.6492v2.0892c0 1.752-.624 2.784-2.186 3.144l2.618 7.3932h-2.882z"/><path d="m165.616 15.3262h-2.738v16.2756h2.738z"/><path d="m169.311 29.2013-1.392 3.6714h-1.537l.336-3.8873h2.593z"/><path d="m51.569 38.126h-2.7372v16.2756h2.7372z"/><path d="m54.7608 44.1752v10.2264h-2.3052v-16.2756h2.688l2.9532 9.3384v-9.3384h2.2799v16.2756h-2.4z"/><path d="m63.5447 44.1752v10.2264h-2.3052v-16.2756h2.688l2.9533 9.3384v-9.3384h2.2812v16.2756h-2.4z"/><path d="m75.5686 50.6342v-8.7384c0-.984-.4332-1.68-1.4172-1.68-.96 0-1.392.696-1.392 1.68v8.7384c0 .984.432 1.68 1.392 1.68.984 0 1.4172-.696 1.4172-1.68zm-5.5452-.4332v-7.8732c0-2.544 1.248-4.3932 4.128-4.3932 2.9052 0 4.1532 1.8492 4.1532 4.3932v7.8732c0 2.5212-1.248 4.3944-4.1532 4.3944-2.88 0-4.128-1.8732-4.128-4.3944z"/><path d="m87.4485 38.126-3.0972 16.2756h-2.9772l-3.096-16.2756h2.7852l1.872 11.3544h.024l1.92-11.3544z"/><path d="m89.4383 49.2416h2.1852l-1.0812-6.5304h-.024zm-3.4332 5.16 3.072-16.2756h3.1212l3.0972 16.2756h-2.8092l-.504-2.976h-2.9052l-.4788 2.976z"/><path d="m94.2141 38.126h7.2729v2.2332h-2.2569v14.0424h-2.76v-14.0424h-2.256z"/><path d="m104.797 38.126h-2.736v16.2756h2.736z"/><path d="m111.229 50.6342v-8.7384c0-.984-.432-1.68-1.416-1.68-.96 0-1.392.696-1.392 1.68v8.7384c0 .984.432 1.68 1.392 1.68.984 0 1.416-.696 1.416-1.68zm-5.545-.4332v-7.8732c0-2.544 1.248-4.3932 4.129-4.3932 2.905 0 4.153 1.8492 4.153 4.3932v7.8732c0 2.5212-1.248 4.3944-4.153 4.3944-2.881 0-4.129-1.8732-4.129-4.3944z"/><path d="m117.133 44.1752v10.2264h-2.305v-16.2756h2.689l2.953 9.3384v-9.3384h2.28v16.2756h-2.4z"/><path d="m123.612 38.126h6.529v2.2332h-3.793v4.6572h2.713v2.208h-2.713v4.9452h3.793v2.232h-6.529z"/><path d="m133.644 40.3592v5.0652h.913c.936 0 1.344-.48 1.344-1.3452v-2.4c0-.888-.408-1.32-1.344-1.32zm0 6.5772v7.4652h-2.736v-16.2756h3.985c2.76 0 3.769 1.3692 3.769 3.6492v2.0892c0 1.752-.625 2.784-2.186 3.144l2.617 7.3932h-2.88z"/><path d="m146.822 50.6342v-8.7384c0-.984-.433-1.68-1.417-1.68-.96 0-1.392.696-1.392 1.68v8.7384c0 .984.432 1.68 1.392 1.68.984 0 1.417-.696 1.417-1.68zm-5.546-.4332v-7.8732c0-2.544 1.248-4.3932 4.129-4.3932 2.905 0 4.153 1.8492 4.153 4.3932v7.8732c0 2.5212-1.248 4.3944-4.153 4.3944-2.881 0-4.129-1.8732-4.129-4.3944z"/><path d="m150.42 50.201v-7.8732c0-2.544 1.2-4.3932 4.08-4.3932 3.024 0 3.865 1.6812 3.865 4.0812v1.9212h-2.496v-2.1372c0-1.008-.337-1.584-1.321-1.584-.983 0-1.392.696-1.392 1.68v8.7384c0 .984.409 1.68 1.392 1.68.984 0 1.321-.624 1.321-1.584v-3.0012h2.496v2.8092c0 2.328-.96 4.0572-3.865 4.0572-2.88 0-4.08-1.8732-4.08-4.3944z"/><path d="m164.532 47.2244h-2.641v7.1772h-2.736v-16.2756h2.736v6.8904h2.641v-6.8904h2.76v16.2756h-2.76z"/><path d="m51.569 60.9268h-2.7372v16.2756h2.7372z"/><path d="m54.7608 66.976v10.2264h-2.3052v-16.2756h2.688l2.9532 9.3383v-9.3383h2.2799v16.2756h-2.4z"/><path d="m61.2395 60.9268h6.4092v2.2331h-3.6732v4.6573h2.7385v2.208h-2.7385v7.1772h-2.736z"/><path d="m70.8874 63.1599v5.0653h.9132c.936 0 1.344-.48 1.344-1.3452v-2.4c0-.888-.408-1.3201-1.344-1.3201zm0 6.5772v7.4653h-2.736v-16.2756h3.9852c2.76 0 3.7692 1.3692 3.7692 3.6492v2.0892c0 1.752-.6252 2.7839-2.1852 3.1439l2.616 7.3933h-2.88z"/><path d="m79.6969 72.0424h2.184l-1.08-6.5304h-.0252zm-3.4332 5.16 3.072-16.2756h3.1212l3.0972 16.2756h-2.8092l-.504-2.9761h-2.9052l-.4788 2.9761z"/><path d="m85.5984 73.6989v-2.1852h2.5452v2.2332c0 .912.408 1.44 1.344 1.44.864 0 1.248-.576 1.248-1.44v-.624c0-.936-.384-1.5132-1.224-2.3052l-1.608-1.608c-1.5612-1.536-2.28-2.472-2.28-4.3452v-.552c0-2.0159 1.1748-3.5771 3.84-3.5771 2.736 0 3.816 1.3451 3.816 3.6971v1.32h-2.496v-1.4159c0-.936-.432-1.392-1.296-1.392-.768 0-1.296.4319-1.296 1.3439v.336c0 .912.504 1.4412 1.296 2.208l1.752 1.7292c1.488 1.512 2.2092 2.424 2.2092 4.2252v.792c0 2.232-1.2012 3.8172-3.9852 3.8172-2.7852 0-3.8652-1.5612-3.8652-3.6972z"/><path d="m93.5205 60.9268h7.2735v2.2331h-2.2574v14.0425h-2.7613v-14.0425h-2.2548z"/><path d="m104.103 63.1599v5.0653h.913c.936 0 1.344-.48 1.344-1.3452v-2.4c0-.888-.408-1.3201-1.344-1.3201zm0 6.5772v7.4653h-2.736v-16.2756h3.985c2.76 0 3.77 1.3692 3.77 3.6492v2.0892c0 1.752-.626 2.7839-2.187 3.1439l2.617 7.3933h-2.88z"/><path d="m117.855 60.9268v12.3155c0 2.52-1.08 4.1532-3.865 4.1532-2.88 0-4.08-1.6332-4.08-4.1532v-12.3155h2.736v12.5795c0 .96.384 1.608 1.344 1.608.961 0 1.345-.648 1.345-1.608v-12.5795z"/><path d="m121.455 69.2811v7.9213h-2.736v-16.2756h2.736v7.1543l2.976-7.1543h2.691l-3.169 7.3223 3.24 8.9533h-2.88z"/><path d="m127.216 60.9268h7.273v2.2331h-2.257v14.0425h-2.76v-14.0425h-2.256z"/><path d="m143.007 60.9268v12.3155c0 2.52-1.08 4.1532-3.865 4.1532-2.88 0-4.08-1.6332-4.08-4.1532v-12.3155h2.736v12.5795c0 .96.384 1.608 1.344 1.608.961 0 1.345-.648 1.345-1.608v-12.5795z"/><path d="m146.606 63.1599v5.0653h.913c.936 0 1.344-.48 1.344-1.3452v-2.4c0-.888-.408-1.3201-1.344-1.3201zm0 6.5772v7.4653h-2.736v-16.2756h3.985c2.76 0 3.768 1.3692 3.768 3.6492v2.0892c0 1.752-.624 2.7839-2.185 3.1439l2.617 7.3933h-2.881z"/></g></svg>