<svg fill="none" height="102" viewBox="0 0 100 102" width="100" xmlns="http://www.w3.org/2000/svg"><path d="m96.8069 85.4407-21.0115 12.1261v-24.2566l21.0115-12.132zm-69.4135 12.1261v-22.4128l19.412 11.2079zm-3.1932 0-21.00849-12.1261v-24.2625l21.00849 12.132zm22.6052-67.0981-19.412 11.2093v-22.4157zm25.7969 11.2078-19.4092-11.2078 19.4092-11.2064zm-19.4092 16.7366 21.0057-12.1261 21.0115 12.1247-21.0115 12.1319zm-4.7897-2.7651-19.412-11.2049 19.412-11.2093zm22.6023-11.2049-19.4091 11.2035v-22.4128zm-22.6023 39.1537-19.4134-11.2093 19.4134-11.2093zm50.7998-26.5677-23.4078-13.5087v-27.0246c0-.5698-.3037-1.0977-.7983-1.3825l-24.1988-13.97298c-.4961-.283448-1.102-.283448-1.5966 0l-24.2017 13.97298c-.496.2848-.7998.8127-.7998 1.3825v27.0246l-23.401909 13.5087c-.494592.2864-.798291.8128-.798291 1.3826v27.9502c0 .5712.303699 1.0976.798291 1.3839l24.201709 13.9682c.2473.142.5221.214.7983.214.2748 0 .551-.072.7983-.214l23.402-13.5097 23.402 13.5097c.2473.142.522.214.7982.214s.551-.07.7983-.214l24.2061-13.9682c.4946-.2863.7968-.8127.7968-1.3839v-27.9502c0-.5698-.3022-1.0977-.7968-1.3826z" fill="#000"/></svg>