<svg width="24" height="24" viewBox="0 0 24 24" fill="none" xmlns="http://www.w3.org/2000/svg">
<path d="M12 0C5.72566 0.0405436 0.527363 4.87881 0.0373638 11.1341C-0.452636 17.3894 3.92888 22.9781 10.1204 23.9952V15.5669H7.12098V12.0776H10.1204V9.37811C10.1204 6.37871 11.92 4.67906 14.6595 4.67906C15.557 4.69066 16.4525 4.76751 17.3389 4.90901V7.99839H15.8292C14.8823 7.87432 14.014 8.5412 13.8896 9.48809C13.8696 9.61394 13.8696 9.74216 13.8896 9.86801V12.0976H17.199L16.6691 15.5869H13.8796V23.9952C20.0711 22.9781 24.4526 17.3894 23.9626 11.1341C23.4726 4.87881 18.2743 0.0405436 12 0Z" fill="white"/>
</svg>
