<svg fill="none" height="24" viewBox="0 0 24 24" width="24" xmlns="http://www.w3.org/2000/svg"><path d="m12 0c-6.27434.0405436-11.472637 4.87881-11.9626362 11.1341-.4899998 6.2553 3.8915162 11.844 10.0830362 12.8611v-8.4283h-2.99942v-3.4893h2.99942v-2.69949c0-2.9994 1.7996-4.69905 4.5391-4.69905.8975.0116 1.793.08845 2.6794.22995v3.08938h-1.5097c-.9469-.12407-1.8152.54281-1.9396 1.4897-.02.12585-.02.25407 0 .37992v2.22959h3.3094l-.5299 3.4893h-2.7895v8.4083c6.1915-1.0171 10.573-6.6058 10.083-12.8611-.49-6.25529-5.6883-11.0935564-11.9626-11.1341z" fill="#fff"/></svg>