<svg width="24" height="20" viewBox="0 0 24 20" fill="none" xmlns="http://www.w3.org/2000/svg">
<path d="M24 2.55718C23.1169 2.94913 22.1681 3.21313 21.1721 3.33223C22.1891 2.72323 22.97 1.75813 23.337 0.60823C22.386 1.17223 21.332 1.58218 20.21 1.80313C19.313 0.84613 18.0319 0.24823 16.6159 0.24823C13.437 0.24823 11.101 3.21418 11.8189 6.29323C7.728 6.08818 4.09995 4.12813 1.671 1.14913C0.381 3.36223 1.002 6.25723 3.19395 7.72318C2.388 7.69723 1.62795 7.47613 0.96495 7.10713C0.91095 9.38818 2.54595 11.5222 4.914 11.9971C4.221 12.1852 3.462 12.2292 2.68995 12.0811C3.31605 14.0371 5.13405 15.4602 7.29 15.5002C5.22 17.1232 2.61195 17.8482 0 17.5402C2.17905 18.9372 4.76805 19.7521 7.548 19.7521C16.69 19.7521 21.855 12.0312 21.543 5.10613C22.5049 4.41118 23.34 3.54418 24 2.55718Z" fill="white"/>
</svg>
