<svg fill="none" height="20" viewBox="0 0 24 20" width="24" xmlns="http://www.w3.org/2000/svg"><path d="m24 2.55718c-.8831.39195-1.8319.65595-2.8279.77505 1.017-.609 1.7979-1.5741 2.1649-2.724-.951.564-2.005.97395-3.127 1.1949-.897-.957-2.1781-1.5549-3.5941-1.5549-3.1789 0-5.5149 2.96595-4.797 6.045-4.0909-.20505-7.71895-2.1651-10.1479-5.1441-1.29 2.2131-.669 5.1081 1.52295 6.57405-.80595-.02595-1.566-.24705-2.229-.61605-.054 2.28105 1.581 4.41507 3.94905 4.88997-.693.1881-1.452.2321-2.22405.084.6261 1.956 2.4441 3.3791 4.60005 3.4191-2.07 1.623-4.67805 2.348-7.29 2.04 2.17905 1.397 4.76805 2.2119 7.548 2.2119 9.142 0 14.307-7.7209 13.995-14.64597.9619-.69495 1.797-1.56195 2.457-2.54895z" fill="#fff"/></svg>