<svg fill="none" height="32" viewBox="0 0 227 32" width="227" xmlns="http://www.w3.org/2000/svg"><g fill="#111517"><path d="m0 .568359h20.0883v6.828821h-11.93898v5.88002h10.23338v6.8282h-10.23338v11.2866h-8.14932z"/><path d="m41.7878 22.5014c1.0728-1.6279 1.6105-3.8487 1.6105-6.6629 0-2.782-.5291-4.9478-1.5872-6.4968-1.0585-1.54806-2.5189-2.32336-4.3823-2.32336-1.8641 0-3.3245.7753-4.3826 2.32336-1.0585 1.549-1.5873 3.7148-1.5873 6.4968 0 2.8142.5371 5.035 1.6112 6.6629 1.0735 1.6286 2.5262 2.442 4.3587 2.442 1.8314 0 3.2845-.8134 4.359-2.442zm-11.8688 7.5393c-2.1639-1.2799-3.8373-3.1364-5.0218-5.5716-1.1843-2.4339-1.7766-5.3114-1.7766-8.6306 0-3.3198.5923-6.17211 1.7766-8.5597 1.1845-2.386 2.8579-4.19643 5.0218-5.42938 2.1635-1.232947 4.6668-1.84942 7.5098-1.84942 2.8426 0 5.3453.624463 7.5094 1.87275 2.1629 1.24988 3.8376 3.05872 5.0219 5.43002 1.1845 2.37065 1.7768 5.21593 1.7768 8.53573 0 3.3192-.5923 6.1967-1.7768 8.6306-1.1843 2.4352-2.859 4.2917-5.0219 5.5716-2.1641 1.2809-4.6668 1.9207-7.5094 1.9207-2.843 0-5.3463-.6398-7.5098-1.9207z"/><path d="m64.4334 14.605h2.9375c1.6109 0 2.8344-.3477 3.6722-1.0434.8362-.6948 1.2552-1.7066 1.2552-3.0348 0-1.29617-.4027-2.20507-1.2083-2.72662-.8052-.52188-2.0453-.78234-3.7191-.78234h-2.9375zm8.4332 16.787-5.306-10.3381h-3.1272v10.3381h-8.149v-30.823641h11.6552c3.6955 0 6.6719.766681 8.9309 2.300351 2.2578 1.53335 3.3874 4.08585 3.3874 7.65809 0 2.1179-.4428 3.9207-1.3267 5.4061-.8844 1.4867-2.1009 2.6554-3.6482 3.5093l6.6806 11.9498z"/><path d="m87.1983 28.1674c-2.1009-2.5288-3.1504-6.4168-3.1504-11.6653v-15.933741h8.149v16.881941c0 2.7193.3624 4.647 1.0894 5.7857.7264 1.138 1.9106 1.7069 3.5534 1.7069 1.6421 0 2.8427-.5769 3.6003-1.7309.758-1.154 1.138-3.074 1.138-5.7617v-16.881941h7.865v15.933741c0 5.2798-1.027 9.1758-3.08 11.6893-2.054 2.5129-5.228 3.7695-9.5233 3.7695-4.3277 0-7.5414-1.2636-9.6414-3.7935z"/><path d="m114.18.568359h8.718l4.643 12.613941c.22.6327.521 1.6122.9 2.9401l.711 2.4659h.189l.711-2.4659c.379-1.3279.678-2.3074.9-2.9401l4.454-12.613941h8.717v30.823641h-7.391v-9.1045c0-1.1694.095-2.6801.284-4.5288.19-1.8498.395-3.564.616-5.1453l.142-1.3282h-.189l-2.559 7.398-3.79 10.1953h-4.359l-3.79-10.1953-2.463-7.398h-.19l.142 1.3282c.221 1.5813.426 3.2955.616 5.1453.19 1.8487.284 3.3594.284 4.5288v9.1045h-7.296z"/></g><path d="m172.395 6.76085c-1.67-.83603-3.999-1.23167-6.417-1.23167-5.58 0-9.887 4.31052-9.887 10.46882 0 6.817 5.054 10.4673 10.24 10.4673 2.416 0 4.482-.3953 6.283-1.3189l.747 1.9788c-2.24 1.0563-4.614 1.4075-6.987 1.4075-6.24 0-12.7-4.2658-12.7-12.5347 0-8.26914 6.328-12.53619 12.612-12.53619 2.286 0 4.659.44038 6.856 1.36397zm1.23-3.16642c-2.197-.96801-4.79-1.45186-7.47-1.45186-7.822 0-14.063 5.3661-14.063 13.85543 0 8.4885 6.372 13.8542 14.15 13.8542 2.505 0 5.318-.4394 7.603-1.4956l.703 1.8478c-2.461 1.2758-5.361 1.7152-8.349 1.7152-8.833 0-16.523-6.0692-16.523-15.9216 0-9.58869 7.514-15.9228047 16.171-15.9228047 3.076 0 5.844.4838467 8.481 1.6717347z" fill="#ffcb27"/><path d="m184.653 31.395v-30.788555h2.373v30.788555zm-1.582 0h-2.373v-30.788555h2.373z" fill="#ffcb27"/><path d="m196.077.606445h2.593l8.393 21.815655 8.394-21.815655h2.592l-10.986 27.137955zm8.438 30.788555-12.437-30.788555h2.373l11.601 28.545355h2.022l11.601-28.545355h2.373l-12.436 30.788555z" fill="#ffcb27"/><path d="m222.366 26.3829c.755 0 1.079.4324 1.079 1.2425 0 .8641-.324 1.2416-1.079 1.2416-.756 0-1.079-.4321-1.079-1.2416 0-.8101.323-1.2425 1.079-1.2425zm0-1.1876c-1.511 0-2.374.7558-2.374 2.4301 0 1.6736.863 2.4304 2.374 2.4304s2.374-.7568 2.374-2.4304c0-1.6743-.863-2.4301-2.374-2.4301zm-4.317 2.4301c0-2.9708 1.403-4.3754 4.317-4.3754s4.317 1.4046 4.317 4.3754c0 2.9699-1.403 4.3744-4.317 4.3744s-4.317-1.4045-4.317-4.3744z" fill="#ffcb27"/></svg>