<svg fill="none" height="32" viewBox="0 0 227 32" width="227" xmlns="http://www.w3.org/2000/svg"><g fill="#fff"><path d="m0 .568359h20.1046v6.828171h-11.94869v5.87947h10.24159v6.8275h-10.24159v11.2856h-8.15591z"/><path d="m41.8215 22.4993c1.0737-1.6278 1.6118-3.8484 1.6118-6.6623 0-2.7817-.5294-4.9473-1.5884-6.49619-1.0594-1.54791-2.521-2.32314-4.3859-2.32314-1.8655 0-3.3272.77523-4.3861 2.32314-1.0594 1.54889-1.5885 3.71449-1.5885 6.49619 0 2.8139.5375 5.0345 1.6124 6.6623 1.0744 1.6284 2.5283 2.4417 4.3622 2.4417 1.833 0 3.2872-.8133 4.3625-2.4417zm-11.8783 7.5385c-2.1656-1.2798-3.8404-3.136-5.0259-5.571-1.1853-2.4337-1.778-5.311-1.778-8.6298 0-3.3195.5927-6.17153 1.778-8.5589 1.1855-2.38577 2.8603-4.19603 5.0259-5.42886 2.1652-1.232825 4.6705-1.84924 7.5158-1.84924 2.845 0 5.3496.624403 7.5155 1.87257 2.1647 1.24977 3.8407 3.05843 5.0259 5.4295 1.1856 2.37043 1.7784 5.21543 1.7784 8.53493 0 3.3188-.5928 6.1961-1.7784 8.6298-1.1852 2.435-2.8612 4.2912-5.0259 5.571-2.1659 1.2808-4.6705 1.9205-7.5155 1.9205-2.8453 0-5.3506-.6397-7.5158-1.9205z"/><path d="m64.4855 14.6037h2.9399c1.6122 0 2.8367-.3477 3.6752-1.0433.8369-.6947 1.2561-1.7064 1.2561-3.0345 0-1.2961-.4029-2.20491-1.2091-2.72641-.806-.52183-2.0471-.78227-3.7222-.78227h-2.9399zm8.44 16.7854-5.3103-10.3372h-3.1297v10.3372h-8.1555v-30.820741h11.6645c3.6985 0 6.6774.766601 8.9382 2.300131 2.2596 1.53321 3.3901 4.08546 3.3901 7.65741 0 2.1177-.4432 3.9203-1.3277 5.4055-.8852 1.4866-2.1026 2.6552-3.6512 3.509l6.686 11.9487z"/><path d="m87.2687 28.1648c-2.1026-2.5286-3.153-6.4163-3.153-11.6643v-15.932141h8.1556v16.880341c0 2.719.3627 4.6466 1.0903 5.7851.727 1.1379 1.9122 1.7067 3.5563 1.7067 1.6435 0 2.845-.5768 3.6031-1.7307.759-1.1539 1.139-3.0737 1.139-5.7611v-16.880341h7.871v15.932141c0 5.2794-1.028 9.175-3.082 11.6883-2.056 2.5126-5.232 3.7691-9.5311 3.7691-4.3312 0-7.5475-1.2635-9.6492-3.7931z"/><path d="m114.272.568359h8.725l4.647 12.612741c.221.6327.522 1.6121.901 2.9398l.711 2.4657h.189l.712-2.4657c.379-1.3277.679-2.3071.901-2.9398l4.457-12.612741h8.725v30.820741h-7.398v-9.1037c0-1.1693.095-2.6798.285-4.5284.19-1.8495.395-3.5636.617-5.1448l.142-1.328h-.19l-2.561 7.3973-3.793 10.1943h-4.362l-3.793-10.1943-2.466-7.3973h-.19l.142 1.328c.221 1.5812.427 3.2953.617 5.1448.19 1.8486.284 3.3591.284 4.5284v9.1037h-7.302z"/></g><path d="m172.534 6.76119c-1.671-.83595-4.002-1.23155-6.421-1.23155-5.585 0-9.895 4.3101-9.895 10.46786 0 6.8163 5.057 10.4663 10.247 10.4663 2.419 0 4.486-.3953 6.289-1.3188l.748 1.9786c-2.243 1.0562-4.618 1.4073-6.993 1.4073-6.245 0-12.71-4.2653-12.71-12.5334 0-8.26839 6.333-12.53504 12.622-12.53504 2.287 0 4.662.44034 6.861 1.36384zm1.232-3.16612c-2.199-.96792-4.794-1.45172-7.477-1.45172-7.828 0-14.074 5.36559-14.074 13.85415 0 8.4876 6.378 13.8529 14.162 13.8529 2.507 0 5.322-.4394 7.609-1.4955l.703 1.8476c-2.463 1.2757-5.365 1.715-8.356 1.715-8.84 0-16.536-6.0686-16.536-15.92 0-9.58782 7.52-15.9213281 16.184-15.9213281 3.079 0 5.849.4838011 8.488 1.6715781z" fill="#ffcb27"/><path d="m184.802 31.3891v-30.785584h2.375v30.785584zm-1.583 0h-2.375v-30.785584h2.375z" fill="#ffcb27"/><path d="m196.236.603516h2.594l8.401 21.813584 8.4-21.813584h2.594l-10.994 27.135384zm8.444 30.785584-12.447-30.785584h2.375l11.611 28.542684h2.023l11.611-28.542684h2.375l-12.447 30.785584z" fill="#ffcb27"/><path d="m222.546 26.3845c.756 0 1.08.4324 1.08 1.2424 0 .8641-.324 1.2415-1.08 1.2415-.757 0-1.08-.4321-1.08-1.2415 0-.81.323-1.2424 1.08-1.2424zm0-1.1874c-1.512 0-2.376.7557-2.376 2.4298 0 1.6735.864 2.4302 2.376 2.4302s2.376-.7567 2.376-2.4302c0-1.6741-.864-2.4298-2.376-2.4298zm-4.321 2.4298c0-2.9705 1.404-4.3749 4.321-4.3749 2.916 0 4.32 1.4044 4.32 4.3749 0 2.9696-1.404 4.374-4.32 4.374-2.917 0-4.321-1.4044-4.321-4.374z" fill="#ffcb27"/></svg>