<svg fill="none" height="401" viewBox="0 0 401 401" width="401" xmlns="http://www.w3.org/2000/svg"><path d="m97.4266 71.0068 47.2254 54.4512c6.371-4.87 13.197-8.798 20.301-11.787l-24.541-67.8374c-15.185 6.0172-29.692 14.388-42.9854 25.1732z" fill="#e3243b"/><path d="m110.913 48.6661c6.705-2.3357 10.257-9.6731 7.935-16.3891-2.322-6.7152-9.639-10.2658-16.344-7.9301-6.7045 2.3357-10.2571 9.673-7.935 16.389s9.639 10.2659 16.344 7.9302z" fill="#e3243b"/><path d="m58.0325 117.233 63.7115 33.645c4.091-6.699 9.1-12.972 15.007-18.624l-47.2204-54.4454c-12.7719 11.7428-23.2663 25.0714-31.4981 39.4244z" fill="#19486a"/><path d="m61.8913 92.5356c5.3408-4.6884 5.8832-12.8223 1.2117-18.1682-4.6704-5.3459-12.7864-5.879-18.1276-1.1912-5.3414 4.6889-5.8832 12.8222-1.2116 18.1682 4.6709 5.3465 12.7869 5.8784 18.1275 1.1912z" fill="#19486a"/><path d="m53.135 126.441c-7.44 15.121-12.4482 31.183-15.0124 47.587l71.5394 8.298c1.434-7.643 3.827-15.116 7.151-22.254z" fill="#00689d"/><path d="m33.1195 149.734c3.2989-6.3.8801-14.08-5.4008-17.378-6.2821-3.296-14.0484-.863-17.3477 5.436-3.29892 6.299-.88008 14.079 5.4016 17.376 6.2816 3.299 14.0483.865 17.3469-5.434z" fill="#00689d"/><path d="m36.8159 184.384c-1.569 16.843-.5647 33.906 3.0231 50.554l69.769-18.152c-1.472-7.972-1.903-16.08-1.305-24.112z" fill="#56c02b"/><path d="m15.2015 199.982c-7.04796-.806-13.42193 4.268-14.235421 11.332-.814322 7.065 4.240811 13.445 11.289521 14.251 7.0487.807 13.4218-4.266 14.2345-11.331.8151-7.064-4.2391-13.445-11.2886-14.252z" fill="#56c02b"/><path d="m63.5965 291.274 58.4295-42.366c-4.342-6.967-7.649-14.37-9.962-21.985l-69.7019 18.129c4.5574 16.138 11.6231 31.746 21.2344 46.222z" fill="#0a97d9"/><path d="m27.7549 266.097c-6.8872 1.722-11.082 8.712-9.3713 15.61 1.7117 6.898 8.6808 11.094 15.5669 9.371 6.8854-1.724 11.0801-8.714 9.3693-15.612-1.7115-6.898-8.6789-11.094-15.5649-9.369z" fill="#0a97d9"/><path d="m128.016 257.421-58.3702 42.336c2.1613 2.835 4.4093 5.638 6.7807 8.372 9.0184 10.399 19.0712 19.377 29.8425 26.942l39.281-60.596c-5.304-3.945-10.265-8.503-14.773-13.701-.95-1.095-1.864-2.223-2.761-3.353z" fill="#3f7e44"/><path d="m63.7492 325.003c-5.8068 4.094-7.2091 12.125-3.1324 17.938 4.0778 5.814 12.0901 7.209 17.8966 3.116 5.8072-4.093 7.2095-12.124 3.1317-17.938-4.0767-5.814-12.0888-7.21-17.8959-3.116z" fill="#3f7e44"/><path d="m114.989 340.765c14.782 9.03 30.733 15.547 47.227 19.505l14.732-70.657c-7.874-2.096-15.536-5.23-22.711-9.407z" fill="#bf8b2e"/><path d="m118.293 366.161c-3.949 5.913-2.369 13.907 3.527 17.855 5.895 3.949 13.874 2.356 17.822-3.557s2.368-13.908-3.526-17.856c-5.896-3.949-13.875-2.356-17.823 3.558z" fill="#bf8b2e"/><path d="m187.139 291.719-14.727 70.651c16.657 2.907 33.695 3.249 50.503 1.002l-11.56-71.206c-8.061.902-16.209.746-24.216-.447z" fill="#fd9d24"/><path d="m184.332 384.931c-1.511 6.95 2.884 13.802 9.816 15.308 6.932 1.505 13.778-2.908 15.288-9.858 1.512-6.948-2.883-13.802-9.816-15.307s-13.778 2.908-15.288 9.857z" fill="#fd9d24"/><path d="m233.182 361.682c16.474-3.284 32.558-9.098 47.671-17.492l-36.325-62.25c-7.323 3.885-15.031 6.712-22.908 8.498z" fill="#dd1367"/><path d="m262.854 363.904c-7.012 1.1-11.813 7.687-10.724 14.71 1.089 7.025 7.654 11.828 14.665 10.729 7.013-1.1 11.813-7.686 10.725-14.711-1.09-7.025-7.655-11.829-14.666-10.728z" fill="#dd1367"/><path d="m327.985 305.046-56.461-44.722c-2.891 3.358-6.049 6.567-9.493 9.568-2.766 2.41-5.647 4.617-8.598 6.64l36.364 62.318c6.72-4.318 13.213-9.16 19.412-14.561 6.877-5.992 13.135-12.438 18.776-19.243z" fill="#fd6925"/><path d="m318.49 330.061c-6.148 3.557-8.261 11.432-4.718 17.589 3.54 6.156 11.396 8.263 17.544 4.707 6.148-3.558 8.261-11.432 4.719-17.589-3.541-6.156-11.397-8.263-17.545-4.707z" fill="#fd6925"/><path d="m288.657 230.753c-2.646 7.452-6.238 14.621-10.787 21.297l56.512 44.759c10.037-13.805 17.708-28.892 22.97-44.652z" fill="#a21942"/><path d="m358.695 276.847c-4.46 5.536-3.6 13.641 1.918 18.102 5.52 4.462 13.609 3.591 18.067-1.947 4.46-5.536 3.6-13.64-1.919-18.102-5.518-4.462-13.608-3.591-18.066 1.947z" fill="#a21942"/><path d="m365.631 191.756-71.697 5.047c.219 8.032-.598 16.074-2.418 23.912l68.695 21.4c4.363-16.422 6.185-33.423 5.42-50.359z" fill="#fcc30b"/><path d="m391.96 207.014c-6.756-2.166-13.991 1.567-16.162 8.339-2.17 6.772 1.546 14.018 8.301 16.185s13.99-1.567 16.162-8.339c2.17-6.772-1.546-14.018-8.301-16.185z" fill="#fcc30b"/><path d="m287.146 164.106c2.935 7.218 4.932 14.703 5.988 22.293l71.864-5.049c-1.75-16.297-5.924-32.394-12.553-47.745z" fill="#26bde2"/><path d="m382.353 139.375c-7.085.419-12.495 6.512-12.086 13.61s6.483 12.513 13.566 12.093c7.083-.419 12.494-6.512 12.085-13.611-.409-7.097-6.482-12.511-13.565-12.092z" fill="#26bde2"/><path d="m269.043 135.854c.765.822 1.514 1.647 2.247 2.493 4.452 5.133 8.242 10.618 11.365 16.361l65.348-30.528c-5.952-11.69-13.397-22.847-22.364-33.1865-2.227-2.5675-4.522-5.0422-6.881-7.444z" fill="#ff3a21"/><path d="m348.583 78.09c-6.46 2.9485-9.319 10.5835-6.385 17.054 2.934 6.47 10.549 9.325 17.01 6.378 6.46-2.9497 9.319-10.5847 6.385-17.0552-2.934-6.4704-10.549-9.3245-17.01-6.3768z" fill="#ff3a21"/><path d="m241.738 115.668c7.036 3.406 13.69 7.735 19.805 12.97l49.71-52.2943c-12.725-11.4409-26.886-20.5832-41.903-27.3761z" fill="#c5192d"/><path d="m312.693 32.2003c-5.064-4.9733-13.197-4.8852-18.167.1974-4.969 5.0809-4.892 13.2317.173 18.205 5.064 4.9738 13.198 4.8857 18.167-.1963s4.893-13.2323-.173-18.2061z" fill="#c5192d"/><path d="m210.787 34.568-1.925 72.126c7.914.658 15.741 2.319 23.277 4.976l27.608-66.6921c-15.755-5.9609-32.28-9.4481-48.96-10.4099z" fill="#4c9f38"/><path d="m246.685 3.35424c-6.514-2.807673-14.074.2123-16.885 6.74386-2.81 6.5326.193 14.1042 6.708 16.9129 6.514 2.8069 14.075-.2119 16.885-6.7438 2.81-6.5326-.193-14.10342-6.708-16.91296z" fill="#4c9f38"/><g fill="#dda63a"><path d="m174.759 110.164c7.75-2.288 15.723-3.536 23.71-3.749l1.917-72.1369c-16.915.0781-33.86 2.7455-50.178 8.0314z"/><path d="m171.775.540447c-7.091-.236244-13.037 5.335273-13.28 12.441153-.245 7.1058 5.305 13.0573 12.397 13.2927 7.091.2362 13.037-5.3336 13.281-12.4403.244-7.10579-5.306-13.058143-12.398-13.293553z"/></g></svg>