<svg width="600" height="893" viewBox="0 0 600 893" fill="none" xmlns="http://www.w3.org/2000/svg">
<path d="M492.305 81.3344L478.319 241.194C495.978 243.887 512.834 248.763 528.616 255.536L599.147 111.373C566.005 96.3193 530.147 85.9886 492.305 81.3344Z" fill="#E3243B"/>
<path d="M548.933 68.444C563.053 75.5871 580.294 69.9478 587.443 55.8477C594.591 41.7493 588.94 24.5295 574.821 17.3864C560.701 10.2433 543.46 15.8826 536.311 29.9827C529.162 44.0828 534.813 61.3009 548.933 68.444Z" fill="#E3243B"/>
<path d="M357.342 89.5829L402.174 243.732C419.229 239.943 437.022 238.283 455.212 239.023L469.195 79.1814C430.63 76.843 393.054 80.607 357.342 89.5829Z" fill="#19486A"/>
<path d="M402.832 57.6125C418.603 58.9332 432.457 47.2361 433.776 31.4852C435.096 15.7363 423.381 1.89794 407.61 0.575354C391.836 -0.74554 377.985 10.9517 376.666 26.7027C375.345 42.4534 387.062 56.2901 402.832 57.6125Z" fill="#19486A"/>
<path d="M335.025 95.956C299.313 107.387 265.859 124.171 235.643 145.405L333.151 272.945C347.6 263.437 363.262 255.728 379.83 250.03L335.025 95.956Z" fill="#00689D"/>
<path d="M266.764 99.8464C281.952 95.4035 290.653 79.5044 286.203 64.3367C281.748 49.1706 265.828 40.476 250.642 44.9165C235.455 49.3594 226.753 65.2585 231.206 80.4252C235.657 95.5946 251.578 104.289 266.764 99.8464Z" fill="#00689D"/>
<path d="M217.051 159.309C187.674 182.816 161.929 210.79 140.85 242.265L277.934 326.101C288.409 311.424 300.715 298.205 314.491 286.754L217.051 159.309Z" fill="#56C02B"/>
<path d="M158.623 148.749C148.998 136.201 131.011 133.818 118.448 143.429C105.884 153.038 103.505 171.002 113.13 183.551C122.755 196.101 140.741 198.482 153.303 188.87C165.868 179.262 168.25 161.299 158.623 148.749Z" fill="#56C02B"/>
<path d="M87.5077 367.402L245.772 395.643C250.195 377.915 256.917 361.176 265.519 345.702L128.576 261.936C109.813 294.179 95.7831 329.625 87.5077 367.402Z" fill="#0A97D9"/>
<path d="M72.2856 271.027C58.8638 262.645 41.1845 266.717 32.7979 280.118C24.4119 293.521 28.4912 311.179 41.9124 319.559C55.332 327.938 73.0122 323.863 81.3988 310.463C89.7839 297.061 85.7077 279.405 72.2856 271.027Z" fill="#0A97D9"/>
<path d="M241.427 418.402L83.3036 390.209C82.1141 398.056 81.1105 405.991 80.4082 414.018C77.7374 444.546 78.9403 474.539 83.5164 503.499L241.295 472.867C239.394 458.269 239.003 443.271 240.338 428.01C240.62 424.794 241.008 421.586 241.427 418.402Z" fill="#3F7E44"/>
<path d="M33.7807 419.759C18.2385 416.772 3.21781 426.932 0.22973 442.451C-2.75688 457.972 7.41896 472.976 22.959 475.964C38.5009 478.952 53.5216 468.793 56.5082 453.271C59.4962 437.752 49.3226 422.747 33.7807 419.759Z" fill="#3F7E44"/>
<path d="M87.9109 526.279C96.3546 563.936 110.631 599.584 129.84 632.149L265.698 546.608C256.857 530.742 250.007 513.613 245.579 495.653L87.9109 526.279Z" fill="#BF8B2E"/>
<path d="M52.3965 570.815C36.8215 573.618 26.4767 588.503 29.2909 604.058C32.1012 619.612 47.0076 629.947 62.5804 627.142C78.1551 624.337 88.4999 609.452 85.6882 593.9C82.8755 578.343 67.9712 568.01 52.3965 570.815Z" fill="#BF8B2E"/>
<path d="M278.11 566.202L142.269 651.743C163.412 682.947 189.25 710.795 218.874 734.279L314.895 605.726C300.968 594.193 288.601 580.887 278.11 566.202Z" fill="#FD9D24"/>
<path d="M124.631 705.716C111.173 714.031 107.015 731.665 115.341 745.107C123.669 758.55 141.33 762.708 154.788 754.394C168.246 746.082 172.404 728.446 164.076 715.003C155.75 701.559 138.089 697.4 124.631 705.716Z" fill="#FD9D24"/>
<path d="M237.478 748.131C268.242 769.476 302.452 786.284 339.283 797.552L382.628 643.123C365.073 637.382 348.612 629.391 333.557 619.517L237.478 748.131Z" fill="#DD1367"/>
<path d="M279.87 799.146C267.253 789.602 249.279 792.08 239.729 804.677C230.175 817.276 232.657 835.225 245.274 844.771C257.893 854.316 275.864 851.839 285.418 839.24C294.97 826.639 292.489 808.689 279.87 799.146Z" fill="#DD1367"/>
<path d="M474.9 812.654L459.016 653.017C449.168 653.569 439.144 653.462 429.008 652.576C420.868 651.864 412.877 650.655 405.069 649.047L361.677 803.643C378.994 807.748 396.795 810.679 415.036 812.275C435.271 814.045 455.277 814.121 474.9 812.654Z" fill="#FD6925"/>
<path d="M420.174 836.077C404.961 831.713 389.091 840.492 384.727 855.685C380.36 870.875 389.154 886.727 404.364 891.092C419.577 895.453 435.447 886.676 439.813 871.484C444.178 856.294 435.384 840.442 420.174 836.077Z" fill="#FD6925"/>
<path d="M532.86 634.802C516.839 642.074 499.806 647.389 482.082 650.409L497.984 810.187C535.614 804.951 571.632 793.943 604.994 778.033L532.86 634.802Z" fill="#A21942"/>
<path d="M567.572 818.331C551.808 819.733 540.172 833.634 541.581 849.376C542.99 865.122 556.91 876.746 572.674 875.339C588.438 873.937 600.072 860.038 598.663 844.294C597.256 828.552 583.336 816.926 567.572 818.331Z" fill="#A21942"/>
<path d="M714.452 697.986L595.349 590.812C582.836 603.572 568.706 614.688 553.346 623.879L625.487 767.101C658.52 748.726 688.539 725.381 714.452 697.986Z" fill="#FCC30B"/>
<path d="M730.812 763.782C723.817 749.602 706.639 743.767 692.444 750.749C678.247 757.732 672.409 774.887 679.404 789.067C686.396 803.246 703.574 809.081 717.772 802.1C731.969 795.117 737.807 777.962 730.812 763.782Z" fill="#FCC30B"/>
<path d="M637.15 529.41C630.147 545.267 621.263 560.034 610.756 573.455L730.121 680.895C753.484 652.91 772.775 621.345 787.069 586.998L637.15 529.41Z" fill="#26BDE2"/>
<path d="M824.153 643.872C812.511 633.158 794.385 633.897 783.662 645.52C772.938 657.142 773.682 675.248 785.322 685.958C796.961 696.669 815.089 695.931 825.812 684.309C836.534 672.687 835.791 654.583 824.153 643.872Z" fill="#26BDE2"/>
<path d="M654.317 456.728C654.186 459.227 654.026 461.7 653.808 464.184C652.49 479.254 649.583 493.806 645.231 507.687L795.269 565.313C804.755 537.708 811.077 508.53 813.733 478.176C814.392 470.638 814.797 463.134 814.987 455.64L654.317 456.728Z" fill="#FF3A21"/>
<path d="M869.908 495.033C855.186 489.228 838.544 496.44 832.735 511.142C826.927 525.844 834.152 542.467 848.873 548.273C863.596 554.076 880.238 546.864 886.047 532.162C891.856 517.46 884.63 500.839 869.908 495.033Z" fill="#FF3A21"/>
<path d="M644.328 381.755C649.775 398.301 653.154 415.66 654.247 433.553L814.894 432.473C813.492 394.39 806.19 357.556 793.803 322.98L644.328 381.755Z" fill="#C5192D"/>
<path d="M887.749 366.579C887.865 350.775 875.128 337.868 859.3 337.751C843.476 337.632 830.555 350.349 830.442 366.155C830.326 381.961 843.063 394.868 858.889 394.985C874.715 395.102 887.636 382.386 887.749 366.579Z" fill="#C5192D"/>
<path d="M726.152 206.82L607.775 315.17C618.979 328.877 628.442 343.995 635.86 360.184L785.315 301.416C770.455 266.942 750.443 235.054 726.152 206.82Z" fill="#4C9F38"/>
<path d="M831.682 216.161C826.086 201.376 809.548 193.92 794.745 199.503C779.941 205.089 772.478 221.603 778.073 236.39C783.67 251.174 800.208 258.633 815.01 253.048C829.814 247.462 837.276 230.948 831.682 216.161Z" fill="#4C9F38"/>
<path d="M549.412 265.843C565.074 274.737 579.418 285.593 592.127 298.073L710.509 189.694C684.189 162.689 653.682 139.637 619.954 121.636L549.412 265.843Z" fill="#DDA63A"/>
<path d="M720.181 91.6881C709.577 79.9514 691.455 79.0243 679.71 89.613C667.962 100.199 667.035 118.295 677.64 130.03C688.243 141.767 706.363 142.696 718.111 132.108C729.857 121.521 730.785 103.423 720.181 91.6881Z" fill="#DDA63A"/>
</svg>
