<svg width="401" height="401" viewBox="0 0 401 401" fill="none" xmlns="http://www.w3.org/2000/svg">
<path d="M97.4266 71.0068L144.652 125.458C151.023 120.588 157.849 116.66 164.953 113.671L140.412 45.8336C125.227 51.8508 110.72 60.2216 97.4266 71.0068Z" fill="#E3243B"/>
<path d="M110.913 48.6661C117.618 46.3304 121.17 38.993 118.848 32.277C116.526 25.5618 109.209 22.0112 102.504 24.3469C95.7995 26.6826 92.2469 34.0199 94.569 40.7359C96.8911 47.4519 104.208 51.0018 110.913 48.6661Z" fill="#E3243B"/>
<path d="M58.0325 117.233L121.744 150.878C125.835 144.179 130.844 137.906 136.751 132.254L89.5306 77.8086C76.7587 89.5514 66.2643 102.88 58.0325 117.233Z" fill="#19486A"/>
<path d="M61.8913 92.5356C67.2321 87.8472 67.7745 79.7133 63.103 74.3674C58.4326 69.0215 50.3166 68.4884 44.9754 73.1762C39.634 77.8651 39.0922 85.9984 43.7638 91.3444C48.4347 96.6909 56.5507 97.2228 61.8913 92.5356Z" fill="#19486A"/>
<path d="M53.135 126.441C45.695 141.562 40.6868 157.624 38.1226 174.028L109.662 182.326C111.096 174.683 113.489 167.21 116.813 160.072L53.135 126.441Z" fill="#00689D"/>
<path d="M33.1195 149.734C36.4184 143.434 33.9996 135.654 27.7187 132.356C21.4366 129.06 13.6703 131.493 10.371 137.792C7.07208 144.091 9.49092 151.871 15.7726 155.168C22.0542 158.467 29.8209 156.033 33.1195 149.734Z" fill="#00689D"/>
<path d="M36.8159 184.384C35.2469 201.227 36.2512 218.29 39.839 234.938L109.608 216.786C108.136 208.814 107.705 200.706 108.303 192.674L36.8159 184.384Z" fill="#56C02B"/>
<path d="M15.2015 199.982C8.15354 199.176 1.77957 204.25 0.966079 211.314C0.151757 218.379 5.20689 224.759 12.2556 225.565C19.3043 226.372 25.6774 221.299 26.4901 214.234C27.3052 207.17 22.251 200.789 15.2015 199.982Z" fill="#56C02B"/>
<path d="M63.5965 291.274L122.026 248.908C117.684 241.941 114.377 234.538 112.064 226.923L42.3621 245.052C46.9195 261.19 53.9852 276.798 63.5965 291.274Z" fill="#0A97D9"/>
<path d="M27.7549 266.097C20.8677 267.819 16.6729 274.809 18.3836 281.707C20.0953 288.605 27.0644 292.801 33.9505 291.078C40.8359 289.354 45.0306 282.364 43.3198 275.466C41.6083 268.568 34.6409 264.372 27.7549 266.097Z" fill="#0A97D9"/>
<path d="M128.016 257.421L69.6458 299.757C71.8071 302.592 74.0551 305.395 76.4265 308.129C85.4449 318.528 95.4977 327.506 106.269 335.071L145.55 274.475C140.246 270.53 135.285 265.972 130.777 260.774C129.827 259.679 128.913 258.551 128.016 257.421Z" fill="#3F7E44"/>
<path d="M63.7492 325.003C57.9424 329.097 56.5401 337.128 60.6168 342.941C64.6946 348.755 72.7069 350.15 78.5134 346.057C84.3206 341.964 85.7229 333.933 81.6451 328.119C77.5684 322.305 69.5563 320.909 63.7492 325.003Z" fill="#3F7E44"/>
<path d="M114.989 340.765C129.771 349.795 145.722 356.312 162.216 360.27L176.948 289.613C169.074 287.517 161.412 284.383 154.237 280.206L114.989 340.765Z" fill="#BF8B2E"/>
<path d="M118.293 366.161C114.344 372.074 115.924 380.068 121.82 384.016C127.715 387.965 135.694 386.372 139.642 380.459C143.59 374.546 142.01 366.551 136.116 362.603C130.22 358.654 122.241 360.247 118.293 366.161Z" fill="#BF8B2E"/>
<path d="M187.139 291.719L172.412 362.37C189.069 365.277 206.107 365.619 222.915 363.372L211.355 292.166C203.294 293.068 195.146 292.912 187.139 291.719Z" fill="#FD9D24"/>
<path d="M184.332 384.931C182.821 391.881 187.216 398.733 194.148 400.239C201.08 401.744 207.926 397.331 209.436 390.381C210.948 383.433 206.553 376.579 199.62 375.074C192.687 373.569 185.842 377.982 184.332 384.931Z" fill="#FD9D24"/>
<path d="M233.182 361.682C249.656 358.398 265.74 352.584 280.853 344.19L244.528 281.94C237.205 285.825 229.497 288.652 221.62 290.438L233.182 361.682Z" fill="#DD1367"/>
<path d="M262.854 363.904C255.842 365.004 251.041 371.591 252.13 378.614C253.219 385.639 259.784 390.442 266.795 389.343C273.808 388.243 278.608 381.657 277.52 374.632C276.43 367.607 269.865 362.803 262.854 363.904Z" fill="#DD1367"/>
<path d="M327.985 305.046L271.524 260.324C268.633 263.682 265.475 266.891 262.031 269.892C259.265 272.302 256.384 274.509 253.433 276.532L289.797 338.85C296.517 334.532 303.01 329.69 309.209 324.289C316.086 318.297 322.344 311.851 327.985 305.046Z" fill="#FD6925"/>
<path d="M318.49 330.061C312.342 333.618 310.229 341.493 313.772 347.65C317.312 353.806 325.168 355.913 331.316 352.357C337.464 348.799 339.577 340.925 336.035 334.768C332.494 328.612 324.638 326.505 318.49 330.061Z" fill="#FD6925"/>
<path d="M288.657 230.753C286.011 238.205 282.419 245.374 277.87 252.05L334.382 296.809C344.419 283.004 352.09 267.917 357.352 252.157L288.657 230.753Z" fill="#A21942"/>
<path d="M358.695 276.847C354.235 282.383 355.095 290.488 360.613 294.949C366.133 299.411 374.222 298.54 378.68 293.002C383.14 287.466 382.28 279.362 376.761 274.9C371.243 270.438 363.153 271.309 358.695 276.847Z" fill="#A21942"/>
<path d="M365.631 191.756L293.934 196.803C294.153 204.835 293.336 212.877 291.516 220.715L360.211 242.115C364.574 225.693 366.396 208.692 365.631 191.756Z" fill="#FCC30B"/>
<path d="M391.96 207.014C385.204 204.848 377.969 208.581 375.798 215.353C373.628 222.125 377.344 229.371 384.099 231.538C390.854 233.705 398.089 229.971 400.261 223.199C402.431 216.427 398.715 209.181 391.96 207.014Z" fill="#FCC30B"/>
<path d="M287.146 164.106C290.081 171.324 292.078 178.809 293.134 186.399L364.998 181.35C363.248 165.053 359.074 148.956 352.445 133.605L287.146 164.106Z" fill="#26BDE2"/>
<path d="M382.353 139.375C375.268 139.794 369.858 145.887 370.267 152.985C370.676 160.083 376.75 165.498 383.833 165.078C390.916 164.659 396.327 158.566 395.918 151.467C395.509 144.37 389.436 138.956 382.353 139.375Z" fill="#26BDE2"/>
<path d="M269.043 135.854C269.808 136.676 270.557 137.501 271.29 138.347C275.742 143.48 279.532 148.965 282.655 154.708L348.003 124.18C342.051 112.49 334.606 101.333 325.639 90.9935C323.412 88.426 321.117 85.9513 318.758 83.5495L269.043 135.854Z" fill="#FF3A21"/>
<path d="M348.583 78.09C342.123 81.0385 339.264 88.6735 342.198 95.144C345.132 101.614 352.747 104.469 359.208 101.522C365.668 98.5723 368.527 90.9373 365.593 84.4668C362.659 77.9964 355.044 75.1423 348.583 78.09Z" fill="#FF3A21"/>
<path d="M241.738 115.668C248.774 119.074 255.428 123.403 261.543 128.638L311.253 76.3437C298.528 64.9028 284.367 55.7605 269.35 48.9676L241.738 115.668Z" fill="#C5192D"/>
<path d="M312.693 32.2003C307.629 27.227 299.496 27.3151 294.526 32.3977C289.557 37.4786 289.634 45.6294 294.699 50.6027C299.763 55.5765 307.897 55.4884 312.866 50.4064C317.835 45.3244 317.759 37.1741 312.693 32.2003Z" fill="#C5192D"/>
<path d="M210.787 34.568L208.862 106.694C216.776 107.352 224.603 109.013 232.139 111.67L259.747 44.9779C243.992 39.017 227.467 35.5298 210.787 34.568Z" fill="#4C9F38"/>
<path d="M246.685 3.35424C240.171 0.546567 232.611 3.56654 229.8 10.0981C226.99 16.6307 229.993 24.2023 236.508 27.011C243.022 29.8179 250.583 26.7991 253.393 20.2672C256.203 13.7346 253.2 6.16378 246.685 3.35424Z" fill="#4C9F38"/>
<path d="M174.759 110.164C182.509 107.876 190.482 106.628 198.469 106.415L200.386 34.2781C183.471 34.3562 166.526 37.0236 150.208 42.3095L174.759 110.164Z" fill="#DDA63A"/>
<path d="M171.775 0.540447C164.684 0.304203 158.738 5.87572 158.495 12.9816C158.25 20.0874 163.8 26.0389 170.892 26.2743C177.983 26.5105 183.929 20.9407 184.173 13.834C184.417 6.72821 178.867 0.775857 171.775 0.540447Z" fill="#DDA63A"/>
</svg>
