<svg fill="none" height="96" viewBox="0 0 164 96" width="164" xmlns="http://www.w3.org/2000/svg"><path d="m49.1066 8.68652v17.09108c1.8961.122 3.7274.4827 5.4625 1.0549l6.1372-15.9506c-3.6514-1.28959-7.5466-2.05284-11.5997-2.19538z" fill="#e3243b"/><path d="m54.9876 6.79208c1.5626.62689 3.3372-.13148 3.964-1.69388.6266-1.56228-.1316-3.33679-1.6942-3.96369-1.5622-.626748-3.3368.13163-3.9635 1.69384-.6269 1.56258.1315 3.33698 1.6937 3.96373z" fill="#e3243b"/><path d="m34.8817 10.8145 6.1794 15.9395c1.7723-.5605 3.6422-.9019 5.5764-.992l.0001-17.08909c-4.1082.10964-8.0549.85793-11.7559 2.14159z" fill="#19486a"/><path d="m39.4059 7.00037c1.6834-.00627 3.0429-1.37595 3.0366-3.05938-.006-1.68323-1.3757-3.042745-3.0591-3.036673-1.6835.00627-3.043 1.375943-3.0367 3.059373.0063 1.68344 1.3759 3.04275 3.0592 3.03668z" fill="#19486a"/><path d="m32.5767 11.6972c-3.6782 1.5443-7.0674 3.6357-10.0724 6.1691l11.5146 12.627c1.4429-1.1429 3.031-2.1063 4.7337-2.8646z" fill="#00689d"/><path d="m25.3793 12.7467c1.5681-.6124 2.3428-2.3801 1.7305-3.948-.6125-1.56786-2.3801-2.34277-3.948-1.73046-1.5682.61237-2.3428 2.38006-1.7305 3.94796.6124 1.5682 2.3801 2.3428 3.948 1.7305z" fill="#00689d"/><path d="m20.6631 19.516c-2.8949 2.7667-5.3636 5.9738-7.3053 9.5087l15.3029 7.6229c.9738-1.6547 2.1549-3.1715 3.5089-4.5141z" fill="#56c02b"/><path d="m14.3738 18.9348c-1.1361-1.242-3.0642-1.3279-4.3062-.1918-1.24223 1.1365-1.32788 3.0645-.19172 4.3065 1.13642 1.242 3.06422 1.3276 4.30622.1915 1.2422-1.1362 1.3279-3.0643.1917-4.3062z" fill="#56c02b"/><path d="m8.86537 42.7949 17.03183 1.5275c.3044-1.9222.8614-3.7606 1.6296-5.482l-15.2875-7.6165c-1.6891 3.595-2.84722 7.486-3.37393 11.571z" fill="#0a97d9"/><path d="m6.35864 32.7124c-1.49992-.7643-3.33515-.1684-4.09994 1.3315-.76435 1.5-.1684 3.3352 1.33143 4.0997 1.50001.7646 3.33532.1685 4.09976-1.3311.76461-1.5001.16866-3.3353-1.33125-4.1001z" fill="#0a97d9"/><path d="m25.6479 46.7823-17.01652-1.5235c-.05331.8436-.08608 1.6949-.08608 2.5531 0 3.2638.40551 6.4347 1.15889 9.4649l16.43461-4.7145c-.3368-1.5312-.5172-3.1189-.5172-4.7504 0-.3439.0114-.6878.0263-1.0296z" fill="#3f7e44"/><path d="m3.65758 48.8475c-1.67456-.1728-3.171972 1.0446-3.344866 2.719-.172738 1.6747 1.044856 3.1722 2.719416 3.3449 1.67434.1729 3.17177-1.0447 3.34449-2.7193.17289-1.6743-1.0447-3.1718-2.71904-3.3446z" fill="#3f7e44"/><path d="m10.3808 59.6505c1.2438 3.9171 3.087 7.5669 5.4244 10.8438l13.6028-10.3372c-1.0838-1.6013-1.9685-3.3551-2.6042-5.2196z" fill="#bf8b2e"/><path d="m7.0305 64.7039c-1.62452.4423-2.5827 2.1176-2.14031 3.7419.44215 1.6241 2.11723 2.5822 3.74161 2.1401 1.6241-.4421 2.5825-2.1175 2.1401-3.7418-.4421-1.6241-2.11721-2.5821-3.7414-2.1402z" fill="#bf8b2e"/><path d="m30.9051 62.1212-13.6011 10.337c2.5297 3.1147 5.5256 5.8295 8.8822 8.0462l8.9828-14.5308c-1.5823-1.0944-3.0162-2.3914-4.2639-3.8524z" fill="#fd9d24"/><path d="m15.9354 78.3466c-1.3492 1.0072-1.6262 2.9169-.6192 4.2659 1.0069 1.3489 2.917 1.6264 4.2659.6193 1.349-1.0068 1.6261-2.9168.619-4.2658-1.0069-1.3489-2.9166-1.6264-4.2657-.6194z" fill="#fd9d24"/><path d="m28.286 81.802c3.4578 1.9791 7.2385 3.4449 11.2457 4.2985l3.1613-16.7874c-1.9133-.4463-3.7316-1.1411-5.4185-2.0491z" fill="#dd1367"/><path d="m33.2509 86.818c-1.4254-.8953-3.3068-.4657-4.2022.9596-.8956 1.4255-.466 3.3069.9593 4.2023 1.4255.8958 3.307.4663 4.2024-.9595.8955-1.4253.466-3.3069-.9595-4.2024z" fill="#dd1367"/><path d="m54.0419 86.4389-3.1629-16.7905c-1.0385.1503-2.1016.232-3.1839.232-.8689 0-1.7271-.0541-2.5693-.1522l-3.1647 16.8056c1.8729.2748 3.7864.4205 5.734.4205 2.1606 0 4.2813-.1777 6.3468-.5154z" fill="#fd6925"/><path d="m48.4602 89.433c-1.6524-.3217-3.2527.7571-3.5745 2.4093-.3217 1.6524.7571 3.2527 2.4093 3.5746 1.6524.3216 3.2529-.757 3.5744-2.4094.3218-1.6524-.757-3.2525-2.4092-3.5745z" fill="#fd6925"/><path d="m58.5346 67.0341c-1.63.9203-3.3857 1.6425-5.2359 2.1274l3.1663 16.805c3.9389-.905 7.6535-2.4073 11.041-4.4049z" fill="#a21942"/><path d="m63.914 86.1821c-1.6574.2952-2.7614 1.8782-2.4662 3.5354.2953 1.6571 1.8781 2.7614 3.5354 2.466 1.6572-.2951 2.7615-1.8779 2.466-3.5352-.2951-1.6572-1.8779-2.7615-3.5352-2.4662z" fill="#a21942"/><path d="m78.3624 72.0508-13.6139-10.2657c-1.2077 1.47-2.6016 2.7805-4.1442 3.8983l8.9722 14.5264c3.3298-2.2562 6.2941-5.0119 8.7859-8.159z" fill="#fcc30b"/><path d="m80.7061 78.8826c-.8726-1.4396-2.7469-1.8993-4.1865-1.0267-1.4397.8726-1.8992 2.7471-1.0266 4.1864.8726 1.4397 2.7469 1.8994 4.1866 1.0268 1.4396-.8726 1.8993-2.7469 1.0265-4.1865z" fill="#fcc30b"/><path d="m68.6087 54.8789c-.5948 1.7474-1.3995 3.3965-2.3885 4.9182l13.6443 10.2915c2.2161-3.1861 3.9675-6.7141 5.1639-10.4912z" fill="#26bde2"/><path d="m89.4849 65.2931c-1.3326-1.0283-3.2468-.7818-4.2751.5508-1.0285 1.3327-.7817 3.2466.5509 4.2752 1.3326 1.0284 3.2468.7818 4.2751-.5507 1.0285-1.3328.782-3.2467-.5509-4.2753z" fill="#26bde2"/><path d="m69.7537 47.0121c.0093.2663.0154.5303.0154.7958 0 1.6112-.1733 3.1819-.5058 4.6954l16.4327 4.7214c.7492-3.017 1.1488-6.1715 1.1488-9.4168 0-.8058-.0268-1.6058-.0762-2.4026z" fill="#ff3a21"/><path d="m92.9538 49.0748c-1.6138-.4792-3.3106.4404-3.7897 2.0542-.4794 1.6138.4405 3.3104 2.0543 3.7898 1.6139.4789 3.3104-.4406 3.7894-2.0545.4794-1.6137-.4402-3.3103-2.054-3.7895z" fill="#ff3a21"/><path d="m68.0004 39.1493c.7307 1.7046 1.2498 3.5152 1.5313 5.4036l17.0127-1.6057c-.5019-4.0279-1.6169-7.8684-3.2502-11.4218z" fill="#c5192d"/><path d="m93.6534 35.2828c-.1346-1.6779-1.6038-2.9293-3.2819-2.7947-1.6779.1342-2.9291 1.6037-2.7947 3.2815.1343 1.6783 1.6037 2.9296 3.2818 2.7951 1.678-.1346 2.9293-1.6039 2.7948-3.2819z" fill="#c5192d"/><path d="m75.0488 19.8301-11.5393 12.5952c1.3144 1.3501 2.4574 2.8664 3.3934 4.5151l15.2917-7.6225c-1.8941-3.5199-4.3101-6.7177-7.1458-9.4878z" fill="#4c9f38"/><path d="m86.318 19.8425c-.7301-1.5169-2.5515-2.1547-4.0684-1.4246-1.5167.73-2.1548 2.5516-1.4244 4.0683.7301 1.5169 2.5515 2.1547 4.0679 1.4246 1.5172-.73 2.1548-2.5513 1.4249-4.0683z" fill="#4c9f38"/><path d="m56.8682 27.7331c1.7423.7983 3.3626 1.817 4.8252 3.023l11.5392-12.5979c-3.039-2.6209-6.4854-4.7835-10.2264-6.3804z" fill="#dda63a"/><path d="m73.3492 7.67081c-1.2327-1.14685-3.1612-1.07706-4.3078.15528-1.1465 1.23248-1.0771 3.16121.1552 4.30781 1.2325 1.1467 3.1613 1.077 4.308-.1554 1.1464-1.2325 1.077-3.16096-.1554-4.30769z" fill="#dda63a"/><g fill="#000"><path d="m105.502 16.665h3.138v16.104h3.744v2.56h-6.882z"/><path d="m113.539 16.665h7.488v2.5603h-4.349v5.3403h3.11v2.5326h-3.11v5.6708h4.349v2.56h-7.488z"/><path d="m125.734 29.4106h2.505l-1.239-7.4875h-.027zm-3.936 5.9186 3.523-18.6642h3.579l3.551 18.6642h-3.221l-.578-3.4137h-3.331l-.55 3.4137z"/><path d="m142.141 16.665-3.551 18.664h-3.414l-3.551-18.664h3.193l2.147 13.0208h.028l2.202-13.0208z"/><path d="m143.159 16.665h7.488v2.5603h-4.35v5.3403h3.111v2.5326h-3.111v5.6708h4.35v2.56h-7.488z"/><path d="m108.144 46.3805v11.7269h-2.642v-18.664h3.083l3.386 10.7085v-10.7085h2.615v18.664h-2.753z"/><path d="m122.734 53.7832v-10.0203c0-1.1287-.496-1.9271-1.624-1.9271-1.102 0-1.597.7984-1.597 1.9271v10.0203c0 1.1287.495 1.9268 1.597 1.9268 1.128 0 1.624-.7981 1.624-1.9268zm-6.359-.4956v-9.0292c0-2.9179 1.431-5.0377 4.735-5.0377 3.331 0 4.762 2.1198 4.762 5.0377v9.0292c0 2.8905-1.431 5.0375-4.762 5.0375-3.304 0-4.735-2.147-4.735-5.0375z"/><path d="m136.91 53.7832v-10.0203c0-1.1287-.495-1.9271-1.624-1.9271-1.101 0-1.596.7984-1.596 1.9271v10.0203c0 1.1287.495 1.9268 1.596 1.9268 1.129 0 1.624-.7981 1.624-1.9268zm-6.358-.4956v-9.0292c0-2.9179 1.431-5.0377 4.734-5.0377 3.331 0 4.763 2.1198 4.763 5.0377v9.0292c0 2.8905-1.432 5.0375-4.763 5.0375-3.303 0-4.734-2.147-4.734-5.0375z"/><path d="m144.48 46.3805v11.7269h-2.642v-18.664h3.083l3.386 10.7085v-10.7085h2.615v18.664h-2.753z"/><path d="m153.124 39.4434h7.488v2.5602h-4.35v5.3403h3.111v2.5326h-3.111v5.6708h4.35v2.56h-7.488z"/><path d="m108.64 72.4866v5.8361h1.376c1.046 0 1.541-.5231 1.541-1.514v-2.808c0-.9911-.467-1.5141-1.568-1.5141zm0-2.3949h1.101c1.018 0 1.486-.5228 1.486-1.5139v-2.285c0-1.0183-.468-1.5138-1.514-1.5138h-1.073zm-3.139-7.8729h4.542c3.139 0 4.185 1.4589 4.185 4.1017v1.8994c0 1.5691-.578 2.56-1.872 2.973 1.569.3579 2.34 1.4041 2.34 3.1107v2.4774c0 2.6428-1.184 4.1015-4.322 4.1015h-4.873z"/><path d="m116.265 62.2188h7.487v2.5602h-4.349v5.3403h3.11v2.5326h-3.11v5.6706h4.349v2.56h-7.487z"/><path d="m131.598 72.6519h-3.029v8.2306h-3.138v-18.6637h3.138v7.9005h3.029v-7.9005h3.165v18.6637h-3.165z"/><path d="m140.104 62.2188h-3.138v18.6637h3.138z"/><path d="m144.976 69.1559v11.7266h-2.642v-18.6637h3.083l3.386 10.7083v-10.7083h2.615v18.6637h-2.753z"/><path d="m158.079 78.3225c1.294 0 1.79-.7707 1.79-1.8994v-9.7725c0-1.1009-.496-1.8718-1.79-1.8718h-1.321v13.5437zm4.928-11.0937v8.6437c0 2.863-1.184 5.01-4.542 5.01h-4.845v-18.6637h4.845c3.358 0 4.542 2.1195 4.542 5.01z"/></g></svg>